<?xml version="1.0" encoding="utf-8" standalone="no"?>
<!DOCTYPE svg PUBLIC "-//W3C//DTD SVG 1.1//EN"
  "http://www.w3.org/Graphics/SVG/1.1/DTD/svg11.dtd">
<!-- Created with matplotlib (https://matplotlib.org/) -->
<svg height="250.315625pt" version="1.1" viewBox="0 0 323.96648 250.315625" width="323.96648pt" xmlns="http://www.w3.org/2000/svg" xmlns:xlink="http://www.w3.org/1999/xlink">
 <defs>
  <style type="text/css">
*{stroke-linecap:butt;stroke-linejoin:round;}
  </style>
 </defs>
 <g id="figure_1">
  <g id="patch_1">
   <path d="M 0 250.315625 
L 323.96648 250.315625 
L 323.96648 0 
L 0 0 
z
" style="fill:#ffffff;"/>
  </g>
  <g id="axes_1">
   <g id="patch_2">
    <path d="M 82.360313 179.09625 
L 313.264631 179.09625 
L 313.264631 31.43625 
L 82.360313 31.43625 
z
" style="fill:#ffffff;"/>
   </g>
   <g id="matplotlib.axis_1">
    <g id="xtick_1">
     <g id="line2d_1">
      <defs>
       <path d="M 0 0 
L 0 12 
" id="m45a4e376c0" style="stroke:#262626;stroke-width:2.5;"/>
      </defs>
      <g>
       <use style="fill:#262626;stroke:#262626;stroke-width:2.5;" x="192.288445" xlink:href="#m45a4e376c0" y="179.09625"/>
      </g>
     </g>
     <g id="text_1">
      <!-- 10 -->
      <defs>
       <path d="M 12.40625 8.296875 
L 28.515625 8.296875 
L 28.515625 63.921875 
L 10.984375 60.40625 
L 10.984375 69.390625 
L 28.421875 72.90625 
L 38.28125 72.90625 
L 38.28125 8.296875 
L 54.390625 8.296875 
L 54.390625 0 
L 12.40625 0 
z
" id="DejaVuSans-49"/>
       <path d="M 31.78125 66.40625 
Q 24.171875 66.40625 20.328125 58.90625 
Q 16.5 51.421875 16.5 36.375 
Q 16.5 21.390625 20.328125 13.890625 
Q 24.171875 6.390625 31.78125 6.390625 
Q 39.453125 6.390625 43.28125 13.890625 
Q 47.125 21.390625 47.125 36.375 
Q 47.125 51.421875 43.28125 58.90625 
Q 39.453125 66.40625 31.78125 66.40625 
z
M 31.78125 74.21875 
Q 44.046875 74.21875 50.515625 64.515625 
Q 56.984375 54.828125 56.984375 36.375 
Q 56.984375 17.96875 50.515625 8.265625 
Q 44.046875 -1.421875 31.78125 -1.421875 
Q 19.53125 -1.421875 13.0625 8.265625 
Q 6.59375 17.96875 6.59375 36.375 
Q 6.59375 54.828125 13.0625 64.515625 
Q 19.53125 74.21875 31.78125 74.21875 
z
" id="DejaVuSans-48"/>
      </defs>
      <g style="fill:#262626;" transform="translate(178.290945 211.312813)scale(0.22 -0.22)">
       <use xlink:href="#DejaVuSans-49"/>
       <use x="63.623047" xlink:href="#DejaVuSans-48"/>
      </g>
     </g>
    </g>
    <g id="xtick_2">
     <g id="line2d_2">
      <g>
       <use style="fill:#262626;stroke:#262626;stroke-width:2.5;" x="302.76898" xlink:href="#m45a4e376c0" y="179.09625"/>
      </g>
     </g>
     <g id="text_2">
      <!-- 20 -->
      <defs>
       <path d="M 19.1875 8.296875 
L 53.609375 8.296875 
L 53.609375 0 
L 7.328125 0 
L 7.328125 8.296875 
Q 12.9375 14.109375 22.625 23.890625 
Q 32.328125 33.6875 34.8125 36.53125 
Q 39.546875 41.84375 41.421875 45.53125 
Q 43.3125 49.21875 43.3125 52.78125 
Q 43.3125 58.59375 39.234375 62.25 
Q 35.15625 65.921875 28.609375 65.921875 
Q 23.96875 65.921875 18.8125 64.3125 
Q 13.671875 62.703125 7.8125 59.421875 
L 7.8125 69.390625 
Q 13.765625 71.78125 18.9375 73 
Q 24.125 74.21875 28.421875 74.21875 
Q 39.75 74.21875 46.484375 68.546875 
Q 53.21875 62.890625 53.21875 53.421875 
Q 53.21875 48.921875 51.53125 44.890625 
Q 49.859375 40.875 45.40625 35.40625 
Q 44.1875 33.984375 37.640625 27.21875 
Q 31.109375 20.453125 19.1875 8.296875 
z
" id="DejaVuSans-50"/>
      </defs>
      <g style="fill:#262626;" transform="translate(288.77148 211.312813)scale(0.22 -0.22)">
       <use xlink:href="#DejaVuSans-50"/>
       <use x="63.623047" xlink:href="#DejaVuSans-48"/>
      </g>
     </g>
    </g>
    <g id="text_3">
     <!-- carrying capacity -->
     <defs>
      <path d="M 48.78125 52.59375 
L 48.78125 44.1875 
Q 44.96875 46.296875 41.140625 47.34375 
Q 37.3125 48.390625 33.40625 48.390625 
Q 24.65625 48.390625 19.8125 42.84375 
Q 14.984375 37.3125 14.984375 27.296875 
Q 14.984375 17.28125 19.8125 11.734375 
Q 24.65625 6.203125 33.40625 6.203125 
Q 37.3125 6.203125 41.140625 7.25 
Q 44.96875 8.296875 48.78125 10.40625 
L 48.78125 2.09375 
Q 45.015625 0.34375 40.984375 -0.53125 
Q 36.96875 -1.421875 32.421875 -1.421875 
Q 20.0625 -1.421875 12.78125 6.34375 
Q 5.515625 14.109375 5.515625 27.296875 
Q 5.515625 40.671875 12.859375 48.328125 
Q 20.21875 56 33.015625 56 
Q 37.15625 56 41.109375 55.140625 
Q 45.0625 54.296875 48.78125 52.59375 
z
" id="DejaVuSans-99"/>
      <path d="M 34.28125 27.484375 
Q 23.390625 27.484375 19.1875 25 
Q 14.984375 22.515625 14.984375 16.5 
Q 14.984375 11.71875 18.140625 8.90625 
Q 21.296875 6.109375 26.703125 6.109375 
Q 34.1875 6.109375 38.703125 11.40625 
Q 43.21875 16.703125 43.21875 25.484375 
L 43.21875 27.484375 
z
M 52.203125 31.203125 
L 52.203125 0 
L 43.21875 0 
L 43.21875 8.296875 
Q 40.140625 3.328125 35.546875 0.953125 
Q 30.953125 -1.421875 24.3125 -1.421875 
Q 15.921875 -1.421875 10.953125 3.296875 
Q 6 8.015625 6 15.921875 
Q 6 25.140625 12.171875 29.828125 
Q 18.359375 34.515625 30.609375 34.515625 
L 43.21875 34.515625 
L 43.21875 35.40625 
Q 43.21875 41.609375 39.140625 45 
Q 35.0625 48.390625 27.6875 48.390625 
Q 23 48.390625 18.546875 47.265625 
Q 14.109375 46.140625 10.015625 43.890625 
L 10.015625 52.203125 
Q 14.9375 54.109375 19.578125 55.046875 
Q 24.21875 56 28.609375 56 
Q 40.484375 56 46.34375 49.84375 
Q 52.203125 43.703125 52.203125 31.203125 
z
" id="DejaVuSans-97"/>
      <path d="M 41.109375 46.296875 
Q 39.59375 47.171875 37.8125 47.578125 
Q 36.03125 48 33.890625 48 
Q 26.265625 48 22.1875 43.046875 
Q 18.109375 38.09375 18.109375 28.8125 
L 18.109375 0 
L 9.078125 0 
L 9.078125 54.6875 
L 18.109375 54.6875 
L 18.109375 46.1875 
Q 20.953125 51.171875 25.484375 53.578125 
Q 30.03125 56 36.53125 56 
Q 37.453125 56 38.578125 55.875 
Q 39.703125 55.765625 41.0625 55.515625 
z
" id="DejaVuSans-114"/>
      <path d="M 32.171875 -5.078125 
Q 28.375 -14.84375 24.75 -17.8125 
Q 21.140625 -20.796875 15.09375 -20.796875 
L 7.90625 -20.796875 
L 7.90625 -13.28125 
L 13.1875 -13.28125 
Q 16.890625 -13.28125 18.9375 -11.515625 
Q 21 -9.765625 23.484375 -3.21875 
L 25.09375 0.875 
L 2.984375 54.6875 
L 12.5 54.6875 
L 29.59375 11.921875 
L 46.6875 54.6875 
L 56.203125 54.6875 
z
" id="DejaVuSans-121"/>
      <path d="M 9.421875 54.6875 
L 18.40625 54.6875 
L 18.40625 0 
L 9.421875 0 
z
M 9.421875 75.984375 
L 18.40625 75.984375 
L 18.40625 64.59375 
L 9.421875 64.59375 
z
" id="DejaVuSans-105"/>
      <path d="M 54.890625 33.015625 
L 54.890625 0 
L 45.90625 0 
L 45.90625 32.71875 
Q 45.90625 40.484375 42.875 44.328125 
Q 39.84375 48.1875 33.796875 48.1875 
Q 26.515625 48.1875 22.3125 43.546875 
Q 18.109375 38.921875 18.109375 30.90625 
L 18.109375 0 
L 9.078125 0 
L 9.078125 54.6875 
L 18.109375 54.6875 
L 18.109375 46.1875 
Q 21.34375 51.125 25.703125 53.5625 
Q 30.078125 56 35.796875 56 
Q 45.21875 56 50.046875 50.171875 
Q 54.890625 44.34375 54.890625 33.015625 
z
" id="DejaVuSans-110"/>
      <path d="M 45.40625 27.984375 
Q 45.40625 37.75 41.375 43.109375 
Q 37.359375 48.484375 30.078125 48.484375 
Q 22.859375 48.484375 18.828125 43.109375 
Q 14.796875 37.75 14.796875 27.984375 
Q 14.796875 18.265625 18.828125 12.890625 
Q 22.859375 7.515625 30.078125 7.515625 
Q 37.359375 7.515625 41.375 12.890625 
Q 45.40625 18.265625 45.40625 27.984375 
z
M 54.390625 6.78125 
Q 54.390625 -7.171875 48.1875 -13.984375 
Q 42 -20.796875 29.203125 -20.796875 
Q 24.46875 -20.796875 20.265625 -20.09375 
Q 16.0625 -19.390625 12.109375 -17.921875 
L 12.109375 -9.1875 
Q 16.0625 -11.328125 19.921875 -12.34375 
Q 23.78125 -13.375 27.78125 -13.375 
Q 36.625 -13.375 41.015625 -8.765625 
Q 45.40625 -4.15625 45.40625 5.171875 
L 45.40625 9.625 
Q 42.625 4.78125 38.28125 2.390625 
Q 33.9375 0 27.875 0 
Q 17.828125 0 11.671875 7.65625 
Q 5.515625 15.328125 5.515625 27.984375 
Q 5.515625 40.671875 11.671875 48.328125 
Q 17.828125 56 27.875 56 
Q 33.9375 56 38.28125 53.609375 
Q 42.625 51.21875 45.40625 46.390625 
L 45.40625 54.6875 
L 54.390625 54.6875 
z
" id="DejaVuSans-103"/>
      <path id="DejaVuSans-32"/>
      <path d="M 18.109375 8.203125 
L 18.109375 -20.796875 
L 9.078125 -20.796875 
L 9.078125 54.6875 
L 18.109375 54.6875 
L 18.109375 46.390625 
Q 20.953125 51.265625 25.265625 53.625 
Q 29.59375 56 35.59375 56 
Q 45.5625 56 51.78125 48.09375 
Q 58.015625 40.1875 58.015625 27.296875 
Q 58.015625 14.40625 51.78125 6.484375 
Q 45.5625 -1.421875 35.59375 -1.421875 
Q 29.59375 -1.421875 25.265625 0.953125 
Q 20.953125 3.328125 18.109375 8.203125 
z
M 48.6875 27.296875 
Q 48.6875 37.203125 44.609375 42.84375 
Q 40.53125 48.484375 33.40625 48.484375 
Q 26.265625 48.484375 22.1875 42.84375 
Q 18.109375 37.203125 18.109375 27.296875 
Q 18.109375 17.390625 22.1875 11.75 
Q 26.265625 6.109375 33.40625 6.109375 
Q 40.53125 6.109375 44.609375 11.75 
Q 48.6875 17.390625 48.6875 27.296875 
z
" id="DejaVuSans-112"/>
      <path d="M 18.3125 70.21875 
L 18.3125 54.6875 
L 36.8125 54.6875 
L 36.8125 47.703125 
L 18.3125 47.703125 
L 18.3125 18.015625 
Q 18.3125 11.328125 20.140625 9.421875 
Q 21.96875 7.515625 27.59375 7.515625 
L 36.8125 7.515625 
L 36.8125 0 
L 27.59375 0 
Q 17.1875 0 13.234375 3.875 
Q 9.28125 7.765625 9.28125 18.015625 
L 9.28125 47.703125 
L 2.6875 47.703125 
L 2.6875 54.6875 
L 9.28125 54.6875 
L 9.28125 70.21875 
z
" id="DejaVuSans-116"/>
     </defs>
     <g style="fill:#262626;" transform="translate(93.860597 238.124375)scale(0.24 -0.24)">
      <use xlink:href="#DejaVuSans-99"/>
      <use x="54.980469" xlink:href="#DejaVuSans-97"/>
      <use x="116.259766" xlink:href="#DejaVuSans-114"/>
      <use x="157.357422" xlink:href="#DejaVuSans-114"/>
      <use x="198.470703" xlink:href="#DejaVuSans-121"/>
      <use x="257.650391" xlink:href="#DejaVuSans-105"/>
      <use x="285.433594" xlink:href="#DejaVuSans-110"/>
      <use x="348.8125" xlink:href="#DejaVuSans-103"/>
      <use x="412.289062" xlink:href="#DejaVuSans-32"/>
      <use x="444.076172" xlink:href="#DejaVuSans-99"/>
      <use x="499.056641" xlink:href="#DejaVuSans-97"/>
      <use x="560.335938" xlink:href="#DejaVuSans-112"/>
      <use x="623.8125" xlink:href="#DejaVuSans-97"/>
      <use x="685.091797" xlink:href="#DejaVuSans-99"/>
      <use x="740.072266" xlink:href="#DejaVuSans-105"/>
      <use x="767.855469" xlink:href="#DejaVuSans-116"/>
      <use x="807.064453" xlink:href="#DejaVuSans-121"/>
     </g>
    </g>
   </g>
   <g id="matplotlib.axis_2">
    <g id="ytick_1">
     <g id="line2d_3">
      <defs>
       <path d="M 0 0 
L -12 0 
" id="mdda220f18f" style="stroke:#262626;stroke-width:2.5;"/>
      </defs>
      <g>
       <use style="fill:#262626;stroke:#262626;stroke-width:2.5;" x="82.360313" xlink:href="#mdda220f18f" y="154.48625"/>
      </g>
     </g>
     <g id="text_4">
      <!-- −2 -->
      <defs>
       <path d="M 10.59375 35.5 
L 73.1875 35.5 
L 73.1875 27.203125 
L 10.59375 27.203125 
z
" id="DejaVuSans-8722"/>
      </defs>
      <g style="fill:#262626;" transform="translate(34.4275 162.844531)scale(0.22 -0.22)">
       <use xlink:href="#DejaVuSans-8722"/>
       <use x="83.789062" xlink:href="#DejaVuSans-50"/>
      </g>
     </g>
    </g>
    <g id="ytick_2">
     <g id="line2d_4">
      <g>
       <use style="fill:#262626;stroke:#262626;stroke-width:2.5;" x="82.360313" xlink:href="#mdda220f18f" y="105.26625"/>
      </g>
     </g>
     <g id="text_5">
      <!-- 0 -->
      <g style="fill:#262626;" transform="translate(52.862813 113.624531)scale(0.22 -0.22)">
       <use xlink:href="#DejaVuSans-48"/>
      </g>
     </g>
    </g>
    <g id="ytick_3">
     <g id="line2d_5">
      <g>
       <use style="fill:#262626;stroke:#262626;stroke-width:2.5;" x="82.360313" xlink:href="#mdda220f18f" y="56.04625"/>
      </g>
     </g>
     <g id="text_6">
      <!-- 2 -->
      <g style="fill:#262626;" transform="translate(52.862813 64.404531)scale(0.22 -0.22)">
       <use xlink:href="#DejaVuSans-50"/>
      </g>
     </g>
    </g>
    <g id="text_7">
     <!-- log2FC -->
     <defs>
      <path d="M 9.421875 75.984375 
L 18.40625 75.984375 
L 18.40625 0 
L 9.421875 0 
z
" id="DejaVuSans-108"/>
      <path d="M 30.609375 48.390625 
Q 23.390625 48.390625 19.1875 42.75 
Q 14.984375 37.109375 14.984375 27.296875 
Q 14.984375 17.484375 19.15625 11.84375 
Q 23.34375 6.203125 30.609375 6.203125 
Q 37.796875 6.203125 41.984375 11.859375 
Q 46.1875 17.53125 46.1875 27.296875 
Q 46.1875 37.015625 41.984375 42.703125 
Q 37.796875 48.390625 30.609375 48.390625 
z
M 30.609375 56 
Q 42.328125 56 49.015625 48.375 
Q 55.71875 40.765625 55.71875 27.296875 
Q 55.71875 13.875 49.015625 6.21875 
Q 42.328125 -1.421875 30.609375 -1.421875 
Q 18.84375 -1.421875 12.171875 6.21875 
Q 5.515625 13.875 5.515625 27.296875 
Q 5.515625 40.765625 12.171875 48.375 
Q 18.84375 56 30.609375 56 
z
" id="DejaVuSans-111"/>
      <path d="M 9.8125 72.90625 
L 51.703125 72.90625 
L 51.703125 64.59375 
L 19.671875 64.59375 
L 19.671875 43.109375 
L 48.578125 43.109375 
L 48.578125 34.8125 
L 19.671875 34.8125 
L 19.671875 0 
L 9.8125 0 
z
" id="DejaVuSans-70"/>
      <path d="M 64.40625 67.28125 
L 64.40625 56.890625 
Q 59.421875 61.53125 53.78125 63.8125 
Q 48.140625 66.109375 41.796875 66.109375 
Q 29.296875 66.109375 22.65625 58.46875 
Q 16.015625 50.828125 16.015625 36.375 
Q 16.015625 21.96875 22.65625 14.328125 
Q 29.296875 6.6875 41.796875 6.6875 
Q 48.140625 6.6875 53.78125 8.984375 
Q 59.421875 11.28125 64.40625 15.921875 
L 64.40625 5.609375 
Q 59.234375 2.09375 53.4375 0.328125 
Q 47.65625 -1.421875 41.21875 -1.421875 
Q 24.65625 -1.421875 15.125 8.703125 
Q 5.609375 18.84375 5.609375 36.375 
Q 5.609375 53.953125 15.125 64.078125 
Q 24.65625 74.21875 41.21875 74.21875 
Q 47.75 74.21875 53.53125 72.484375 
Q 59.328125 70.75 64.40625 67.28125 
z
" id="DejaVuSans-67"/>
     </defs>
     <g style="fill:#262626;" transform="translate(25.43625 146.476875)rotate(-90)scale(0.24 -0.24)">
      <use xlink:href="#DejaVuSans-108"/>
      <use x="27.783203" xlink:href="#DejaVuSans-111"/>
      <use x="88.964844" xlink:href="#DejaVuSans-103"/>
      <use x="152.441406" xlink:href="#DejaVuSans-50"/>
      <use x="216.064453" xlink:href="#DejaVuSans-70"/>
      <use x="273.583984" xlink:href="#DejaVuSans-67"/>
     </g>
    </g>
   </g>
   <g id="line2d_6">
    <path clip-path="url(#p458f5d15ef)" d="M 92.855963 208.980642 
L 97.139902 175.37249 
L 101.423842 166.54826 
L 105.707781 159.55215 
L 109.99172 153.285612 
L 114.275659 148.364552 
L 118.559598 143.916867 
L 122.843537 140.404254 
L 127.127476 136.690686 
L 131.411415 133.738042 
L 135.695354 130.66632 
L 139.979294 126.597877 
L 144.263233 125.468012 
L 148.547172 123.038631 
L 152.831111 120.859192 
L 157.11505 118.70262 
L 161.398989 116.315073 
L 165.682928 114.751808 
L 169.966867 113.207726 
L 174.250806 111.372199 
L 178.534746 109.4959 
L 182.818685 108.132062 
L 187.102624 106.56411 
L 191.386563 105.469536 
L 195.670502 104.106301 
L 199.954441 102.653417 
L 204.23838 101.450742 
L 208.522319 100.187051 
L 212.806258 98.748275 
L 217.090198 97.980362 
L 221.374137 96.9685 
L 225.658076 95.948965 
L 229.942015 94.512311 
L 234.225954 93.794147 
L 238.509893 91.663388 
L 242.793832 91.663388 
L 247.077771 90.905211 
L 251.361711 90.086943 
L 255.64565 89.072972 
L 259.929589 88.263556 
L 264.213528 86.976715 
L 268.497467 85.508796 
L 272.781406 85.508796 
L 277.065345 84.98114 
L 281.349284 84.177319 
L 285.633223 83.421129 
L 289.917163 82.74092 
L 294.201102 81.227012 
L 298.485041 81.227012 
L 302.76898 79.902945 
" style="fill:none;stroke:#1a1a1a;stroke-linecap:round;stroke-width:4;"/>
   </g>
   <g id="line2d_7">
    <path clip-path="url(#p458f5d15ef)" d="M 92.855963 237.156082 
L 97.139902 185.143154 
L 101.423842 173.555685 
L 105.707781 164.912651 
L 109.99172 157.470843 
L 114.275659 151.782687 
L 118.559598 146.738785 
L 122.843537 142.811799 
L 127.127476 138.706694 
L 131.411415 135.473243 
L 135.695354 132.135475 
L 139.979294 127.860799 
L 144.263233 126.53977 
L 148.547172 123.944684 
L 152.831111 121.626919 
L 157.11505 119.341868 
L 161.398989 116.821722 
L 165.682928 115.281849 
L 169.966867 113.554926 
L 174.250806 111.631935 
L 178.534746 109.670896 
L 182.818685 108.248416 
L 187.102624 106.720662 
L 191.386563 105.477784 
L 195.670502 104.062487 
L 199.954441 102.555949 
L 204.23838 101.311067 
L 208.522319 100.004147 
L 212.806258 98.607511 
L 217.090198 97.726016 
L 221.374137 96.683046 
L 225.658076 95.632899 
L 229.942015 94.154716 
L 234.225954 93.416266 
L 238.509893 91.313937 
L 242.793832 91.313937 
L 247.077771 90.450187 
L 251.361711 89.611394 
L 255.64565 88.572534 
L 259.929589 87.743404 
L 264.213528 86.427039 
L 268.497467 85.01804 
L 272.781406 85.01804 
L 277.065345 84.387146 
L 281.349284 83.566338 
L 285.633223 82.794351 
L 289.917163 82.100254 
L 294.201102 80.556508 
L 298.485041 80.556508 
L 302.76898 79.283087 
" style="fill:none;stroke:#7f7f7f;stroke-linecap:round;stroke-width:4;"/>
   </g>
   <g id="line2d_8">
    <path clip-path="url(#p458f5d15ef)" d="M 92.855963 171.916544 
L 97.139902 156.962314 
L 101.423842 148.924982 
L 105.707781 141.041319 
L 109.99172 134.60813 
L 114.275659 130.219173 
L 118.559598 126.66804 
L 122.843537 124.094475 
L 127.127476 121.562403 
L 131.411415 119.670577 
L 135.695354 117.803925 
L 139.979294 115.473623 
L 144.263233 114.852717 
L 148.547172 113.553306 
L 152.831111 112.426739 
L 157.11505 111.346095 
L 161.398989 110.186869 
L 165.682928 109.44785 
L 169.966867 108.732705 
L 174.250806 107.900911 
L 178.534746 107.070293 
L 182.818685 106.478524 
L 187.102624 105.810135 
L 191.386563 105.350885 
L 195.670502 104.78712 
L 199.954441 104.19594 
L 204.23838 103.71393 
L 208.522319 103.214402 
L 212.806258 102.654128 
L 217.090198 102.35866 
L 221.374137 101.973036 
L 225.658076 101.588705 
L 229.942015 101.054072 
L 234.225954 100.789813 
L 238.509893 100.01712 
L 242.793832 100.01712 
L 247.077771 99.746178 
L 251.361711 99.456093 
L 255.64565 99.099844 
L 259.929589 98.818029 
L 264.213528 98.374545 
L 268.497467 97.875288 
L 272.781406 97.875288 
L 277.065345 97.697561 
L 281.349284 97.428477 
L 285.633223 97.177187 
L 289.917163 96.952639 
L 294.201102 96.45796 
L 298.485041 96.45796 
L 302.76898 96.030876 
" style="fill:none;stroke:#d62728;stroke-linecap:round;stroke-width:4;"/>
   </g>
   <g id="line2d_9">
    <path clip-path="url(#p458f5d15ef)" d="M 92.855963 151.534888 
L 97.139902 131.121869 
L 101.423842 126.630487 
L 105.707781 123.433584 
L 109.99172 120.796028 
L 114.275659 118.853721 
L 118.559598 117.185098 
L 122.843537 115.920841 
L 127.127476 114.631315 
L 131.411415 113.638374 
L 135.695354 112.634176 
L 139.979294 111.410969 
L 144.263233 110.996839 
L 148.547172 110.256607 
L 152.831111 109.605615 
L 157.11505 108.972899 
L 161.398989 108.285474 
L 165.682928 107.899666 
L 169.966867 107.410115 
L 174.250806 106.903034 
L 178.534746 106.392016 
L 182.818685 106.025182 
L 187.102624 105.662074 
L 191.386563 105.319677 
L 195.670502 104.963867 
L 199.954441 104.588363 
L 204.23838 104.28072 
L 208.522319 103.960134 
L 212.806258 103.642433 
L 217.090198 103.407313 
L 221.374137 103.156721 
L 225.658076 102.905951 
L 229.942015 102.55558 
L 234.225954 102.381665 
L 238.509893 101.911016 
L 242.793832 101.911016 
L 247.077771 101.690657 
L 251.361711 101.497431 
L 255.64565 101.25938 
L 259.929589 101.070367 
L 264.213528 100.772257 
L 268.497467 100.47656 
L 272.781406 100.47656 
L 277.065345 100.314595 
L 281.349284 100.131967 
L 285.633223 99.960944 
L 289.917163 99.807806 
L 294.201102 99.469405 
L 298.485041 99.469405 
L 302.76898 99.209176 
" style="fill:none;stroke:#17becf;stroke-linecap:round;stroke-width:4;"/>
   </g>
   <g id="patch_3">
    <path d="M 82.360313 179.09625 
L 82.360313 31.43625 
" style="fill:none;stroke:#262626;stroke-linecap:square;stroke-linejoin:miter;stroke-width:2.5;"/>
   </g>
   <g id="patch_4">
    <path d="M 313.264631 179.09625 
L 313.264631 31.43625 
" style="fill:none;stroke:#262626;stroke-linecap:square;stroke-linejoin:miter;stroke-width:2.5;"/>
   </g>
   <g id="patch_5">
    <path d="M 82.360313 179.09625 
L 313.264631 179.09625 
" style="fill:none;stroke:#262626;stroke-linecap:square;stroke-linejoin:miter;stroke-width:2.5;"/>
   </g>
   <g id="patch_6">
    <path d="M 82.360313 31.43625 
L 313.264631 31.43625 
" style="fill:none;stroke:#262626;stroke-linecap:square;stroke-linejoin:miter;stroke-width:2.5;"/>
   </g>
   <g id="text_8">
    <!-- IL7 restriction -->
    <defs>
     <path d="M 9.8125 72.90625 
L 19.671875 72.90625 
L 19.671875 0 
L 9.8125 0 
z
" id="DejaVuSans-73"/>
     <path d="M 9.8125 72.90625 
L 19.671875 72.90625 
L 19.671875 8.296875 
L 55.171875 8.296875 
L 55.171875 0 
L 9.8125 0 
z
" id="DejaVuSans-76"/>
     <path d="M 8.203125 72.90625 
L 55.078125 72.90625 
L 55.078125 68.703125 
L 28.609375 0 
L 18.3125 0 
L 43.21875 64.59375 
L 8.203125 64.59375 
z
" id="DejaVuSans-55"/>
     <path d="M 56.203125 29.59375 
L 56.203125 25.203125 
L 14.890625 25.203125 
Q 15.484375 15.921875 20.484375 11.0625 
Q 25.484375 6.203125 34.421875 6.203125 
Q 39.59375 6.203125 44.453125 7.46875 
Q 49.3125 8.734375 54.109375 11.28125 
L 54.109375 2.78125 
Q 49.265625 0.734375 44.1875 -0.34375 
Q 39.109375 -1.421875 33.890625 -1.421875 
Q 20.796875 -1.421875 13.15625 6.1875 
Q 5.515625 13.8125 5.515625 26.8125 
Q 5.515625 40.234375 12.765625 48.109375 
Q 20.015625 56 32.328125 56 
Q 43.359375 56 49.78125 48.890625 
Q 56.203125 41.796875 56.203125 29.59375 
z
M 47.21875 32.234375 
Q 47.125 39.59375 43.09375 43.984375 
Q 39.0625 48.390625 32.421875 48.390625 
Q 24.90625 48.390625 20.390625 44.140625 
Q 15.875 39.890625 15.1875 32.171875 
z
" id="DejaVuSans-101"/>
     <path d="M 44.28125 53.078125 
L 44.28125 44.578125 
Q 40.484375 46.53125 36.375 47.5 
Q 32.28125 48.484375 27.875 48.484375 
Q 21.1875 48.484375 17.84375 46.4375 
Q 14.5 44.390625 14.5 40.28125 
Q 14.5 37.15625 16.890625 35.375 
Q 19.28125 33.59375 26.515625 31.984375 
L 29.59375 31.296875 
Q 39.15625 29.25 43.1875 25.515625 
Q 47.21875 21.78125 47.21875 15.09375 
Q 47.21875 7.46875 41.1875 3.015625 
Q 35.15625 -1.421875 24.609375 -1.421875 
Q 20.21875 -1.421875 15.453125 -0.5625 
Q 10.6875 0.296875 5.421875 2 
L 5.421875 11.28125 
Q 10.40625 8.6875 15.234375 7.390625 
Q 20.0625 6.109375 24.8125 6.109375 
Q 31.15625 6.109375 34.5625 8.28125 
Q 37.984375 10.453125 37.984375 14.40625 
Q 37.984375 18.0625 35.515625 20.015625 
Q 33.0625 21.96875 24.703125 23.78125 
L 21.578125 24.515625 
Q 13.234375 26.265625 9.515625 29.90625 
Q 5.8125 33.546875 5.8125 39.890625 
Q 5.8125 47.609375 11.28125 51.796875 
Q 16.75 56 26.8125 56 
Q 31.78125 56 36.171875 55.265625 
Q 40.578125 54.546875 44.28125 53.078125 
z
" id="DejaVuSans-115"/>
    </defs>
    <g style="fill:#262626;" transform="translate(115.018097 25.43625)scale(0.24 -0.24)">
     <use xlink:href="#DejaVuSans-73"/>
     <use x="29.492188" xlink:href="#DejaVuSans-76"/>
     <use x="85.205078" xlink:href="#DejaVuSans-55"/>
     <use x="148.828125" xlink:href="#DejaVuSans-32"/>
     <use x="180.615234" xlink:href="#DejaVuSans-114"/>
     <use x="221.697266" xlink:href="#DejaVuSans-101"/>
     <use x="283.220703" xlink:href="#DejaVuSans-115"/>
     <use x="335.320312" xlink:href="#DejaVuSans-116"/>
     <use x="374.529297" xlink:href="#DejaVuSans-114"/>
     <use x="415.642578" xlink:href="#DejaVuSans-105"/>
     <use x="443.425781" xlink:href="#DejaVuSans-99"/>
     <use x="498.40625" xlink:href="#DejaVuSans-116"/>
     <use x="537.615234" xlink:href="#DejaVuSans-105"/>
     <use x="565.398438" xlink:href="#DejaVuSans-111"/>
     <use x="626.580078" xlink:href="#DejaVuSans-110"/>
    </g>
   </g>
  </g>
 </g>
 <defs>
  <clipPath id="p458f5d15ef">
   <rect height="147.66" width="230.904318" x="82.360313" y="31.43625"/>
  </clipPath>
 </defs>
</svg>
