<?xml version="1.0" encoding="utf-8" standalone="no"?>
<!DOCTYPE svg PUBLIC "-//W3C//DTD SVG 1.1//EN"
  "http://www.w3.org/Graphics/SVG/1.1/DTD/svg11.dtd">
<!-- Created with matplotlib (https://matplotlib.org/) -->
<svg height="250.315625pt" version="1.1" viewBox="0 0 321.845313 250.315625" width="321.845313pt" xmlns="http://www.w3.org/2000/svg" xmlns:xlink="http://www.w3.org/1999/xlink">
 <defs>
  <style type="text/css">
*{stroke-linecap:butt;stroke-linejoin:round;}
  </style>
 </defs>
 <g id="figure_1">
  <g id="patch_1">
   <path d="M 0 250.315625 
L 321.845313 250.315625 
L 321.845313 0 
L 0 0 
z
" style="fill:#ffffff;"/>
  </g>
  <g id="axes_1">
   <g id="patch_2">
    <path d="M 82.360313 179.09625 
L 314.645313 179.09625 
L 314.645313 31.43625 
L 82.360313 31.43625 
z
" style="fill:#ffffff;"/>
   </g>
   <g id="matplotlib.axis_1">
    <g id="xtick_1">
     <g id="line2d_1">
      <defs>
       <path d="M 0 0 
L 0 12 
" id="mce7086f979" style="stroke:#262626;stroke-width:2.5;"/>
      </defs>
      <g>
       <use style="fill:#262626;stroke:#262626;stroke-width:2.5;" x="92.918722" xlink:href="#mce7086f979" y="179.09625"/>
      </g>
     </g>
     <g id="text_1">
      <!-- 0 -->
      <defs>
       <path d="M 31.78125 66.40625 
Q 24.171875 66.40625 20.328125 58.90625 
Q 16.5 51.421875 16.5 36.375 
Q 16.5 21.390625 20.328125 13.890625 
Q 24.171875 6.390625 31.78125 6.390625 
Q 39.453125 6.390625 43.28125 13.890625 
Q 47.125 21.390625 47.125 36.375 
Q 47.125 51.421875 43.28125 58.90625 
Q 39.453125 66.40625 31.78125 66.40625 
z
M 31.78125 74.21875 
Q 44.046875 74.21875 50.515625 64.515625 
Q 56.984375 54.828125 56.984375 36.375 
Q 56.984375 17.96875 50.515625 8.265625 
Q 44.046875 -1.421875 31.78125 -1.421875 
Q 19.53125 -1.421875 13.0625 8.265625 
Q 6.59375 17.96875 6.59375 36.375 
Q 6.59375 54.828125 13.0625 64.515625 
Q 19.53125 74.21875 31.78125 74.21875 
z
" id="DejaVuSans-48"/>
      </defs>
      <g style="fill:#262626;" transform="translate(85.919972 211.312813)scale(0.22 -0.22)">
       <use xlink:href="#DejaVuSans-48"/>
      </g>
     </g>
    </g>
    <g id="xtick_2">
     <g id="line2d_2">
      <g>
       <use style="fill:#262626;stroke:#262626;stroke-width:2.5;" x="177.385994" xlink:href="#mce7086f979" y="179.09625"/>
      </g>
     </g>
     <g id="text_2">
      <!-- 2 -->
      <defs>
       <path d="M 19.1875 8.296875 
L 53.609375 8.296875 
L 53.609375 0 
L 7.328125 0 
L 7.328125 8.296875 
Q 12.9375 14.109375 22.625 23.890625 
Q 32.328125 33.6875 34.8125 36.53125 
Q 39.546875 41.84375 41.421875 45.53125 
Q 43.3125 49.21875 43.3125 52.78125 
Q 43.3125 58.59375 39.234375 62.25 
Q 35.15625 65.921875 28.609375 65.921875 
Q 23.96875 65.921875 18.8125 64.3125 
Q 13.671875 62.703125 7.8125 59.421875 
L 7.8125 69.390625 
Q 13.765625 71.78125 18.9375 73 
Q 24.125 74.21875 28.421875 74.21875 
Q 39.75 74.21875 46.484375 68.546875 
Q 53.21875 62.890625 53.21875 53.421875 
Q 53.21875 48.921875 51.53125 44.890625 
Q 49.859375 40.875 45.40625 35.40625 
Q 44.1875 33.984375 37.640625 27.21875 
Q 31.109375 20.453125 19.1875 8.296875 
z
" id="DejaVuSans-50"/>
      </defs>
      <g style="fill:#262626;" transform="translate(170.387244 211.312813)scale(0.22 -0.22)">
       <use xlink:href="#DejaVuSans-50"/>
      </g>
     </g>
    </g>
    <g id="xtick_3">
     <g id="line2d_3">
      <g>
       <use style="fill:#262626;stroke:#262626;stroke-width:2.5;" x="261.853267" xlink:href="#mce7086f979" y="179.09625"/>
      </g>
     </g>
     <g id="text_3">
      <!-- 4 -->
      <defs>
       <path d="M 37.796875 64.3125 
L 12.890625 25.390625 
L 37.796875 25.390625 
z
M 35.203125 72.90625 
L 47.609375 72.90625 
L 47.609375 25.390625 
L 58.015625 25.390625 
L 58.015625 17.1875 
L 47.609375 17.1875 
L 47.609375 0 
L 37.796875 0 
L 37.796875 17.1875 
L 4.890625 17.1875 
L 4.890625 26.703125 
z
" id="DejaVuSans-52"/>
      </defs>
      <g style="fill:#262626;" transform="translate(254.854517 211.312813)scale(0.22 -0.22)">
       <use xlink:href="#DejaVuSans-52"/>
      </g>
     </g>
    </g>
    <g id="text_4">
     <!-- IL2 secretion rate -->
     <defs>
      <path d="M 9.8125 72.90625 
L 19.671875 72.90625 
L 19.671875 0 
L 9.8125 0 
z
" id="DejaVuSans-73"/>
      <path d="M 9.8125 72.90625 
L 19.671875 72.90625 
L 19.671875 8.296875 
L 55.171875 8.296875 
L 55.171875 0 
L 9.8125 0 
z
" id="DejaVuSans-76"/>
      <path id="DejaVuSans-32"/>
      <path d="M 44.28125 53.078125 
L 44.28125 44.578125 
Q 40.484375 46.53125 36.375 47.5 
Q 32.28125 48.484375 27.875 48.484375 
Q 21.1875 48.484375 17.84375 46.4375 
Q 14.5 44.390625 14.5 40.28125 
Q 14.5 37.15625 16.890625 35.375 
Q 19.28125 33.59375 26.515625 31.984375 
L 29.59375 31.296875 
Q 39.15625 29.25 43.1875 25.515625 
Q 47.21875 21.78125 47.21875 15.09375 
Q 47.21875 7.46875 41.1875 3.015625 
Q 35.15625 -1.421875 24.609375 -1.421875 
Q 20.21875 -1.421875 15.453125 -0.5625 
Q 10.6875 0.296875 5.421875 2 
L 5.421875 11.28125 
Q 10.40625 8.6875 15.234375 7.390625 
Q 20.0625 6.109375 24.8125 6.109375 
Q 31.15625 6.109375 34.5625 8.28125 
Q 37.984375 10.453125 37.984375 14.40625 
Q 37.984375 18.0625 35.515625 20.015625 
Q 33.0625 21.96875 24.703125 23.78125 
L 21.578125 24.515625 
Q 13.234375 26.265625 9.515625 29.90625 
Q 5.8125 33.546875 5.8125 39.890625 
Q 5.8125 47.609375 11.28125 51.796875 
Q 16.75 56 26.8125 56 
Q 31.78125 56 36.171875 55.265625 
Q 40.578125 54.546875 44.28125 53.078125 
z
" id="DejaVuSans-115"/>
      <path d="M 56.203125 29.59375 
L 56.203125 25.203125 
L 14.890625 25.203125 
Q 15.484375 15.921875 20.484375 11.0625 
Q 25.484375 6.203125 34.421875 6.203125 
Q 39.59375 6.203125 44.453125 7.46875 
Q 49.3125 8.734375 54.109375 11.28125 
L 54.109375 2.78125 
Q 49.265625 0.734375 44.1875 -0.34375 
Q 39.109375 -1.421875 33.890625 -1.421875 
Q 20.796875 -1.421875 13.15625 6.1875 
Q 5.515625 13.8125 5.515625 26.8125 
Q 5.515625 40.234375 12.765625 48.109375 
Q 20.015625 56 32.328125 56 
Q 43.359375 56 49.78125 48.890625 
Q 56.203125 41.796875 56.203125 29.59375 
z
M 47.21875 32.234375 
Q 47.125 39.59375 43.09375 43.984375 
Q 39.0625 48.390625 32.421875 48.390625 
Q 24.90625 48.390625 20.390625 44.140625 
Q 15.875 39.890625 15.1875 32.171875 
z
" id="DejaVuSans-101"/>
      <path d="M 48.78125 52.59375 
L 48.78125 44.1875 
Q 44.96875 46.296875 41.140625 47.34375 
Q 37.3125 48.390625 33.40625 48.390625 
Q 24.65625 48.390625 19.8125 42.84375 
Q 14.984375 37.3125 14.984375 27.296875 
Q 14.984375 17.28125 19.8125 11.734375 
Q 24.65625 6.203125 33.40625 6.203125 
Q 37.3125 6.203125 41.140625 7.25 
Q 44.96875 8.296875 48.78125 10.40625 
L 48.78125 2.09375 
Q 45.015625 0.34375 40.984375 -0.53125 
Q 36.96875 -1.421875 32.421875 -1.421875 
Q 20.0625 -1.421875 12.78125 6.34375 
Q 5.515625 14.109375 5.515625 27.296875 
Q 5.515625 40.671875 12.859375 48.328125 
Q 20.21875 56 33.015625 56 
Q 37.15625 56 41.109375 55.140625 
Q 45.0625 54.296875 48.78125 52.59375 
z
" id="DejaVuSans-99"/>
      <path d="M 41.109375 46.296875 
Q 39.59375 47.171875 37.8125 47.578125 
Q 36.03125 48 33.890625 48 
Q 26.265625 48 22.1875 43.046875 
Q 18.109375 38.09375 18.109375 28.8125 
L 18.109375 0 
L 9.078125 0 
L 9.078125 54.6875 
L 18.109375 54.6875 
L 18.109375 46.1875 
Q 20.953125 51.171875 25.484375 53.578125 
Q 30.03125 56 36.53125 56 
Q 37.453125 56 38.578125 55.875 
Q 39.703125 55.765625 41.0625 55.515625 
z
" id="DejaVuSans-114"/>
      <path d="M 18.3125 70.21875 
L 18.3125 54.6875 
L 36.8125 54.6875 
L 36.8125 47.703125 
L 18.3125 47.703125 
L 18.3125 18.015625 
Q 18.3125 11.328125 20.140625 9.421875 
Q 21.96875 7.515625 27.59375 7.515625 
L 36.8125 7.515625 
L 36.8125 0 
L 27.59375 0 
Q 17.1875 0 13.234375 3.875 
Q 9.28125 7.765625 9.28125 18.015625 
L 9.28125 47.703125 
L 2.6875 47.703125 
L 2.6875 54.6875 
L 9.28125 54.6875 
L 9.28125 70.21875 
z
" id="DejaVuSans-116"/>
      <path d="M 9.421875 54.6875 
L 18.40625 54.6875 
L 18.40625 0 
L 9.421875 0 
z
M 9.421875 75.984375 
L 18.40625 75.984375 
L 18.40625 64.59375 
L 9.421875 64.59375 
z
" id="DejaVuSans-105"/>
      <path d="M 30.609375 48.390625 
Q 23.390625 48.390625 19.1875 42.75 
Q 14.984375 37.109375 14.984375 27.296875 
Q 14.984375 17.484375 19.15625 11.84375 
Q 23.34375 6.203125 30.609375 6.203125 
Q 37.796875 6.203125 41.984375 11.859375 
Q 46.1875 17.53125 46.1875 27.296875 
Q 46.1875 37.015625 41.984375 42.703125 
Q 37.796875 48.390625 30.609375 48.390625 
z
M 30.609375 56 
Q 42.328125 56 49.015625 48.375 
Q 55.71875 40.765625 55.71875 27.296875 
Q 55.71875 13.875 49.015625 6.21875 
Q 42.328125 -1.421875 30.609375 -1.421875 
Q 18.84375 -1.421875 12.171875 6.21875 
Q 5.515625 13.875 5.515625 27.296875 
Q 5.515625 40.765625 12.171875 48.375 
Q 18.84375 56 30.609375 56 
z
" id="DejaVuSans-111"/>
      <path d="M 54.890625 33.015625 
L 54.890625 0 
L 45.90625 0 
L 45.90625 32.71875 
Q 45.90625 40.484375 42.875 44.328125 
Q 39.84375 48.1875 33.796875 48.1875 
Q 26.515625 48.1875 22.3125 43.546875 
Q 18.109375 38.921875 18.109375 30.90625 
L 18.109375 0 
L 9.078125 0 
L 9.078125 54.6875 
L 18.109375 54.6875 
L 18.109375 46.1875 
Q 21.34375 51.125 25.703125 53.5625 
Q 30.078125 56 35.796875 56 
Q 45.21875 56 50.046875 50.171875 
Q 54.890625 44.34375 54.890625 33.015625 
z
" id="DejaVuSans-110"/>
      <path d="M 34.28125 27.484375 
Q 23.390625 27.484375 19.1875 25 
Q 14.984375 22.515625 14.984375 16.5 
Q 14.984375 11.71875 18.140625 8.90625 
Q 21.296875 6.109375 26.703125 6.109375 
Q 34.1875 6.109375 38.703125 11.40625 
Q 43.21875 16.703125 43.21875 25.484375 
L 43.21875 27.484375 
z
M 52.203125 31.203125 
L 52.203125 0 
L 43.21875 0 
L 43.21875 8.296875 
Q 40.140625 3.328125 35.546875 0.953125 
Q 30.953125 -1.421875 24.3125 -1.421875 
Q 15.921875 -1.421875 10.953125 3.296875 
Q 6 8.015625 6 15.921875 
Q 6 25.140625 12.171875 29.828125 
Q 18.359375 34.515625 30.609375 34.515625 
L 43.21875 34.515625 
L 43.21875 35.40625 
Q 43.21875 41.609375 39.140625 45 
Q 35.0625 48.390625 27.6875 48.390625 
Q 23 48.390625 18.546875 47.265625 
Q 14.109375 46.140625 10.015625 43.890625 
L 10.015625 52.203125 
Q 14.9375 54.109375 19.578125 55.046875 
Q 24.21875 56 28.609375 56 
Q 40.484375 56 46.34375 49.84375 
Q 52.203125 43.703125 52.203125 31.203125 
z
" id="DejaVuSans-97"/>
     </defs>
     <g style="fill:#262626;" transform="translate(93.107188 238.124375)scale(0.24 -0.24)">
      <use xlink:href="#DejaVuSans-73"/>
      <use x="29.492188" xlink:href="#DejaVuSans-76"/>
      <use x="85.205078" xlink:href="#DejaVuSans-50"/>
      <use x="148.828125" xlink:href="#DejaVuSans-32"/>
      <use x="180.615234" xlink:href="#DejaVuSans-115"/>
      <use x="232.714844" xlink:href="#DejaVuSans-101"/>
      <use x="294.238281" xlink:href="#DejaVuSans-99"/>
      <use x="349.21875" xlink:href="#DejaVuSans-114"/>
      <use x="390.300781" xlink:href="#DejaVuSans-101"/>
      <use x="451.824219" xlink:href="#DejaVuSans-116"/>
      <use x="491.033203" xlink:href="#DejaVuSans-105"/>
      <use x="518.816406" xlink:href="#DejaVuSans-111"/>
      <use x="579.998047" xlink:href="#DejaVuSans-110"/>
      <use x="643.376953" xlink:href="#DejaVuSans-32"/>
      <use x="675.164062" xlink:href="#DejaVuSans-114"/>
      <use x="716.277344" xlink:href="#DejaVuSans-97"/>
      <use x="777.556641" xlink:href="#DejaVuSans-116"/>
      <use x="816.765625" xlink:href="#DejaVuSans-101"/>
     </g>
    </g>
   </g>
   <g id="matplotlib.axis_2">
    <g id="ytick_1">
     <g id="line2d_4">
      <defs>
       <path d="M 0 0 
L -12 0 
" id="mdf535675ce" style="stroke:#262626;stroke-width:2.5;"/>
      </defs>
      <g>
       <use style="fill:#262626;stroke:#262626;stroke-width:2.5;" x="82.360313" xlink:href="#mdf535675ce" y="154.48625"/>
      </g>
     </g>
     <g id="text_5">
      <!-- −2 -->
      <defs>
       <path d="M 10.59375 35.5 
L 73.1875 35.5 
L 73.1875 27.203125 
L 10.59375 27.203125 
z
" id="DejaVuSans-8722"/>
      </defs>
      <g style="fill:#262626;" transform="translate(34.4275 162.844531)scale(0.22 -0.22)">
       <use xlink:href="#DejaVuSans-8722"/>
       <use x="83.789062" xlink:href="#DejaVuSans-50"/>
      </g>
     </g>
    </g>
    <g id="ytick_2">
     <g id="line2d_5">
      <g>
       <use style="fill:#262626;stroke:#262626;stroke-width:2.5;" x="82.360313" xlink:href="#mdf535675ce" y="105.26625"/>
      </g>
     </g>
     <g id="text_6">
      <!-- 0 -->
      <g style="fill:#262626;" transform="translate(52.862813 113.624531)scale(0.22 -0.22)">
       <use xlink:href="#DejaVuSans-48"/>
      </g>
     </g>
    </g>
    <g id="ytick_3">
     <g id="line2d_6">
      <g>
       <use style="fill:#262626;stroke:#262626;stroke-width:2.5;" x="82.360313" xlink:href="#mdf535675ce" y="56.04625"/>
      </g>
     </g>
     <g id="text_7">
      <!-- 2 -->
      <g style="fill:#262626;" transform="translate(52.862813 64.404531)scale(0.22 -0.22)">
       <use xlink:href="#DejaVuSans-50"/>
      </g>
     </g>
    </g>
    <g id="text_8">
     <!-- log2FC -->
     <defs>
      <path d="M 9.421875 75.984375 
L 18.40625 75.984375 
L 18.40625 0 
L 9.421875 0 
z
" id="DejaVuSans-108"/>
      <path d="M 45.40625 27.984375 
Q 45.40625 37.75 41.375 43.109375 
Q 37.359375 48.484375 30.078125 48.484375 
Q 22.859375 48.484375 18.828125 43.109375 
Q 14.796875 37.75 14.796875 27.984375 
Q 14.796875 18.265625 18.828125 12.890625 
Q 22.859375 7.515625 30.078125 7.515625 
Q 37.359375 7.515625 41.375 12.890625 
Q 45.40625 18.265625 45.40625 27.984375 
z
M 54.390625 6.78125 
Q 54.390625 -7.171875 48.1875 -13.984375 
Q 42 -20.796875 29.203125 -20.796875 
Q 24.46875 -20.796875 20.265625 -20.09375 
Q 16.0625 -19.390625 12.109375 -17.921875 
L 12.109375 -9.1875 
Q 16.0625 -11.328125 19.921875 -12.34375 
Q 23.78125 -13.375 27.78125 -13.375 
Q 36.625 -13.375 41.015625 -8.765625 
Q 45.40625 -4.15625 45.40625 5.171875 
L 45.40625 9.625 
Q 42.625 4.78125 38.28125 2.390625 
Q 33.9375 0 27.875 0 
Q 17.828125 0 11.671875 7.65625 
Q 5.515625 15.328125 5.515625 27.984375 
Q 5.515625 40.671875 11.671875 48.328125 
Q 17.828125 56 27.875 56 
Q 33.9375 56 38.28125 53.609375 
Q 42.625 51.21875 45.40625 46.390625 
L 45.40625 54.6875 
L 54.390625 54.6875 
z
" id="DejaVuSans-103"/>
      <path d="M 9.8125 72.90625 
L 51.703125 72.90625 
L 51.703125 64.59375 
L 19.671875 64.59375 
L 19.671875 43.109375 
L 48.578125 43.109375 
L 48.578125 34.8125 
L 19.671875 34.8125 
L 19.671875 0 
L 9.8125 0 
z
" id="DejaVuSans-70"/>
      <path d="M 64.40625 67.28125 
L 64.40625 56.890625 
Q 59.421875 61.53125 53.78125 63.8125 
Q 48.140625 66.109375 41.796875 66.109375 
Q 29.296875 66.109375 22.65625 58.46875 
Q 16.015625 50.828125 16.015625 36.375 
Q 16.015625 21.96875 22.65625 14.328125 
Q 29.296875 6.6875 41.796875 6.6875 
Q 48.140625 6.6875 53.78125 8.984375 
Q 59.421875 11.28125 64.40625 15.921875 
L 64.40625 5.609375 
Q 59.234375 2.09375 53.4375 0.328125 
Q 47.65625 -1.421875 41.21875 -1.421875 
Q 24.65625 -1.421875 15.125 8.703125 
Q 5.609375 18.84375 5.609375 36.375 
Q 5.609375 53.953125 15.125 64.078125 
Q 24.65625 74.21875 41.21875 74.21875 
Q 47.75 74.21875 53.53125 72.484375 
Q 59.328125 70.75 64.40625 67.28125 
z
" id="DejaVuSans-67"/>
     </defs>
     <g style="fill:#262626;" transform="translate(25.43625 146.476875)rotate(-90)scale(0.24 -0.24)">
      <use xlink:href="#DejaVuSans-108"/>
      <use x="27.783203" xlink:href="#DejaVuSans-111"/>
      <use x="88.964844" xlink:href="#DejaVuSans-103"/>
      <use x="152.441406" xlink:href="#DejaVuSans-50"/>
      <use x="216.064453" xlink:href="#DejaVuSans-70"/>
      <use x="273.583984" xlink:href="#DejaVuSans-67"/>
     </g>
    </g>
   </g>
   <g id="line2d_7">
    <path clip-path="url(#p11eca63d5c)" d="M 92.918722 123.866763 
L 97.228276 123.866763 
L 101.537831 123.866763 
L 105.847386 123.866763 
L 110.156941 123.866763 
L 114.466495 120.165037 
L 118.77605 114.489168 
L 123.085605 111.535431 
L 127.395159 108.919729 
L 131.704714 107.035595 
L 136.014269 104.771909 
L 140.323824 103.107493 
L 144.633378 101.035366 
L 148.942933 99.348781 
L 153.252488 97.483793 
L 157.562043 95.824344 
L 161.871597 94.525802 
L 166.181152 93.062215 
L 170.490707 91.723575 
L 174.800261 89.978236 
L 179.109816 88.508517 
L 183.419371 87.699183 
L 187.728926 86.626855 
L 192.03848 85.337951 
L 196.348035 84.147253 
L 200.65759 83.168704 
L 204.967145 82.208758 
L 209.276699 81.386678 
L 213.586254 80.416463 
L 217.895809 79.379019 
L 222.205364 78.405096 
L 226.514918 77.428386 
L 230.824473 76.79831 
L 235.134028 75.757339 
L 239.443582 75.235759 
L 243.753137 74.51777 
L 248.062692 73.738187 
L 252.372247 72.96341 
L 256.681801 72.184214 
L 260.991356 71.444935 
L 265.300911 70.900942 
L 269.610466 69.812045 
L 273.92002 69.587178 
L 278.229575 68.675608 
L 282.53913 68.213786 
L 286.848684 67.751702 
L 291.158239 67.10734 
L 295.467794 66.336787 
L 299.777349 65.930084 
L 304.086903 65.523532 
" style="fill:none;stroke:#1a1a1a;stroke-linecap:round;stroke-width:4;"/>
   </g>
   <g id="line2d_8">
    <path clip-path="url(#p11eca63d5c)" d="M 92.918722 138.320003 
L 97.228276 138.320003 
L 101.537831 138.320003 
L 105.847386 138.320003 
L 110.156941 138.320003 
L 114.466495 131.300333 
L 118.77605 122.239019 
L 123.085605 117.177142 
L 127.395159 112.308636 
L 131.704714 108.659457 
L 136.014269 104.339515 
L 140.323824 101.315046 
L 144.633378 97.761742 
L 148.942933 95.028077 
L 153.252488 92.145412 
L 157.562043 89.684835 
L 161.871597 87.818005 
L 166.181152 85.767442 
L 170.490707 83.936147 
L 174.800261 81.604148 
L 179.109816 79.683231 
L 183.419371 78.688411 
L 187.728926 77.274458 
L 192.03848 75.713179 
L 196.348035 74.17499 
L 200.65759 72.972227 
L 204.967145 71.803281 
L 209.276699 70.80953 
L 213.586254 69.644807 
L 217.895809 68.409544 
L 222.205364 67.2582 
L 226.514918 66.111624 
L 230.824473 65.375567 
L 235.134028 64.166105 
L 239.443582 63.563191 
L 243.753137 62.735854 
L 248.062692 61.841671 
L 252.372247 60.956538 
L 256.681801 60.069769 
L 260.991356 59.231948 
L 265.300911 58.617528 
L 269.610466 57.391839 
L 273.92002 57.139462 
L 278.229575 56.119147 
L 282.53913 55.603768 
L 286.848684 55.089072 
L 291.158239 54.372833 
L 295.467794 53.518705 
L 299.777349 53.069172 
L 304.086903 52.620119 
" style="fill:none;stroke:#7f7f7f;stroke-linecap:round;stroke-width:4;"/>
   </g>
   <g id="line2d_9">
    <path clip-path="url(#p11eca63d5c)" d="M 92.918722 112.037961 
L 97.228276 112.037961 
L 101.537831 112.037961 
L 105.847386 112.037961 
L 110.156941 112.037961 
L 114.466495 111.038744 
L 118.77605 109.108555 
L 123.085605 107.967444 
L 127.395159 106.892138 
L 131.704714 106.073597 
L 136.014269 105.032954 
L 140.323824 104.222125 
L 144.633378 103.148308 
L 148.942933 102.213408 
L 153.252488 101.103138 
L 157.562043 100.034654 
L 161.871597 99.135403 
L 166.181152 98.04316 
L 170.490707 96.956862 
L 174.800261 95.387455 
L 179.109816 93.902575 
L 183.419371 93.01022 
L 187.728926 91.735476 
L 192.03848 90.057283 
L 196.348035 88.370213 
L 200.65759 86.904295 
L 204.967145 85.424084 
L 209.276699 84.146981 
L 213.586254 82.655113 
L 217.895809 81.103824 
L 222.205364 79.704318 
L 226.514918 78.362742 
L 230.824473 77.530702 
L 235.134028 76.211949 
L 239.443582 75.57614 
L 243.753137 74.726595 
L 248.062692 73.836088 
L 252.372247 72.981755 
L 256.681801 72.15128 
L 260.991356 71.388091 
L 265.300911 70.841086 
L 269.610466 69.780491 
L 273.92002 69.566812 
L 278.229575 68.71865 
L 282.53913 68.299292 
L 286.848684 67.88644 
L 291.158239 67.321287 
L 295.467794 66.661024 
L 299.777349 66.319037 
L 304.086903 65.981489 
" style="fill:none;stroke:#d62728;stroke-linecap:round;stroke-width:4;"/>
   </g>
   <g id="line2d_10">
    <path clip-path="url(#p11eca63d5c)" d="M 92.918722 119.527191 
L 97.228276 119.527191 
L 101.537831 119.527191 
L 105.847386 119.527191 
L 110.156941 119.527191 
L 114.466495 116.545215 
L 118.77605 113.112872 
L 123.085605 110.960135 
L 127.395159 108.700078 
L 131.704714 106.92964 
L 136.014269 104.813245 
L 140.323824 103.346855 
L 144.633378 101.656705 
L 148.942933 100.384765 
L 153.252488 99.071522 
L 157.562043 97.973505 
L 161.871597 97.154433 
L 166.181152 96.268446 
L 170.490707 95.489211 
L 174.800261 94.513062 
L 179.109816 93.722222 
L 183.419371 93.334304 
L 187.728926 92.747249 
L 192.03848 92.146267 
L 196.348035 91.519367 
L 200.65759 91.050746 
L 204.967145 90.599624 
L 209.276699 90.219271 
L 213.586254 89.777032 
L 217.895809 89.312487 
L 222.205364 88.883389 
L 226.514918 88.45991 
L 230.824473 88.189908 
L 235.134028 87.7496 
L 239.443582 87.53169 
L 243.753137 87.234156 
L 248.062692 86.914773 
L 252.372247 86.600667 
L 256.681801 86.288055 
L 260.991356 85.994677 
L 265.300911 85.780753 
L 269.610466 85.356769 
L 273.92002 85.269963 
L 278.229575 84.920686 
L 282.53913 84.745277 
L 286.848684 84.570755 
L 291.158239 84.328964 
L 295.467794 84.042319 
L 299.777349 83.89225 
L 304.086903 83.742747 
" style="fill:none;stroke:#17becf;stroke-linecap:round;stroke-width:4;"/>
   </g>
   <g id="patch_3">
    <path d="M 82.360313 179.09625 
L 82.360313 31.43625 
" style="fill:none;stroke:#262626;stroke-linecap:square;stroke-linejoin:miter;stroke-width:2.5;"/>
   </g>
   <g id="patch_4">
    <path d="M 314.645313 179.09625 
L 314.645313 31.43625 
" style="fill:none;stroke:#262626;stroke-linecap:square;stroke-linejoin:miter;stroke-width:2.5;"/>
   </g>
   <g id="patch_5">
    <path d="M 82.360313 179.09625 
L 314.645313 179.09625 
" style="fill:none;stroke:#262626;stroke-linecap:square;stroke-linejoin:miter;stroke-width:2.5;"/>
   </g>
   <g id="patch_6">
    <path d="M 82.360313 31.43625 
L 314.645313 31.43625 
" style="fill:none;stroke:#262626;stroke-linecap:square;stroke-linejoin:miter;stroke-width:2.5;"/>
   </g>
   <g id="text_9">
    <!-- IL2 restriction -->
    <g style="fill:#262626;" transform="translate(115.708438 25.43625)scale(0.24 -0.24)">
     <use xlink:href="#DejaVuSans-73"/>
     <use x="29.492188" xlink:href="#DejaVuSans-76"/>
     <use x="85.205078" xlink:href="#DejaVuSans-50"/>
     <use x="148.828125" xlink:href="#DejaVuSans-32"/>
     <use x="180.615234" xlink:href="#DejaVuSans-114"/>
     <use x="221.697266" xlink:href="#DejaVuSans-101"/>
     <use x="283.220703" xlink:href="#DejaVuSans-115"/>
     <use x="335.320312" xlink:href="#DejaVuSans-116"/>
     <use x="374.529297" xlink:href="#DejaVuSans-114"/>
     <use x="415.642578" xlink:href="#DejaVuSans-105"/>
     <use x="443.425781" xlink:href="#DejaVuSans-99"/>
     <use x="498.40625" xlink:href="#DejaVuSans-116"/>
     <use x="537.615234" xlink:href="#DejaVuSans-105"/>
     <use x="565.398438" xlink:href="#DejaVuSans-111"/>
     <use x="626.580078" xlink:href="#DejaVuSans-110"/>
    </g>
   </g>
  </g>
 </g>
 <defs>
  <clipPath id="p11eca63d5c">
   <rect height="147.66" width="232.285" x="82.360313" y="31.43625"/>
  </clipPath>
 </defs>
</svg>
