<?xml version="1.0" encoding="utf-8" standalone="no"?>
<!DOCTYPE svg PUBLIC "-//W3C//DTD SVG 1.1//EN"
  "http://www.w3.org/Graphics/SVG/1.1/DTD/svg11.dtd">
<!-- Created with matplotlib (https://matplotlib.org/) -->
<svg height="187.808125pt" version="1.1" viewBox="0 0 626.308954 187.808125" width="626.308954pt" xmlns="http://www.w3.org/2000/svg" xmlns:xlink="http://www.w3.org/1999/xlink">
 <defs>
  <style type="text/css">
*{stroke-linecap:butt;stroke-linejoin:round;}
  </style>
 </defs>
 <g id="figure_1">
  <g id="patch_1">
   <path d="M 0 187.808125 
L 626.308954 187.808125 
L 626.308954 0 
L 0 0 
z
" style="fill:#ffffff;"/>
  </g>
  <g id="axes_1">
   <g id="patch_2">
    <path d="M 103.349688 116.29625 
L 287.908221 116.29625 
L 287.908221 31.43625 
L 103.349688 31.43625 
z
" style="fill:#ffffff;"/>
   </g>
   <g id="matplotlib.axis_1">
    <g id="xtick_1">
     <g id="line2d_1">
      <defs>
       <path d="M 0 0 
L 0 12 
" id="m3085d6a04e" style="stroke:#262626;stroke-width:2.5;"/>
      </defs>
      <g>
       <use style="fill:#262626;stroke:#262626;stroke-width:2.5;" x="111.738712" xlink:href="#m3085d6a04e" y="116.29625"/>
      </g>
     </g>
     <g id="text_1">
      <!-- 0 -->
      <defs>
       <path d="M 31.78125 66.40625 
Q 24.171875 66.40625 20.328125 58.90625 
Q 16.5 51.421875 16.5 36.375 
Q 16.5 21.390625 20.328125 13.890625 
Q 24.171875 6.390625 31.78125 6.390625 
Q 39.453125 6.390625 43.28125 13.890625 
Q 47.125 21.390625 47.125 36.375 
Q 47.125 51.421875 43.28125 58.90625 
Q 39.453125 66.40625 31.78125 66.40625 
z
M 31.78125 74.21875 
Q 44.046875 74.21875 50.515625 64.515625 
Q 56.984375 54.828125 56.984375 36.375 
Q 56.984375 17.96875 50.515625 8.265625 
Q 44.046875 -1.421875 31.78125 -1.421875 
Q 19.53125 -1.421875 13.0625 8.265625 
Q 6.59375 17.96875 6.59375 36.375 
Q 6.59375 54.828125 13.0625 64.515625 
Q 19.53125 74.21875 31.78125 74.21875 
z
" id="DejaVuSans-48"/>
      </defs>
      <g style="fill:#262626;" transform="translate(104.739962 148.512813)scale(0.22 -0.22)">
       <use xlink:href="#DejaVuSans-48"/>
      </g>
     </g>
    </g>
    <g id="xtick_2">
     <g id="line2d_2">
      <g>
       <use style="fill:#262626;stroke:#262626;stroke-width:2.5;" x="195.628954" xlink:href="#m3085d6a04e" y="116.29625"/>
      </g>
     </g>
     <g id="text_2">
      <!-- 5 -->
      <defs>
       <path d="M 10.796875 72.90625 
L 49.515625 72.90625 
L 49.515625 64.59375 
L 19.828125 64.59375 
L 19.828125 46.734375 
Q 21.96875 47.46875 24.109375 47.828125 
Q 26.265625 48.1875 28.421875 48.1875 
Q 40.625 48.1875 47.75 41.5 
Q 54.890625 34.8125 54.890625 23.390625 
Q 54.890625 11.625 47.5625 5.09375 
Q 40.234375 -1.421875 26.90625 -1.421875 
Q 22.3125 -1.421875 17.546875 -0.640625 
Q 12.796875 0.140625 7.71875 1.703125 
L 7.71875 11.625 
Q 12.109375 9.234375 16.796875 8.0625 
Q 21.484375 6.890625 26.703125 6.890625 
Q 35.15625 6.890625 40.078125 11.328125 
Q 45.015625 15.765625 45.015625 23.390625 
Q 45.015625 31 40.078125 35.4375 
Q 35.15625 39.890625 26.703125 39.890625 
Q 22.75 39.890625 18.8125 39.015625 
Q 14.890625 38.140625 10.796875 36.28125 
z
" id="DejaVuSans-53"/>
      </defs>
      <g style="fill:#262626;" transform="translate(188.630204 148.512813)scale(0.22 -0.22)">
       <use xlink:href="#DejaVuSans-53"/>
      </g>
     </g>
    </g>
    <g id="xtick_3">
     <g id="line2d_3">
      <g>
       <use style="fill:#262626;stroke:#262626;stroke-width:2.5;" x="279.519196" xlink:href="#m3085d6a04e" y="116.29625"/>
      </g>
     </g>
     <g id="text_3">
      <!-- 10 -->
      <defs>
       <path d="M 12.40625 8.296875 
L 28.515625 8.296875 
L 28.515625 63.921875 
L 10.984375 60.40625 
L 10.984375 69.390625 
L 28.421875 72.90625 
L 38.28125 72.90625 
L 38.28125 8.296875 
L 54.390625 8.296875 
L 54.390625 0 
L 12.40625 0 
z
" id="DejaVuSans-49"/>
      </defs>
      <g style="fill:#262626;" transform="translate(265.521696 148.512813)scale(0.22 -0.22)">
       <use xlink:href="#DejaVuSans-49"/>
       <use x="63.623047" xlink:href="#DejaVuSans-48"/>
      </g>
     </g>
    </g>
    <g id="text_4">
     <!-- fb strength $\beta_0$(IFN) -->
     <defs>
      <path d="M 37.109375 75.984375 
L 37.109375 68.5 
L 28.515625 68.5 
Q 23.6875 68.5 21.796875 66.546875 
Q 19.921875 64.59375 19.921875 59.515625 
L 19.921875 54.6875 
L 34.71875 54.6875 
L 34.71875 47.703125 
L 19.921875 47.703125 
L 19.921875 0 
L 10.890625 0 
L 10.890625 47.703125 
L 2.296875 47.703125 
L 2.296875 54.6875 
L 10.890625 54.6875 
L 10.890625 58.5 
Q 10.890625 67.625 15.140625 71.796875 
Q 19.390625 75.984375 28.609375 75.984375 
z
" id="DejaVuSans-102"/>
      <path d="M 48.6875 27.296875 
Q 48.6875 37.203125 44.609375 42.84375 
Q 40.53125 48.484375 33.40625 48.484375 
Q 26.265625 48.484375 22.1875 42.84375 
Q 18.109375 37.203125 18.109375 27.296875 
Q 18.109375 17.390625 22.1875 11.75 
Q 26.265625 6.109375 33.40625 6.109375 
Q 40.53125 6.109375 44.609375 11.75 
Q 48.6875 17.390625 48.6875 27.296875 
z
M 18.109375 46.390625 
Q 20.953125 51.265625 25.265625 53.625 
Q 29.59375 56 35.59375 56 
Q 45.5625 56 51.78125 48.09375 
Q 58.015625 40.1875 58.015625 27.296875 
Q 58.015625 14.40625 51.78125 6.484375 
Q 45.5625 -1.421875 35.59375 -1.421875 
Q 29.59375 -1.421875 25.265625 0.953125 
Q 20.953125 3.328125 18.109375 8.203125 
L 18.109375 0 
L 9.078125 0 
L 9.078125 75.984375 
L 18.109375 75.984375 
z
" id="DejaVuSans-98"/>
      <path id="DejaVuSans-32"/>
      <path d="M 44.28125 53.078125 
L 44.28125 44.578125 
Q 40.484375 46.53125 36.375 47.5 
Q 32.28125 48.484375 27.875 48.484375 
Q 21.1875 48.484375 17.84375 46.4375 
Q 14.5 44.390625 14.5 40.28125 
Q 14.5 37.15625 16.890625 35.375 
Q 19.28125 33.59375 26.515625 31.984375 
L 29.59375 31.296875 
Q 39.15625 29.25 43.1875 25.515625 
Q 47.21875 21.78125 47.21875 15.09375 
Q 47.21875 7.46875 41.1875 3.015625 
Q 35.15625 -1.421875 24.609375 -1.421875 
Q 20.21875 -1.421875 15.453125 -0.5625 
Q 10.6875 0.296875 5.421875 2 
L 5.421875 11.28125 
Q 10.40625 8.6875 15.234375 7.390625 
Q 20.0625 6.109375 24.8125 6.109375 
Q 31.15625 6.109375 34.5625 8.28125 
Q 37.984375 10.453125 37.984375 14.40625 
Q 37.984375 18.0625 35.515625 20.015625 
Q 33.0625 21.96875 24.703125 23.78125 
L 21.578125 24.515625 
Q 13.234375 26.265625 9.515625 29.90625 
Q 5.8125 33.546875 5.8125 39.890625 
Q 5.8125 47.609375 11.28125 51.796875 
Q 16.75 56 26.8125 56 
Q 31.78125 56 36.171875 55.265625 
Q 40.578125 54.546875 44.28125 53.078125 
z
" id="DejaVuSans-115"/>
      <path d="M 18.3125 70.21875 
L 18.3125 54.6875 
L 36.8125 54.6875 
L 36.8125 47.703125 
L 18.3125 47.703125 
L 18.3125 18.015625 
Q 18.3125 11.328125 20.140625 9.421875 
Q 21.96875 7.515625 27.59375 7.515625 
L 36.8125 7.515625 
L 36.8125 0 
L 27.59375 0 
Q 17.1875 0 13.234375 3.875 
Q 9.28125 7.765625 9.28125 18.015625 
L 9.28125 47.703125 
L 2.6875 47.703125 
L 2.6875 54.6875 
L 9.28125 54.6875 
L 9.28125 70.21875 
z
" id="DejaVuSans-116"/>
      <path d="M 41.109375 46.296875 
Q 39.59375 47.171875 37.8125 47.578125 
Q 36.03125 48 33.890625 48 
Q 26.265625 48 22.1875 43.046875 
Q 18.109375 38.09375 18.109375 28.8125 
L 18.109375 0 
L 9.078125 0 
L 9.078125 54.6875 
L 18.109375 54.6875 
L 18.109375 46.1875 
Q 20.953125 51.171875 25.484375 53.578125 
Q 30.03125 56 36.53125 56 
Q 37.453125 56 38.578125 55.875 
Q 39.703125 55.765625 41.0625 55.515625 
z
" id="DejaVuSans-114"/>
      <path d="M 56.203125 29.59375 
L 56.203125 25.203125 
L 14.890625 25.203125 
Q 15.484375 15.921875 20.484375 11.0625 
Q 25.484375 6.203125 34.421875 6.203125 
Q 39.59375 6.203125 44.453125 7.46875 
Q 49.3125 8.734375 54.109375 11.28125 
L 54.109375 2.78125 
Q 49.265625 0.734375 44.1875 -0.34375 
Q 39.109375 -1.421875 33.890625 -1.421875 
Q 20.796875 -1.421875 13.15625 6.1875 
Q 5.515625 13.8125 5.515625 26.8125 
Q 5.515625 40.234375 12.765625 48.109375 
Q 20.015625 56 32.328125 56 
Q 43.359375 56 49.78125 48.890625 
Q 56.203125 41.796875 56.203125 29.59375 
z
M 47.21875 32.234375 
Q 47.125 39.59375 43.09375 43.984375 
Q 39.0625 48.390625 32.421875 48.390625 
Q 24.90625 48.390625 20.390625 44.140625 
Q 15.875 39.890625 15.1875 32.171875 
z
" id="DejaVuSans-101"/>
      <path d="M 54.890625 33.015625 
L 54.890625 0 
L 45.90625 0 
L 45.90625 32.71875 
Q 45.90625 40.484375 42.875 44.328125 
Q 39.84375 48.1875 33.796875 48.1875 
Q 26.515625 48.1875 22.3125 43.546875 
Q 18.109375 38.921875 18.109375 30.90625 
L 18.109375 0 
L 9.078125 0 
L 9.078125 54.6875 
L 18.109375 54.6875 
L 18.109375 46.1875 
Q 21.34375 51.125 25.703125 53.5625 
Q 30.078125 56 35.796875 56 
Q 45.21875 56 50.046875 50.171875 
Q 54.890625 44.34375 54.890625 33.015625 
z
" id="DejaVuSans-110"/>
      <path d="M 45.40625 27.984375 
Q 45.40625 37.75 41.375 43.109375 
Q 37.359375 48.484375 30.078125 48.484375 
Q 22.859375 48.484375 18.828125 43.109375 
Q 14.796875 37.75 14.796875 27.984375 
Q 14.796875 18.265625 18.828125 12.890625 
Q 22.859375 7.515625 30.078125 7.515625 
Q 37.359375 7.515625 41.375 12.890625 
Q 45.40625 18.265625 45.40625 27.984375 
z
M 54.390625 6.78125 
Q 54.390625 -7.171875 48.1875 -13.984375 
Q 42 -20.796875 29.203125 -20.796875 
Q 24.46875 -20.796875 20.265625 -20.09375 
Q 16.0625 -19.390625 12.109375 -17.921875 
L 12.109375 -9.1875 
Q 16.0625 -11.328125 19.921875 -12.34375 
Q 23.78125 -13.375 27.78125 -13.375 
Q 36.625 -13.375 41.015625 -8.765625 
Q 45.40625 -4.15625 45.40625 5.171875 
L 45.40625 9.625 
Q 42.625 4.78125 38.28125 2.390625 
Q 33.9375 0 27.875 0 
Q 17.828125 0 11.671875 7.65625 
Q 5.515625 15.328125 5.515625 27.984375 
Q 5.515625 40.671875 11.671875 48.328125 
Q 17.828125 56 27.875 56 
Q 33.9375 56 38.28125 53.609375 
Q 42.625 51.21875 45.40625 46.390625 
L 45.40625 54.6875 
L 54.390625 54.6875 
z
" id="DejaVuSans-103"/>
      <path d="M 54.890625 33.015625 
L 54.890625 0 
L 45.90625 0 
L 45.90625 32.71875 
Q 45.90625 40.484375 42.875 44.328125 
Q 39.84375 48.1875 33.796875 48.1875 
Q 26.515625 48.1875 22.3125 43.546875 
Q 18.109375 38.921875 18.109375 30.90625 
L 18.109375 0 
L 9.078125 0 
L 9.078125 75.984375 
L 18.109375 75.984375 
L 18.109375 46.1875 
Q 21.34375 51.125 25.703125 53.5625 
Q 30.078125 56 35.796875 56 
Q 45.21875 56 50.046875 50.171875 
Q 54.890625 44.34375 54.890625 33.015625 
z
" id="DejaVuSans-104"/>
      <path d="M 13.625 3.375 
L 8.9375 -20.796875 
L -0.09375 -20.796875 
L 14.5 54.34375 
Q 18.84375 76.609375 39.65625 76.609375 
Q 60.75 76.609375 57.171875 57.8125 
Q 54.734375 44.4375 45.21875 39.546875 
Q 58.015625 35.15625 55.515625 22.125 
Q 51.125 -1.078125 27.484375 -1.03125 
Q 17.140625 -0.984375 13.625 3.375 
z
M 15.921875 15.09375 
Q 19.671875 6.59375 29.296875 6.640625 
Q 43.359375 6.640625 46.34375 21.96875 
Q 49.03125 35.75 26.171875 34.671875 
L 27.78125 42.96875 
Q 45.453125 42.671875 48.53125 58.59375 
Q 50.640625 69.34375 39.203125 69.28125 
Q 26.421875 69.28125 23.484375 54.046875 
z
" id="DejaVuSans-Oblique-946"/>
      <path d="M 31 75.875 
Q 24.46875 64.65625 21.28125 53.65625 
Q 18.109375 42.671875 18.109375 31.390625 
Q 18.109375 20.125 21.3125 9.0625 
Q 24.515625 -2 31 -13.1875 
L 23.1875 -13.1875 
Q 15.875 -1.703125 12.234375 9.375 
Q 8.59375 20.453125 8.59375 31.390625 
Q 8.59375 42.28125 12.203125 53.3125 
Q 15.828125 64.359375 23.1875 75.875 
z
" id="DejaVuSans-40"/>
      <path d="M 9.8125 72.90625 
L 19.671875 72.90625 
L 19.671875 0 
L 9.8125 0 
z
" id="DejaVuSans-73"/>
      <path d="M 9.8125 72.90625 
L 51.703125 72.90625 
L 51.703125 64.59375 
L 19.671875 64.59375 
L 19.671875 43.109375 
L 48.578125 43.109375 
L 48.578125 34.8125 
L 19.671875 34.8125 
L 19.671875 0 
L 9.8125 0 
z
" id="DejaVuSans-70"/>
      <path d="M 9.8125 72.90625 
L 23.09375 72.90625 
L 55.421875 11.921875 
L 55.421875 72.90625 
L 64.984375 72.90625 
L 64.984375 0 
L 51.703125 0 
L 19.390625 60.984375 
L 19.390625 0 
L 9.8125 0 
z
" id="DejaVuSans-78"/>
      <path d="M 8.015625 75.875 
L 15.828125 75.875 
Q 23.140625 64.359375 26.78125 53.3125 
Q 30.421875 42.28125 30.421875 31.390625 
Q 30.421875 20.453125 26.78125 9.375 
Q 23.140625 -1.703125 15.828125 -13.1875 
L 8.015625 -13.1875 
Q 14.5 -2 17.703125 9.0625 
Q 20.90625 20.125 20.90625 31.390625 
Q 20.90625 42.671875 17.703125 53.65625 
Q 14.5 64.65625 8.015625 75.875 
z
" id="DejaVuSans-41"/>
     </defs>
     <g style="fill:#262626;" transform="translate(83.188954 175.568125)scale(0.24 -0.24)">
      <use transform="translate(0 0.390625)" xlink:href="#DejaVuSans-102"/>
      <use transform="translate(35.205078 0.390625)" xlink:href="#DejaVuSans-98"/>
      <use transform="translate(98.681641 0.390625)" xlink:href="#DejaVuSans-32"/>
      <use transform="translate(130.46875 0.390625)" xlink:href="#DejaVuSans-115"/>
      <use transform="translate(182.568359 0.390625)" xlink:href="#DejaVuSans-116"/>
      <use transform="translate(221.777344 0.390625)" xlink:href="#DejaVuSans-114"/>
      <use transform="translate(262.890625 0.390625)" xlink:href="#DejaVuSans-101"/>
      <use transform="translate(324.414062 0.390625)" xlink:href="#DejaVuSans-110"/>
      <use transform="translate(387.792969 0.390625)" xlink:href="#DejaVuSans-103"/>
      <use transform="translate(451.269531 0.390625)" xlink:href="#DejaVuSans-116"/>
      <use transform="translate(490.478516 0.390625)" xlink:href="#DejaVuSans-104"/>
      <use transform="translate(553.857422 0.390625)" xlink:href="#DejaVuSans-32"/>
      <use transform="translate(585.644531 0.390625)" xlink:href="#DejaVuSans-Oblique-946"/>
      <use transform="translate(649.462891 -16.015625)scale(0.7)" xlink:href="#DejaVuSans-48"/>
      <use transform="translate(696.733398 0.390625)" xlink:href="#DejaVuSans-40"/>
      <use transform="translate(735.74707 0.390625)" xlink:href="#DejaVuSans-73"/>
      <use transform="translate(765.239258 0.390625)" xlink:href="#DejaVuSans-70"/>
      <use transform="translate(822.758789 0.390625)" xlink:href="#DejaVuSans-78"/>
      <use transform="translate(897.563477 0.390625)" xlink:href="#DejaVuSans-41"/>
     </g>
    </g>
   </g>
   <g id="matplotlib.axis_2">
    <g id="ytick_1">
     <g id="line2d_4">
      <defs>
       <path d="M 0 0 
L -12 0 
" id="m00e7ec41ae" style="stroke:#262626;stroke-width:2.5;"/>
      </defs>
      <g>
       <use style="fill:#262626;stroke:#262626;stroke-width:2.5;" x="103.349688" xlink:href="#m00e7ec41ae" y="116.29625"/>
      </g>
     </g>
     <g id="text_5">
      <!-- −0.5 -->
      <defs>
       <path d="M 10.59375 35.5 
L 73.1875 35.5 
L 73.1875 27.203125 
L 10.59375 27.203125 
z
" id="DejaVuSans-8722"/>
       <path d="M 10.6875 12.40625 
L 21 12.40625 
L 21 0 
L 10.6875 0 
z
" id="DejaVuSans-46"/>
      </defs>
      <g style="fill:#262626;" transform="translate(34.4275 124.654531)scale(0.22 -0.22)">
       <use xlink:href="#DejaVuSans-8722"/>
       <use x="83.789062" xlink:href="#DejaVuSans-48"/>
       <use x="147.412109" xlink:href="#DejaVuSans-46"/>
       <use x="179.199219" xlink:href="#DejaVuSans-53"/>
      </g>
     </g>
    </g>
    <g id="ytick_2">
     <g id="line2d_5">
      <g>
       <use style="fill:#262626;stroke:#262626;stroke-width:2.5;" x="103.349688" xlink:href="#m00e7ec41ae" y="73.86625"/>
      </g>
     </g>
     <g id="text_6">
      <!-- 0.0 -->
      <g style="fill:#262626;" transform="translate(52.862813 82.224531)scale(0.22 -0.22)">
       <use xlink:href="#DejaVuSans-48"/>
       <use x="63.623047" xlink:href="#DejaVuSans-46"/>
       <use x="95.410156" xlink:href="#DejaVuSans-48"/>
      </g>
     </g>
    </g>
    <g id="ytick_3">
     <g id="line2d_6">
      <g>
       <use style="fill:#262626;stroke:#262626;stroke-width:2.5;" x="103.349688" xlink:href="#m00e7ec41ae" y="31.43625"/>
      </g>
     </g>
     <g id="text_7">
      <!-- 0.5 -->
      <g style="fill:#262626;" transform="translate(52.862813 39.794531)scale(0.22 -0.22)">
       <use xlink:href="#DejaVuSans-48"/>
       <use x="63.623047" xlink:href="#DejaVuSans-46"/>
       <use x="95.410156" xlink:href="#DejaVuSans-53"/>
      </g>
     </g>
    </g>
    <g id="text_8">
     <!-- log2FC -->
     <defs>
      <path d="M 9.421875 75.984375 
L 18.40625 75.984375 
L 18.40625 0 
L 9.421875 0 
z
" id="DejaVuSans-108"/>
      <path d="M 30.609375 48.390625 
Q 23.390625 48.390625 19.1875 42.75 
Q 14.984375 37.109375 14.984375 27.296875 
Q 14.984375 17.484375 19.15625 11.84375 
Q 23.34375 6.203125 30.609375 6.203125 
Q 37.796875 6.203125 41.984375 11.859375 
Q 46.1875 17.53125 46.1875 27.296875 
Q 46.1875 37.015625 41.984375 42.703125 
Q 37.796875 48.390625 30.609375 48.390625 
z
M 30.609375 56 
Q 42.328125 56 49.015625 48.375 
Q 55.71875 40.765625 55.71875 27.296875 
Q 55.71875 13.875 49.015625 6.21875 
Q 42.328125 -1.421875 30.609375 -1.421875 
Q 18.84375 -1.421875 12.171875 6.21875 
Q 5.515625 13.875 5.515625 27.296875 
Q 5.515625 40.765625 12.171875 48.375 
Q 18.84375 56 30.609375 56 
z
" id="DejaVuSans-111"/>
      <path d="M 19.1875 8.296875 
L 53.609375 8.296875 
L 53.609375 0 
L 7.328125 0 
L 7.328125 8.296875 
Q 12.9375 14.109375 22.625 23.890625 
Q 32.328125 33.6875 34.8125 36.53125 
Q 39.546875 41.84375 41.421875 45.53125 
Q 43.3125 49.21875 43.3125 52.78125 
Q 43.3125 58.59375 39.234375 62.25 
Q 35.15625 65.921875 28.609375 65.921875 
Q 23.96875 65.921875 18.8125 64.3125 
Q 13.671875 62.703125 7.8125 59.421875 
L 7.8125 69.390625 
Q 13.765625 71.78125 18.9375 73 
Q 24.125 74.21875 28.421875 74.21875 
Q 39.75 74.21875 46.484375 68.546875 
Q 53.21875 62.890625 53.21875 53.421875 
Q 53.21875 48.921875 51.53125 44.890625 
Q 49.859375 40.875 45.40625 35.40625 
Q 44.1875 33.984375 37.640625 27.21875 
Q 31.109375 20.453125 19.1875 8.296875 
z
" id="DejaVuSans-50"/>
      <path d="M 64.40625 67.28125 
L 64.40625 56.890625 
Q 59.421875 61.53125 53.78125 63.8125 
Q 48.140625 66.109375 41.796875 66.109375 
Q 29.296875 66.109375 22.65625 58.46875 
Q 16.015625 50.828125 16.015625 36.375 
Q 16.015625 21.96875 22.65625 14.328125 
Q 29.296875 6.6875 41.796875 6.6875 
Q 48.140625 6.6875 53.78125 8.984375 
Q 59.421875 11.28125 64.40625 15.921875 
L 64.40625 5.609375 
Q 59.234375 2.09375 53.4375 0.328125 
Q 47.65625 -1.421875 41.21875 -1.421875 
Q 24.65625 -1.421875 15.125 8.703125 
Q 5.609375 18.84375 5.609375 36.375 
Q 5.609375 53.953125 15.125 64.078125 
Q 24.65625 74.21875 41.21875 74.21875 
Q 47.75 74.21875 53.53125 72.484375 
Q 59.328125 70.75 64.40625 67.28125 
z
" id="DejaVuSans-67"/>
     </defs>
     <g style="fill:#262626;" transform="translate(25.43625 115.076875)rotate(-90)scale(0.24 -0.24)">
      <use xlink:href="#DejaVuSans-108"/>
      <use x="27.783203" xlink:href="#DejaVuSans-111"/>
      <use x="88.964844" xlink:href="#DejaVuSans-103"/>
      <use x="152.441406" xlink:href="#DejaVuSans-50"/>
      <use x="216.064453" xlink:href="#DejaVuSans-70"/>
      <use x="273.583984" xlink:href="#DejaVuSans-67"/>
     </g>
    </g>
   </g>
   <g id="line2d_7">
    <path clip-path="url(#pca7f524643)" d="M 111.738712 73.86625 
L 115.162803 73.099527 
L 118.586895 72.335699 
L 122.010986 71.572093 
L 125.435078 70.801939 
L 128.859169 70.036643 
L 132.283261 69.273358 
L 135.707352 68.503671 
L 139.131444 67.74099 
L 142.555535 66.981141 
L 145.979627 66.216048 
L 149.403718 65.460267 
L 152.82781 64.706831 
L 156.251902 63.95055 
L 159.675993 63.205987 
L 163.100085 62.46169 
L 166.524176 61.718367 
L 169.948268 60.989177 
L 173.372359 60.256422 
L 176.796451 59.529931 
L 180.220542 58.819937 
L 183.644634 58.100764 
L 187.068725 57.394548 
L 190.492817 56.705772 
L 193.916908 56.003175 
L 197.341 55.320096 
L 200.765091 54.649767 
L 204.189183 53.970564 
L 207.613274 53.312763 
L 211.037366 52.662373 
L 214.461457 52.00817 
L 217.885549 51.376987 
L 221.30964 50.747983 
L 224.733732 50.119587 
L 228.157823 49.515546 
L 231.581915 48.90948 
L 235.006007 48.306895 
L 238.430098 47.729697 
L 241.85419 47.148489 
L 245.278281 46.570933 
L 248.702373 46.019503 
L 252.126464 45.465627 
L 255.550556 44.911604 
L 258.974647 44.384188 
L 262.398739 43.860934 
L 265.82283 43.328312 
L 269.246922 42.822549 
L 272.671013 42.334283 
L 276.095105 41.820395 
L 279.519196 41.333415 
" style="fill:none;stroke:#1a1a1a;stroke-linecap:round;stroke-width:4;"/>
   </g>
   <g id="line2d_8">
    <path clip-path="url(#pca7f524643)" d="M 111.738712 116.29625 
L 111.738712 31.43625 
" style="fill:none;stroke:#7f7f7f;stroke-dasharray:7.4,3.2;stroke-dashoffset:0;stroke-width:2;"/>
   </g>
   <g id="line2d_9">
    <path clip-path="url(#pca7f524643)" d="M 111.738712 73.86625 
L 115.162803 73.866283 
L 118.586895 73.866219 
L 122.010986 73.866357 
L 125.435078 73.86632 
L 128.859169 73.866263 
L 132.283261 73.866285 
L 135.707352 73.866326 
L 139.131444 73.866269 
L 142.555535 73.866276 
L 145.979627 73.866245 
L 149.403718 73.86627 
L 152.82781 73.866215 
L 156.251902 73.866309 
L 159.675993 73.866266 
L 163.100085 73.866303 
L 166.524176 73.866315 
L 169.948268 73.866253 
L 173.372359 73.866151 
L 176.796451 73.866258 
L 180.220542 73.866249 
L 183.644634 73.866249 
L 187.068725 73.866269 
L 190.492817 73.866293 
L 193.916908 73.866236 
L 197.341 73.866192 
L 200.765091 73.866256 
L 204.189183 73.866336 
L 207.613274 73.866312 
L 211.037366 73.866274 
L 214.461457 73.866265 
L 217.885549 73.866233 
L 221.30964 73.866276 
L 224.733732 73.866292 
L 228.157823 73.866275 
L 231.581915 73.866308 
L 235.006007 73.866208 
L 238.430098 73.866269 
L 241.85419 73.866271 
L 245.278281 73.866298 
L 248.702373 73.866267 
L 252.126464 73.86628 
L 255.550556 73.866212 
L 258.974647 73.866301 
L 262.398739 73.866261 
L 265.82283 73.8663 
L 269.246922 73.86631 
L 272.671013 73.866287 
L 276.095105 73.866196 
L 279.519196 73.86628 
" style="fill:none;stroke:#7f7f7f;stroke-linecap:round;stroke-width:4;"/>
   </g>
   <g id="line2d_10">
    <path clip-path="url(#pca7f524643)" d="M 111.738712 116.29625 
L 111.738712 31.43625 
" style="fill:none;stroke:#7f7f7f;stroke-dasharray:7.4,3.2;stroke-dashoffset:0;stroke-width:2;"/>
   </g>
   <g id="line2d_11">
    <path clip-path="url(#pca7f524643)" d="M 111.738712 73.86625 
L 115.162803 73.652503 
L 118.586895 73.440534 
L 122.010986 73.229447 
L 125.435078 73.01697 
L 128.859169 72.806933 
L 132.283261 72.598382 
L 135.707352 72.388551 
L 139.131444 72.182137 
L 142.555535 71.977689 
L 145.979627 71.772498 
L 149.403718 71.571446 
L 152.82781 71.372195 
L 156.251902 71.173008 
L 159.675993 70.978803 
L 163.100085 70.786371 
L 166.524176 70.595485 
L 169.948268 70.410514 
L 173.372359 70.22557 
L 176.796451 70.043915 
L 180.220542 69.868928 
L 183.644634 69.6921 
L 187.068725 69.520905 
L 190.492817 69.357698 
L 193.916908 69.191337 
L 197.341 69.032719 
L 200.765091 68.879602 
L 204.189183 68.724937 
L 207.613274 68.578549 
L 211.037366 68.435869 
L 214.461457 68.29326 
L 217.885549 68.15936 
L 221.30964 68.028465 
L 224.733732 67.899733 
L 228.157823 67.78009 
L 231.581915 67.661179 
L 235.006007 67.544727 
L 238.430098 67.437545 
L 241.85419 67.330422 
L 245.278281 67.225737 
L 248.702373 67.130405 
L 252.126464 67.035557 
L 255.550556 66.941904 
L 258.974647 66.857596 
L 262.398739 66.775723 
L 265.82283 66.692275 
L 269.246922 66.619644 
L 272.671013 66.553336 
L 276.095105 66.480702 
L 279.519196 66.417088 
" style="fill:none;stroke:#d62728;stroke-linecap:round;stroke-width:4;"/>
   </g>
   <g id="line2d_12">
    <path clip-path="url(#pca7f524643)" d="M 111.738712 116.29625 
L 111.738712 31.43625 
" style="fill:none;stroke:#7f7f7f;stroke-dasharray:7.4,3.2;stroke-dashoffset:0;stroke-width:2;"/>
   </g>
   <g id="line2d_13">
    <path clip-path="url(#pca7f524643)" d="M 111.738712 73.86625 
L 115.162803 74.462215 
L 118.586895 75.05556 
L 122.010986 75.648013 
L 125.435078 76.243092 
L 128.859169 76.834758 
L 132.283261 77.42445 
L 135.707352 78.016482 
L 139.131444 78.603562 
L 142.555535 79.188224 
L 145.979627 79.774853 
L 149.403718 80.355573 
L 152.82781 80.934167 
L 156.251902 81.51354 
L 159.675993 82.085691 
L 163.100085 82.656988 
L 166.524176 83.227117 
L 169.948268 83.788727 
L 173.372359 84.351838 
L 176.796451 84.91094 
L 180.220542 85.460312 
L 183.644634 86.014722 
L 187.068725 86.561547 
L 190.492817 87.098153 
L 193.916908 87.642863 
L 197.341 88.176213 
L 200.765091 88.702186 
L 204.189183 89.233837 
L 207.613274 89.753029 
L 211.037366 90.268219 
L 214.461457 90.786395 
L 217.885549 91.29108 
L 221.30964 91.795179 
L 224.733732 92.299803 
L 228.157823 92.789989 
L 231.581915 93.282359 
L 235.006007 93.773661 
L 238.430098 94.249702 
L 241.85419 94.729556 
L 245.278281 95.208341 
L 248.702373 95.671116 
L 252.126464 96.136873 
L 255.550556 96.60423 
L 258.974647 97.054962 
L 262.398739 97.50428 
L 265.82283 97.961737 
L 269.246922 98.402068 
L 272.671013 98.831526 
L 276.095105 99.280896 
L 279.519196 99.712809 
" style="fill:none;stroke:#17becf;stroke-linecap:round;stroke-width:4;"/>
   </g>
   <g id="line2d_14">
    <path clip-path="url(#pca7f524643)" d="M 111.738712 116.29625 
L 111.738712 31.43625 
" style="fill:none;stroke:#7f7f7f;stroke-dasharray:7.4,3.2;stroke-dashoffset:0;stroke-width:2;"/>
   </g>
   <g id="patch_3">
    <path d="M 103.349688 116.29625 
L 103.349688 31.43625 
" style="fill:none;stroke:#262626;stroke-linecap:square;stroke-linejoin:miter;stroke-width:2.5;"/>
   </g>
   <g id="patch_4">
    <path d="M 287.908221 116.29625 
L 287.908221 31.43625 
" style="fill:none;stroke:#262626;stroke-linecap:square;stroke-linejoin:miter;stroke-width:2.5;"/>
   </g>
   <g id="patch_5">
    <path d="M 103.349688 116.29625 
L 287.908221 116.29625 
" style="fill:none;stroke:#262626;stroke-linecap:square;stroke-linejoin:miter;stroke-width:2.5;"/>
   </g>
   <g id="patch_6">
    <path d="M 103.349688 31.43625 
L 287.908221 31.43625 
" style="fill:none;stroke:#262626;stroke-linecap:square;stroke-linejoin:miter;stroke-width:2.5;"/>
   </g>
   <g id="text_9">
    <!-- SD $\Psi_0 = 0.1$ -->
    <defs>
     <path d="M 53.515625 70.515625 
L 53.515625 60.890625 
Q 47.90625 63.578125 42.921875 64.890625 
Q 37.9375 66.21875 33.296875 66.21875 
Q 25.25 66.21875 20.875 63.09375 
Q 16.5 59.96875 16.5 54.203125 
Q 16.5 49.359375 19.40625 46.890625 
Q 22.3125 44.4375 30.421875 42.921875 
L 36.375 41.703125 
Q 47.40625 39.59375 52.65625 34.296875 
Q 57.90625 29 57.90625 20.125 
Q 57.90625 9.515625 50.796875 4.046875 
Q 43.703125 -1.421875 29.984375 -1.421875 
Q 24.8125 -1.421875 18.96875 -0.25 
Q 13.140625 0.921875 6.890625 3.21875 
L 6.890625 13.375 
Q 12.890625 10.015625 18.65625 8.296875 
Q 24.421875 6.59375 29.984375 6.59375 
Q 38.421875 6.59375 43.015625 9.90625 
Q 47.609375 13.234375 47.609375 19.390625 
Q 47.609375 24.75 44.3125 27.78125 
Q 41.015625 30.8125 33.5 32.328125 
L 27.484375 33.5 
Q 16.453125 35.6875 11.515625 40.375 
Q 6.59375 45.0625 6.59375 53.421875 
Q 6.59375 63.09375 13.40625 68.65625 
Q 20.21875 74.21875 32.171875 74.21875 
Q 37.3125 74.21875 42.625 73.28125 
Q 47.953125 72.359375 53.515625 70.515625 
z
" id="DejaVuSans-83"/>
     <path d="M 19.671875 64.796875 
L 19.671875 8.109375 
L 31.59375 8.109375 
Q 46.6875 8.109375 53.6875 14.9375 
Q 60.6875 21.78125 60.6875 36.53125 
Q 60.6875 51.171875 53.6875 57.984375 
Q 46.6875 64.796875 31.59375 64.796875 
z
M 9.8125 72.90625 
L 30.078125 72.90625 
Q 51.265625 72.90625 61.171875 64.09375 
Q 71.09375 55.28125 71.09375 36.53125 
Q 71.09375 17.671875 61.125 8.828125 
Q 51.171875 0 30.078125 0 
L 9.8125 0 
z
" id="DejaVuSans-68"/>
     <path d="M 34.46875 0 
Q 34.515625 6.546875 34.46875 15.140625 
Q 24.03125 15.140625 14.84375 25.390625 
Q 5.859375 35.359375 5.609375 52.9375 
L 5.609375 72.90625 
L 16.015625 72.90625 
L 16.015625 52.9375 
Q 16.015625 39.15625 22.359375 31.15625 
Q 27.734375 24.3125 34.46875 23.640625 
L 34.46875 72.90625 
L 44.34375 72.90625 
L 44.34375 23.640625 
Q 51.078125 24.3125 56.453125 31.15625 
Q 62.796875 39.15625 62.796875 52.9375 
L 62.796875 72.90625 
L 73.1875 72.90625 
L 73.1875 52.9375 
Q 72.953125 35.359375 63.96875 25.390625 
Q 54.78125 15.140625 44.34375 15.140625 
Q 44.28125 11.625 44.34375 0 
z
" id="DejaVuSans-936"/>
     <path d="M 10.59375 45.40625 
L 73.1875 45.40625 
L 73.1875 37.203125 
L 10.59375 37.203125 
z
M 10.59375 25.484375 
L 73.1875 25.484375 
L 73.1875 17.1875 
L 10.59375 17.1875 
z
" id="DejaVuSans-61"/>
    </defs>
    <g style="fill:#262626;" transform="translate(125.908954 25.43625)scale(0.24 -0.24)">
     <use transform="translate(0 0.78125)" xlink:href="#DejaVuSans-83"/>
     <use transform="translate(63.476562 0.78125)" xlink:href="#DejaVuSans-68"/>
     <use transform="translate(140.478516 0.78125)" xlink:href="#DejaVuSans-32"/>
     <use transform="translate(172.265625 0.78125)" xlink:href="#DejaVuSans-936"/>
     <use transform="translate(251.933594 -15.625)scale(0.7)" xlink:href="#DejaVuSans-48"/>
     <use transform="translate(318.686523 0.78125)" xlink:href="#DejaVuSans-61"/>
     <use transform="translate(421.958008 0.78125)" xlink:href="#DejaVuSans-48"/>
     <use transform="translate(485.581055 0.78125)" xlink:href="#DejaVuSans-46"/>
     <use transform="translate(517.368164 0.78125)" xlink:href="#DejaVuSans-49"/>
    </g>
   </g>
  </g>
  <g id="axes_2">
   <g id="patch_7">
    <path d="M 414.389688 116.29625 
L 598.948221 116.29625 
L 598.948221 31.43625 
L 414.389688 31.43625 
z
" style="fill:#ffffff;"/>
   </g>
   <g id="matplotlib.axis_3">
    <g id="xtick_4">
     <g id="line2d_15">
      <g>
       <use style="fill:#262626;stroke:#262626;stroke-width:2.5;" x="422.778712" xlink:href="#m3085d6a04e" y="116.29625"/>
      </g>
     </g>
     <g id="text_10">
      <!-- 0 -->
      <g style="fill:#262626;" transform="translate(415.779962 148.512813)scale(0.22 -0.22)">
       <use xlink:href="#DejaVuSans-48"/>
      </g>
     </g>
    </g>
    <g id="xtick_5">
     <g id="line2d_16">
      <g>
       <use style="fill:#262626;stroke:#262626;stroke-width:2.5;" x="506.668954" xlink:href="#m3085d6a04e" y="116.29625"/>
      </g>
     </g>
     <g id="text_11">
      <!-- 5 -->
      <g style="fill:#262626;" transform="translate(499.670204 148.512813)scale(0.22 -0.22)">
       <use xlink:href="#DejaVuSans-53"/>
      </g>
     </g>
    </g>
    <g id="xtick_6">
     <g id="line2d_17">
      <g>
       <use style="fill:#262626;stroke:#262626;stroke-width:2.5;" x="590.559196" xlink:href="#m3085d6a04e" y="116.29625"/>
      </g>
     </g>
     <g id="text_12">
      <!-- 10 -->
      <g style="fill:#262626;" transform="translate(576.561696 148.512813)scale(0.22 -0.22)">
       <use xlink:href="#DejaVuSans-49"/>
       <use x="63.623047" xlink:href="#DejaVuSans-48"/>
      </g>
     </g>
    </g>
    <g id="text_13">
     <!-- fb strength $\beta_0$(IFN) -->
     <g style="fill:#262626;" transform="translate(394.228954 175.568125)scale(0.24 -0.24)">
      <use transform="translate(0 0.390625)" xlink:href="#DejaVuSans-102"/>
      <use transform="translate(35.205078 0.390625)" xlink:href="#DejaVuSans-98"/>
      <use transform="translate(98.681641 0.390625)" xlink:href="#DejaVuSans-32"/>
      <use transform="translate(130.46875 0.390625)" xlink:href="#DejaVuSans-115"/>
      <use transform="translate(182.568359 0.390625)" xlink:href="#DejaVuSans-116"/>
      <use transform="translate(221.777344 0.390625)" xlink:href="#DejaVuSans-114"/>
      <use transform="translate(262.890625 0.390625)" xlink:href="#DejaVuSans-101"/>
      <use transform="translate(324.414062 0.390625)" xlink:href="#DejaVuSans-110"/>
      <use transform="translate(387.792969 0.390625)" xlink:href="#DejaVuSans-103"/>
      <use transform="translate(451.269531 0.390625)" xlink:href="#DejaVuSans-116"/>
      <use transform="translate(490.478516 0.390625)" xlink:href="#DejaVuSans-104"/>
      <use transform="translate(553.857422 0.390625)" xlink:href="#DejaVuSans-32"/>
      <use transform="translate(585.644531 0.390625)" xlink:href="#DejaVuSans-Oblique-946"/>
      <use transform="translate(649.462891 -16.015625)scale(0.7)" xlink:href="#DejaVuSans-48"/>
      <use transform="translate(696.733398 0.390625)" xlink:href="#DejaVuSans-40"/>
      <use transform="translate(735.74707 0.390625)" xlink:href="#DejaVuSans-73"/>
      <use transform="translate(765.239258 0.390625)" xlink:href="#DejaVuSans-70"/>
      <use transform="translate(822.758789 0.390625)" xlink:href="#DejaVuSans-78"/>
      <use transform="translate(897.563477 0.390625)" xlink:href="#DejaVuSans-41"/>
     </g>
    </g>
   </g>
   <g id="matplotlib.axis_4">
    <g id="ytick_4">
     <g id="line2d_18">
      <g>
       <use style="fill:#262626;stroke:#262626;stroke-width:2.5;" x="414.389688" xlink:href="#m00e7ec41ae" y="116.29625"/>
      </g>
     </g>
     <g id="text_14">
      <!-- −0.5 -->
      <g style="fill:#262626;" transform="translate(345.4675 124.654531)scale(0.22 -0.22)">
       <use xlink:href="#DejaVuSans-8722"/>
       <use x="83.789062" xlink:href="#DejaVuSans-48"/>
       <use x="147.412109" xlink:href="#DejaVuSans-46"/>
       <use x="179.199219" xlink:href="#DejaVuSans-53"/>
      </g>
     </g>
    </g>
    <g id="ytick_5">
     <g id="line2d_19">
      <g>
       <use style="fill:#262626;stroke:#262626;stroke-width:2.5;" x="414.389688" xlink:href="#m00e7ec41ae" y="73.86625"/>
      </g>
     </g>
     <g id="text_15">
      <!-- 0.0 -->
      <g style="fill:#262626;" transform="translate(363.902813 82.224531)scale(0.22 -0.22)">
       <use xlink:href="#DejaVuSans-48"/>
       <use x="63.623047" xlink:href="#DejaVuSans-46"/>
       <use x="95.410156" xlink:href="#DejaVuSans-48"/>
      </g>
     </g>
    </g>
    <g id="ytick_6">
     <g id="line2d_20">
      <g>
       <use style="fill:#262626;stroke:#262626;stroke-width:2.5;" x="414.389688" xlink:href="#m00e7ec41ae" y="31.43625"/>
      </g>
     </g>
     <g id="text_16">
      <!-- 0.5 -->
      <g style="fill:#262626;" transform="translate(363.902813 39.794531)scale(0.22 -0.22)">
       <use xlink:href="#DejaVuSans-48"/>
       <use x="63.623047" xlink:href="#DejaVuSans-46"/>
       <use x="95.410156" xlink:href="#DejaVuSans-53"/>
      </g>
     </g>
    </g>
    <g id="text_17">
     <!-- log2FC -->
     <g style="fill:#262626;" transform="translate(336.47625 115.076875)rotate(-90)scale(0.24 -0.24)">
      <use xlink:href="#DejaVuSans-108"/>
      <use x="27.783203" xlink:href="#DejaVuSans-111"/>
      <use x="88.964844" xlink:href="#DejaVuSans-103"/>
      <use x="152.441406" xlink:href="#DejaVuSans-50"/>
      <use x="216.064453" xlink:href="#DejaVuSans-70"/>
      <use x="273.583984" xlink:href="#DejaVuSans-67"/>
     </g>
    </g>
   </g>
   <g id="line2d_21">
    <path clip-path="url(#p06143697ef)" d="M 422.778712 73.86625 
L 426.202803 73.574224 
L 429.626895 73.280775 
L 433.050986 72.985901 
L 436.475078 72.6896 
L 439.899169 72.391869 
L 443.323261 72.092708 
L 446.747352 71.792114 
L 450.171444 71.490086 
L 453.595535 71.186625 
L 457.019627 70.88173 
L 460.443718 70.575402 
L 463.86781 70.267641 
L 467.291902 69.958449 
L 470.715993 69.647827 
L 474.140085 69.335567 
L 477.564176 69.021363 
L 480.988268 68.705713 
L 484.412359 68.38862 
L 487.836451 68.070087 
L 491.260542 67.75012 
L 494.684634 67.428723 
L 498.108725 67.105902 
L 501.532817 66.781664 
L 504.956908 66.456015 
L 508.381 66.128965 
L 511.805091 65.800521 
L 515.229183 65.470693 
L 518.653274 65.13893 
L 522.077366 64.805321 
L 525.501457 64.470323 
L 528.925549 64.13395 
L 532.34964 63.796215 
L 535.773732 63.457131 
L 539.197823 63.116712 
L 542.621915 62.774976 
L 546.046007 62.431938 
L 549.470098 62.087617 
L 552.89419 61.741679 
L 556.318281 61.39348 
L 559.742373 61.04401 
L 563.166464 60.693288 
L 566.590556 60.341339 
L 570.014647 59.988185 
L 573.438739 59.633852 
L 576.86283 59.278366 
L 580.286922 58.921754 
L 583.711013 58.563139 
L 587.135105 58.20262 
L 590.559196 57.841006 
" style="fill:none;stroke:#1a1a1a;stroke-linecap:round;stroke-width:4;"/>
   </g>
   <g id="line2d_22">
    <path clip-path="url(#p06143697ef)" d="M 422.778712 116.29625 
L 422.778712 31.43625 
" style="fill:none;stroke:#7f7f7f;stroke-dasharray:7.4,3.2;stroke-dashoffset:0;stroke-width:2;"/>
   </g>
   <g id="line2d_23">
    <path clip-path="url(#p06143697ef)" d="M 422.778712 73.86625 
L 426.202803 73.866362 
L 429.626895 73.866342 
L 433.050986 73.866342 
L 436.475078 73.866336 
L 439.899169 73.866382 
L 443.323261 73.866274 
L 446.747352 73.866314 
L 450.171444 73.866296 
L 453.595535 73.866193 
L 457.019627 73.866383 
L 460.443718 73.86635 
L 463.86781 73.866313 
L 467.291902 73.866349 
L 470.715993 73.866322 
L 474.140085 73.866273 
L 477.564176 73.866217 
L 480.988268 73.866308 
L 484.412359 73.866295 
L 487.836451 73.866383 
L 491.260542 73.866349 
L 494.684634 73.866322 
L 498.108725 73.866292 
L 501.532817 73.866329 
L 504.956908 73.866329 
L 508.381 73.866339 
L 511.805091 73.866307 
L 515.229183 73.866357 
L 518.653274 73.866261 
L 522.077366 73.866371 
L 525.501457 73.866349 
L 528.925549 73.866296 
L 532.34964 73.866326 
L 535.773732 73.866319 
L 539.197823 73.86632 
L 542.621915 73.866343 
L 546.046007 73.866321 
L 549.470098 73.866263 
L 552.89419 73.866235 
L 556.318281 73.86632 
L 559.742373 73.866281 
L 563.166464 73.866219 
L 566.590556 73.866292 
L 570.014647 73.86633 
L 573.438739 73.866353 
L 576.86283 73.866298 
L 580.286922 73.866323 
L 583.711013 73.866311 
L 587.135105 73.866306 
L 590.559196 73.866289 
" style="fill:none;stroke:#7f7f7f;stroke-linecap:round;stroke-width:4;"/>
   </g>
   <g id="line2d_24">
    <path clip-path="url(#p06143697ef)" d="M 422.778712 116.29625 
L 422.778712 31.43625 
" style="fill:none;stroke:#7f7f7f;stroke-dasharray:7.4,3.2;stroke-dashoffset:0;stroke-width:2;"/>
   </g>
   <g id="line2d_25">
    <path clip-path="url(#p06143697ef)" d="M 422.778712 73.86625 
L 426.202803 73.516201 
L 429.626895 73.165044 
L 433.050986 72.80911 
L 436.475078 72.445476 
L 439.899169 72.080825 
L 443.323261 71.715157 
L 446.747352 71.348477 
L 450.171444 70.980786 
L 453.595535 70.61209 
L 457.019627 70.242391 
L 460.443718 69.871696 
L 463.86781 69.50001 
L 467.291902 69.127337 
L 470.715993 68.753687 
L 474.140085 68.37878 
L 477.564176 68.002215 
L 480.988268 67.624663 
L 484.412359 67.246134 
L 487.836451 66.856324 
L 491.260542 66.465575 
L 494.684634 66.073984 
L 498.108725 65.681565 
L 501.532817 65.28833 
L 504.956908 64.894293 
L 508.381 64.499469 
L 511.805091 64.103872 
L 515.229183 63.70752 
L 518.653274 63.309671 
L 522.077366 62.910453 
L 525.501457 62.510489 
L 528.925549 62.109799 
L 532.34964 61.706021 
L 535.773732 61.293669 
L 539.197823 60.880785 
L 542.621915 60.467394 
L 546.046007 60.053522 
L 549.470098 59.639195 
L 552.89419 59.223963 
L 556.318281 58.806956 
L 559.742373 58.389523 
L 563.166464 57.971694 
L 566.590556 57.553501 
L 570.014647 57.134978 
L 573.438739 56.716159 
L 576.86283 56.290075 
L 580.286922 55.860894 
L 583.711013 55.430447 
L 587.135105 54.998877 
L 590.559196 54.56729 
" style="fill:none;stroke:#d62728;stroke-linecap:round;stroke-width:4;"/>
   </g>
   <g id="line2d_26">
    <path clip-path="url(#p06143697ef)" d="M 422.778712 116.29625 
L 422.778712 31.43625 
" style="fill:none;stroke:#7f7f7f;stroke-dasharray:7.4,3.2;stroke-dashoffset:0;stroke-width:2;"/>
   </g>
   <g id="line2d_27">
    <path clip-path="url(#p06143697ef)" d="M 422.778712 73.86625 
L 426.202803 74.161162 
L 429.626895 74.457229 
L 433.050986 74.754132 
L 436.475078 75.052241 
L 439.899169 75.351549 
L 443.323261 75.65182 
L 446.747352 75.953091 
L 450.171444 76.255553 
L 453.595535 76.559208 
L 457.019627 76.863636 
L 460.443718 77.169212 
L 463.86781 77.475962 
L 467.291902 77.783764 
L 470.715993 78.092405 
L 474.140085 78.402345 
L 477.564176 78.713746 
L 480.988268 79.026049 
L 484.412359 79.339327 
L 487.836451 79.653759 
L 491.260542 79.96934 
L 494.684634 80.285661 
L 498.108725 80.603048 
L 501.532817 80.921565 
L 504.956908 81.241163 
L 508.381 81.56143 
L 511.805091 81.882808 
L 515.229183 82.205293 
L 518.653274 82.529051 
L 522.077366 82.853848 
L 525.501457 83.179733 
L 528.925549 83.506696 
L 532.34964 83.834481 
L 535.773732 84.163076 
L 539.197823 84.492718 
L 542.621915 84.823424 
L 546.046007 85.154785 
L 549.470098 85.487006 
L 552.89419 85.820451 
L 556.318281 86.155515 
L 559.742373 86.491113 
L 563.166464 86.827639 
L 566.590556 87.165154 
L 570.014647 87.503604 
L 573.438739 87.842482 
L 576.86283 88.182294 
L 580.286922 88.52303 
L 583.711013 88.8651 
L 587.135105 89.20812 
L 590.559196 89.552035 
" style="fill:none;stroke:#17becf;stroke-linecap:round;stroke-width:4;"/>
   </g>
   <g id="line2d_28">
    <path clip-path="url(#p06143697ef)" d="M 422.778712 116.29625 
L 422.778712 31.43625 
" style="fill:none;stroke:#7f7f7f;stroke-dasharray:7.4,3.2;stroke-dashoffset:0;stroke-width:2;"/>
   </g>
   <g id="patch_8">
    <path d="M 414.389688 116.29625 
L 414.389688 31.43625 
" style="fill:none;stroke:#262626;stroke-linecap:square;stroke-linejoin:miter;stroke-width:2.5;"/>
   </g>
   <g id="patch_9">
    <path d="M 598.948221 116.29625 
L 598.948221 31.43625 
" style="fill:none;stroke:#262626;stroke-linecap:square;stroke-linejoin:miter;stroke-width:2.5;"/>
   </g>
   <g id="patch_10">
    <path d="M 414.389688 116.29625 
L 598.948221 116.29625 
" style="fill:none;stroke:#262626;stroke-linecap:square;stroke-linejoin:miter;stroke-width:2.5;"/>
   </g>
   <g id="patch_11">
    <path d="M 414.389688 31.43625 
L 598.948221 31.43625 
" style="fill:none;stroke:#262626;stroke-linecap:square;stroke-linejoin:miter;stroke-width:2.5;"/>
   </g>
   <g id="text_18">
    <!-- SD $\Psi_0 = 1.0$ -->
    <g style="fill:#262626;" transform="translate(436.948954 25.43625)scale(0.24 -0.24)">
     <use transform="translate(0 0.78125)" xlink:href="#DejaVuSans-83"/>
     <use transform="translate(63.476562 0.78125)" xlink:href="#DejaVuSans-68"/>
     <use transform="translate(140.478516 0.78125)" xlink:href="#DejaVuSans-32"/>
     <use transform="translate(172.265625 0.78125)" xlink:href="#DejaVuSans-936"/>
     <use transform="translate(251.933594 -15.625)scale(0.7)" xlink:href="#DejaVuSans-48"/>
     <use transform="translate(318.686523 0.78125)" xlink:href="#DejaVuSans-61"/>
     <use transform="translate(421.958008 0.78125)" xlink:href="#DejaVuSans-49"/>
     <use transform="translate(485.581055 0.78125)" xlink:href="#DejaVuSans-46"/>
     <use transform="translate(517.368164 0.78125)" xlink:href="#DejaVuSans-48"/>
    </g>
   </g>
  </g>
 </g>
 <defs>
  <clipPath id="pca7f524643">
   <rect height="84.86" width="184.558533" x="103.349688" y="31.43625"/>
  </clipPath>
  <clipPath id="p06143697ef">
   <rect height="84.86" width="184.558533" x="414.389688" y="31.43625"/>
  </clipPath>
 </defs>
</svg>
