<?xml version="1.0" encoding="utf-8" standalone="no"?>
<!DOCTYPE svg PUBLIC "-//W3C//DTD SVG 1.1//EN"
  "http://www.w3.org/Graphics/SVG/1.1/DTD/svg11.dtd">
<!-- Created with matplotlib (https://matplotlib.org/) -->
<svg height="416.715625pt" version="1.1" viewBox="0 0 622.036152 416.715625" width="622.036152pt" xmlns="http://www.w3.org/2000/svg" xmlns:xlink="http://www.w3.org/1999/xlink">
 <defs>
  <style type="text/css">
*{stroke-linecap:butt;stroke-linejoin:round;}
  </style>
 </defs>
 <g id="figure_1">
  <g id="patch_1">
   <path d="M 0 416.715625 
L 622.036152 416.715625 
L 622.036152 0 
L 0 0 
z
" style="fill:#ffffff;"/>
  </g>
  <g id="axes_1">
   <g id="patch_2">
    <path d="M 117.347188 141.75625 
L 279.365117 141.75625 
L 279.365117 31.43625 
L 117.347188 31.43625 
z
" style="fill:#ffffff;"/>
   </g>
   <g id="matplotlib.axis_1">
    <g id="xtick_1">
     <g id="line2d_1">
      <defs>
       <path d="M 0 0 
L 0 12 
" id="m2df4583c53" style="stroke:#262626;stroke-width:2.5;"/>
      </defs>
      <g>
       <use style="fill:#262626;stroke:#262626;stroke-width:2.5;" x="124.711639" xlink:href="#m2df4583c53" y="141.75625"/>
      </g>
     </g>
     <g id="text_1">
      <!-- 0 -->
      <defs>
       <path d="M 31.78125 66.40625 
Q 24.171875 66.40625 20.328125 58.90625 
Q 16.5 51.421875 16.5 36.375 
Q 16.5 21.390625 20.328125 13.890625 
Q 24.171875 6.390625 31.78125 6.390625 
Q 39.453125 6.390625 43.28125 13.890625 
Q 47.125 21.390625 47.125 36.375 
Q 47.125 51.421875 43.28125 58.90625 
Q 39.453125 66.40625 31.78125 66.40625 
z
M 31.78125 74.21875 
Q 44.046875 74.21875 50.515625 64.515625 
Q 56.984375 54.828125 56.984375 36.375 
Q 56.984375 17.96875 50.515625 8.265625 
Q 44.046875 -1.421875 31.78125 -1.421875 
Q 19.53125 -1.421875 13.0625 8.265625 
Q 6.59375 17.96875 6.59375 36.375 
Q 6.59375 54.828125 13.0625 64.515625 
Q 19.53125 74.21875 31.78125 74.21875 
z
" id="DejaVuSans-48"/>
      </defs>
      <g style="fill:#262626;" transform="translate(117.712889 173.972812)scale(0.22 -0.22)">
       <use xlink:href="#DejaVuSans-48"/>
      </g>
     </g>
    </g>
    <g id="xtick_2">
     <g id="line2d_2">
      <g>
       <use style="fill:#262626;stroke:#262626;stroke-width:2.5;" x="198.356152" xlink:href="#m2df4583c53" y="141.75625"/>
      </g>
     </g>
     <g id="text_2">
      <!-- 5 -->
      <defs>
       <path d="M 10.796875 72.90625 
L 49.515625 72.90625 
L 49.515625 64.59375 
L 19.828125 64.59375 
L 19.828125 46.734375 
Q 21.96875 47.46875 24.109375 47.828125 
Q 26.265625 48.1875 28.421875 48.1875 
Q 40.625 48.1875 47.75 41.5 
Q 54.890625 34.8125 54.890625 23.390625 
Q 54.890625 11.625 47.5625 5.09375 
Q 40.234375 -1.421875 26.90625 -1.421875 
Q 22.3125 -1.421875 17.546875 -0.640625 
Q 12.796875 0.140625 7.71875 1.703125 
L 7.71875 11.625 
Q 12.109375 9.234375 16.796875 8.0625 
Q 21.484375 6.890625 26.703125 6.890625 
Q 35.15625 6.890625 40.078125 11.328125 
Q 45.015625 15.765625 45.015625 23.390625 
Q 45.015625 31 40.078125 35.4375 
Q 35.15625 39.890625 26.703125 39.890625 
Q 22.75 39.890625 18.8125 39.015625 
Q 14.890625 38.140625 10.796875 36.28125 
z
" id="DejaVuSans-53"/>
      </defs>
      <g style="fill:#262626;" transform="translate(191.357402 173.972812)scale(0.22 -0.22)">
       <use xlink:href="#DejaVuSans-53"/>
      </g>
     </g>
    </g>
    <g id="xtick_3">
     <g id="line2d_3">
      <g>
       <use style="fill:#262626;stroke:#262626;stroke-width:2.5;" x="272.000666" xlink:href="#m2df4583c53" y="141.75625"/>
      </g>
     </g>
     <g id="text_3">
      <!-- 10 -->
      <defs>
       <path d="M 12.40625 8.296875 
L 28.515625 8.296875 
L 28.515625 63.921875 
L 10.984375 60.40625 
L 10.984375 69.390625 
L 28.421875 72.90625 
L 38.28125 72.90625 
L 38.28125 8.296875 
L 54.390625 8.296875 
L 54.390625 0 
L 12.40625 0 
z
" id="DejaVuSans-49"/>
      </defs>
      <g style="fill:#262626;" transform="translate(258.003166 173.972812)scale(0.22 -0.22)">
       <use xlink:href="#DejaVuSans-49"/>
       <use x="63.623047" xlink:href="#DejaVuSans-48"/>
      </g>
     </g>
    </g>
    <g id="text_4">
     <!-- fb strength $\beta_0$(IFN) -->
     <defs>
      <path d="M 37.109375 75.984375 
L 37.109375 68.5 
L 28.515625 68.5 
Q 23.6875 68.5 21.796875 66.546875 
Q 19.921875 64.59375 19.921875 59.515625 
L 19.921875 54.6875 
L 34.71875 54.6875 
L 34.71875 47.703125 
L 19.921875 47.703125 
L 19.921875 0 
L 10.890625 0 
L 10.890625 47.703125 
L 2.296875 47.703125 
L 2.296875 54.6875 
L 10.890625 54.6875 
L 10.890625 58.5 
Q 10.890625 67.625 15.140625 71.796875 
Q 19.390625 75.984375 28.609375 75.984375 
z
" id="DejaVuSans-102"/>
      <path d="M 48.6875 27.296875 
Q 48.6875 37.203125 44.609375 42.84375 
Q 40.53125 48.484375 33.40625 48.484375 
Q 26.265625 48.484375 22.1875 42.84375 
Q 18.109375 37.203125 18.109375 27.296875 
Q 18.109375 17.390625 22.1875 11.75 
Q 26.265625 6.109375 33.40625 6.109375 
Q 40.53125 6.109375 44.609375 11.75 
Q 48.6875 17.390625 48.6875 27.296875 
z
M 18.109375 46.390625 
Q 20.953125 51.265625 25.265625 53.625 
Q 29.59375 56 35.59375 56 
Q 45.5625 56 51.78125 48.09375 
Q 58.015625 40.1875 58.015625 27.296875 
Q 58.015625 14.40625 51.78125 6.484375 
Q 45.5625 -1.421875 35.59375 -1.421875 
Q 29.59375 -1.421875 25.265625 0.953125 
Q 20.953125 3.328125 18.109375 8.203125 
L 18.109375 0 
L 9.078125 0 
L 9.078125 75.984375 
L 18.109375 75.984375 
z
" id="DejaVuSans-98"/>
      <path id="DejaVuSans-32"/>
      <path d="M 44.28125 53.078125 
L 44.28125 44.578125 
Q 40.484375 46.53125 36.375 47.5 
Q 32.28125 48.484375 27.875 48.484375 
Q 21.1875 48.484375 17.84375 46.4375 
Q 14.5 44.390625 14.5 40.28125 
Q 14.5 37.15625 16.890625 35.375 
Q 19.28125 33.59375 26.515625 31.984375 
L 29.59375 31.296875 
Q 39.15625 29.25 43.1875 25.515625 
Q 47.21875 21.78125 47.21875 15.09375 
Q 47.21875 7.46875 41.1875 3.015625 
Q 35.15625 -1.421875 24.609375 -1.421875 
Q 20.21875 -1.421875 15.453125 -0.5625 
Q 10.6875 0.296875 5.421875 2 
L 5.421875 11.28125 
Q 10.40625 8.6875 15.234375 7.390625 
Q 20.0625 6.109375 24.8125 6.109375 
Q 31.15625 6.109375 34.5625 8.28125 
Q 37.984375 10.453125 37.984375 14.40625 
Q 37.984375 18.0625 35.515625 20.015625 
Q 33.0625 21.96875 24.703125 23.78125 
L 21.578125 24.515625 
Q 13.234375 26.265625 9.515625 29.90625 
Q 5.8125 33.546875 5.8125 39.890625 
Q 5.8125 47.609375 11.28125 51.796875 
Q 16.75 56 26.8125 56 
Q 31.78125 56 36.171875 55.265625 
Q 40.578125 54.546875 44.28125 53.078125 
z
" id="DejaVuSans-115"/>
      <path d="M 18.3125 70.21875 
L 18.3125 54.6875 
L 36.8125 54.6875 
L 36.8125 47.703125 
L 18.3125 47.703125 
L 18.3125 18.015625 
Q 18.3125 11.328125 20.140625 9.421875 
Q 21.96875 7.515625 27.59375 7.515625 
L 36.8125 7.515625 
L 36.8125 0 
L 27.59375 0 
Q 17.1875 0 13.234375 3.875 
Q 9.28125 7.765625 9.28125 18.015625 
L 9.28125 47.703125 
L 2.6875 47.703125 
L 2.6875 54.6875 
L 9.28125 54.6875 
L 9.28125 70.21875 
z
" id="DejaVuSans-116"/>
      <path d="M 41.109375 46.296875 
Q 39.59375 47.171875 37.8125 47.578125 
Q 36.03125 48 33.890625 48 
Q 26.265625 48 22.1875 43.046875 
Q 18.109375 38.09375 18.109375 28.8125 
L 18.109375 0 
L 9.078125 0 
L 9.078125 54.6875 
L 18.109375 54.6875 
L 18.109375 46.1875 
Q 20.953125 51.171875 25.484375 53.578125 
Q 30.03125 56 36.53125 56 
Q 37.453125 56 38.578125 55.875 
Q 39.703125 55.765625 41.0625 55.515625 
z
" id="DejaVuSans-114"/>
      <path d="M 56.203125 29.59375 
L 56.203125 25.203125 
L 14.890625 25.203125 
Q 15.484375 15.921875 20.484375 11.0625 
Q 25.484375 6.203125 34.421875 6.203125 
Q 39.59375 6.203125 44.453125 7.46875 
Q 49.3125 8.734375 54.109375 11.28125 
L 54.109375 2.78125 
Q 49.265625 0.734375 44.1875 -0.34375 
Q 39.109375 -1.421875 33.890625 -1.421875 
Q 20.796875 -1.421875 13.15625 6.1875 
Q 5.515625 13.8125 5.515625 26.8125 
Q 5.515625 40.234375 12.765625 48.109375 
Q 20.015625 56 32.328125 56 
Q 43.359375 56 49.78125 48.890625 
Q 56.203125 41.796875 56.203125 29.59375 
z
M 47.21875 32.234375 
Q 47.125 39.59375 43.09375 43.984375 
Q 39.0625 48.390625 32.421875 48.390625 
Q 24.90625 48.390625 20.390625 44.140625 
Q 15.875 39.890625 15.1875 32.171875 
z
" id="DejaVuSans-101"/>
      <path d="M 54.890625 33.015625 
L 54.890625 0 
L 45.90625 0 
L 45.90625 32.71875 
Q 45.90625 40.484375 42.875 44.328125 
Q 39.84375 48.1875 33.796875 48.1875 
Q 26.515625 48.1875 22.3125 43.546875 
Q 18.109375 38.921875 18.109375 30.90625 
L 18.109375 0 
L 9.078125 0 
L 9.078125 54.6875 
L 18.109375 54.6875 
L 18.109375 46.1875 
Q 21.34375 51.125 25.703125 53.5625 
Q 30.078125 56 35.796875 56 
Q 45.21875 56 50.046875 50.171875 
Q 54.890625 44.34375 54.890625 33.015625 
z
" id="DejaVuSans-110"/>
      <path d="M 45.40625 27.984375 
Q 45.40625 37.75 41.375 43.109375 
Q 37.359375 48.484375 30.078125 48.484375 
Q 22.859375 48.484375 18.828125 43.109375 
Q 14.796875 37.75 14.796875 27.984375 
Q 14.796875 18.265625 18.828125 12.890625 
Q 22.859375 7.515625 30.078125 7.515625 
Q 37.359375 7.515625 41.375 12.890625 
Q 45.40625 18.265625 45.40625 27.984375 
z
M 54.390625 6.78125 
Q 54.390625 -7.171875 48.1875 -13.984375 
Q 42 -20.796875 29.203125 -20.796875 
Q 24.46875 -20.796875 20.265625 -20.09375 
Q 16.0625 -19.390625 12.109375 -17.921875 
L 12.109375 -9.1875 
Q 16.0625 -11.328125 19.921875 -12.34375 
Q 23.78125 -13.375 27.78125 -13.375 
Q 36.625 -13.375 41.015625 -8.765625 
Q 45.40625 -4.15625 45.40625 5.171875 
L 45.40625 9.625 
Q 42.625 4.78125 38.28125 2.390625 
Q 33.9375 0 27.875 0 
Q 17.828125 0 11.671875 7.65625 
Q 5.515625 15.328125 5.515625 27.984375 
Q 5.515625 40.671875 11.671875 48.328125 
Q 17.828125 56 27.875 56 
Q 33.9375 56 38.28125 53.609375 
Q 42.625 51.21875 45.40625 46.390625 
L 45.40625 54.6875 
L 54.390625 54.6875 
z
" id="DejaVuSans-103"/>
      <path d="M 54.890625 33.015625 
L 54.890625 0 
L 45.90625 0 
L 45.90625 32.71875 
Q 45.90625 40.484375 42.875 44.328125 
Q 39.84375 48.1875 33.796875 48.1875 
Q 26.515625 48.1875 22.3125 43.546875 
Q 18.109375 38.921875 18.109375 30.90625 
L 18.109375 0 
L 9.078125 0 
L 9.078125 75.984375 
L 18.109375 75.984375 
L 18.109375 46.1875 
Q 21.34375 51.125 25.703125 53.5625 
Q 30.078125 56 35.796875 56 
Q 45.21875 56 50.046875 50.171875 
Q 54.890625 44.34375 54.890625 33.015625 
z
" id="DejaVuSans-104"/>
      <path d="M 13.625 3.375 
L 8.9375 -20.796875 
L -0.09375 -20.796875 
L 14.5 54.34375 
Q 18.84375 76.609375 39.65625 76.609375 
Q 60.75 76.609375 57.171875 57.8125 
Q 54.734375 44.4375 45.21875 39.546875 
Q 58.015625 35.15625 55.515625 22.125 
Q 51.125 -1.078125 27.484375 -1.03125 
Q 17.140625 -0.984375 13.625 3.375 
z
M 15.921875 15.09375 
Q 19.671875 6.59375 29.296875 6.640625 
Q 43.359375 6.640625 46.34375 21.96875 
Q 49.03125 35.75 26.171875 34.671875 
L 27.78125 42.96875 
Q 45.453125 42.671875 48.53125 58.59375 
Q 50.640625 69.34375 39.203125 69.28125 
Q 26.421875 69.28125 23.484375 54.046875 
z
" id="DejaVuSans-Oblique-946"/>
      <path d="M 31 75.875 
Q 24.46875 64.65625 21.28125 53.65625 
Q 18.109375 42.671875 18.109375 31.390625 
Q 18.109375 20.125 21.3125 9.0625 
Q 24.515625 -2 31 -13.1875 
L 23.1875 -13.1875 
Q 15.875 -1.703125 12.234375 9.375 
Q 8.59375 20.453125 8.59375 31.390625 
Q 8.59375 42.28125 12.203125 53.3125 
Q 15.828125 64.359375 23.1875 75.875 
z
" id="DejaVuSans-40"/>
      <path d="M 9.8125 72.90625 
L 19.671875 72.90625 
L 19.671875 0 
L 9.8125 0 
z
" id="DejaVuSans-73"/>
      <path d="M 9.8125 72.90625 
L 51.703125 72.90625 
L 51.703125 64.59375 
L 19.671875 64.59375 
L 19.671875 43.109375 
L 48.578125 43.109375 
L 48.578125 34.8125 
L 19.671875 34.8125 
L 19.671875 0 
L 9.8125 0 
z
" id="DejaVuSans-70"/>
      <path d="M 9.8125 72.90625 
L 23.09375 72.90625 
L 55.421875 11.921875 
L 55.421875 72.90625 
L 64.984375 72.90625 
L 64.984375 0 
L 51.703125 0 
L 19.390625 60.984375 
L 19.390625 0 
L 9.8125 0 
z
" id="DejaVuSans-78"/>
      <path d="M 8.015625 75.875 
L 15.828125 75.875 
Q 23.140625 64.359375 26.78125 53.3125 
Q 30.421875 42.28125 30.421875 31.390625 
Q 30.421875 20.453125 26.78125 9.375 
Q 23.140625 -1.703125 15.828125 -13.1875 
L 8.015625 -13.1875 
Q 14.5 -2 17.703125 9.0625 
Q 20.90625 20.125 20.90625 31.390625 
Q 20.90625 42.671875 17.703125 53.65625 
Q 14.5 64.65625 8.015625 75.875 
z
" id="DejaVuSans-41"/>
     </defs>
     <g style="fill:#262626;" transform="translate(85.916152 201.028125)scale(0.24 -0.24)">
      <use transform="translate(0 0.390625)" xlink:href="#DejaVuSans-102"/>
      <use transform="translate(35.205078 0.390625)" xlink:href="#DejaVuSans-98"/>
      <use transform="translate(98.681641 0.390625)" xlink:href="#DejaVuSans-32"/>
      <use transform="translate(130.46875 0.390625)" xlink:href="#DejaVuSans-115"/>
      <use transform="translate(182.568359 0.390625)" xlink:href="#DejaVuSans-116"/>
      <use transform="translate(221.777344 0.390625)" xlink:href="#DejaVuSans-114"/>
      <use transform="translate(262.890625 0.390625)" xlink:href="#DejaVuSans-101"/>
      <use transform="translate(324.414062 0.390625)" xlink:href="#DejaVuSans-110"/>
      <use transform="translate(387.792969 0.390625)" xlink:href="#DejaVuSans-103"/>
      <use transform="translate(451.269531 0.390625)" xlink:href="#DejaVuSans-116"/>
      <use transform="translate(490.478516 0.390625)" xlink:href="#DejaVuSans-104"/>
      <use transform="translate(553.857422 0.390625)" xlink:href="#DejaVuSans-32"/>
      <use transform="translate(585.644531 0.390625)" xlink:href="#DejaVuSans-Oblique-946"/>
      <use transform="translate(649.462891 -16.015625)scale(0.7)" xlink:href="#DejaVuSans-48"/>
      <use transform="translate(696.733398 0.390625)" xlink:href="#DejaVuSans-40"/>
      <use transform="translate(735.74707 0.390625)" xlink:href="#DejaVuSans-73"/>
      <use transform="translate(765.239258 0.390625)" xlink:href="#DejaVuSans-70"/>
      <use transform="translate(822.758789 0.390625)" xlink:href="#DejaVuSans-78"/>
      <use transform="translate(897.563477 0.390625)" xlink:href="#DejaVuSans-41"/>
     </g>
    </g>
   </g>
   <g id="matplotlib.axis_2">
    <g id="ytick_1">
     <g id="line2d_4">
      <defs>
       <path d="M 0 0 
L -12 0 
" id="mdb89ce7a1f" style="stroke:#262626;stroke-width:2.5;"/>
      </defs>
      <g>
       <use style="fill:#262626;stroke:#262626;stroke-width:2.5;" x="117.347188" xlink:href="#mdb89ce7a1f" y="121.900405"/>
      </g>
     </g>
     <g id="text_5">
      <!-- −0.25 -->
      <defs>
       <path d="M 10.59375 35.5 
L 73.1875 35.5 
L 73.1875 27.203125 
L 10.59375 27.203125 
z
" id="DejaVuSans-8722"/>
       <path d="M 10.6875 12.40625 
L 21 12.40625 
L 21 0 
L 10.6875 0 
z
" id="DejaVuSans-46"/>
       <path d="M 19.1875 8.296875 
L 53.609375 8.296875 
L 53.609375 0 
L 7.328125 0 
L 7.328125 8.296875 
Q 12.9375 14.109375 22.625 23.890625 
Q 32.328125 33.6875 34.8125 36.53125 
Q 39.546875 41.84375 41.421875 45.53125 
Q 43.3125 49.21875 43.3125 52.78125 
Q 43.3125 58.59375 39.234375 62.25 
Q 35.15625 65.921875 28.609375 65.921875 
Q 23.96875 65.921875 18.8125 64.3125 
Q 13.671875 62.703125 7.8125 59.421875 
L 7.8125 69.390625 
Q 13.765625 71.78125 18.9375 73 
Q 24.125 74.21875 28.421875 74.21875 
Q 39.75 74.21875 46.484375 68.546875 
Q 53.21875 62.890625 53.21875 53.421875 
Q 53.21875 48.921875 51.53125 44.890625 
Q 49.859375 40.875 45.40625 35.40625 
Q 44.1875 33.984375 37.640625 27.21875 
Q 31.109375 20.453125 19.1875 8.296875 
z
" id="DejaVuSans-50"/>
      </defs>
      <g style="fill:#262626;" transform="translate(34.4275 130.258686)scale(0.22 -0.22)">
       <use xlink:href="#DejaVuSans-8722"/>
       <use x="83.789062" xlink:href="#DejaVuSans-48"/>
       <use x="147.412109" xlink:href="#DejaVuSans-46"/>
       <use x="179.199219" xlink:href="#DejaVuSans-50"/>
       <use x="242.822266" xlink:href="#DejaVuSans-53"/>
      </g>
     </g>
    </g>
    <g id="ytick_2">
     <g id="line2d_5">
      <g>
       <use style="fill:#262626;stroke:#262626;stroke-width:2.5;" x="117.347188" xlink:href="#mdb89ce7a1f" y="84.005541"/>
      </g>
     </g>
     <g id="text_6">
      <!-- 0.00 -->
      <g style="fill:#262626;" transform="translate(52.862813 92.363822)scale(0.22 -0.22)">
       <use xlink:href="#DejaVuSans-48"/>
       <use x="63.623047" xlink:href="#DejaVuSans-46"/>
       <use x="95.410156" xlink:href="#DejaVuSans-48"/>
       <use x="159.033203" xlink:href="#DejaVuSans-48"/>
      </g>
     </g>
    </g>
    <g id="ytick_3">
     <g id="line2d_6">
      <g>
       <use style="fill:#262626;stroke:#262626;stroke-width:2.5;" x="117.347188" xlink:href="#mdb89ce7a1f" y="46.110676"/>
      </g>
     </g>
     <g id="text_7">
      <!-- 0.25 -->
      <g style="fill:#262626;" transform="translate(52.862813 54.468957)scale(0.22 -0.22)">
       <use xlink:href="#DejaVuSans-48"/>
       <use x="63.623047" xlink:href="#DejaVuSans-46"/>
       <use x="95.410156" xlink:href="#DejaVuSans-50"/>
       <use x="159.033203" xlink:href="#DejaVuSans-53"/>
      </g>
     </g>
    </g>
    <g id="text_8">
     <!-- log2FC -->
     <defs>
      <path d="M 9.421875 75.984375 
L 18.40625 75.984375 
L 18.40625 0 
L 9.421875 0 
z
" id="DejaVuSans-108"/>
      <path d="M 30.609375 48.390625 
Q 23.390625 48.390625 19.1875 42.75 
Q 14.984375 37.109375 14.984375 27.296875 
Q 14.984375 17.484375 19.15625 11.84375 
Q 23.34375 6.203125 30.609375 6.203125 
Q 37.796875 6.203125 41.984375 11.859375 
Q 46.1875 17.53125 46.1875 27.296875 
Q 46.1875 37.015625 41.984375 42.703125 
Q 37.796875 48.390625 30.609375 48.390625 
z
M 30.609375 56 
Q 42.328125 56 49.015625 48.375 
Q 55.71875 40.765625 55.71875 27.296875 
Q 55.71875 13.875 49.015625 6.21875 
Q 42.328125 -1.421875 30.609375 -1.421875 
Q 18.84375 -1.421875 12.171875 6.21875 
Q 5.515625 13.875 5.515625 27.296875 
Q 5.515625 40.765625 12.171875 48.375 
Q 18.84375 56 30.609375 56 
z
" id="DejaVuSans-111"/>
      <path d="M 64.40625 67.28125 
L 64.40625 56.890625 
Q 59.421875 61.53125 53.78125 63.8125 
Q 48.140625 66.109375 41.796875 66.109375 
Q 29.296875 66.109375 22.65625 58.46875 
Q 16.015625 50.828125 16.015625 36.375 
Q 16.015625 21.96875 22.65625 14.328125 
Q 29.296875 6.6875 41.796875 6.6875 
Q 48.140625 6.6875 53.78125 8.984375 
Q 59.421875 11.28125 64.40625 15.921875 
L 64.40625 5.609375 
Q 59.234375 2.09375 53.4375 0.328125 
Q 47.65625 -1.421875 41.21875 -1.421875 
Q 24.65625 -1.421875 15.125 8.703125 
Q 5.609375 18.84375 5.609375 36.375 
Q 5.609375 53.953125 15.125 64.078125 
Q 24.65625 74.21875 41.21875 74.21875 
Q 47.75 74.21875 53.53125 72.484375 
Q 59.328125 70.75 64.40625 67.28125 
z
" id="DejaVuSans-67"/>
     </defs>
     <g style="fill:#262626;" transform="translate(25.43625 127.806875)rotate(-90)scale(0.24 -0.24)">
      <use xlink:href="#DejaVuSans-108"/>
      <use x="27.783203" xlink:href="#DejaVuSans-111"/>
      <use x="88.964844" xlink:href="#DejaVuSans-103"/>
      <use x="152.441406" xlink:href="#DejaVuSans-50"/>
      <use x="216.064453" xlink:href="#DejaVuSans-70"/>
      <use x="273.583984" xlink:href="#DejaVuSans-67"/>
     </g>
    </g>
   </g>
   <g id="line2d_7">
    <path clip-path="url(#paf7f97cef2)" d="M 124.711639 84.005541 
L 127.717537 82.687095 
L 130.723436 81.363561 
L 133.729334 80.048464 
L 136.735233 78.731837 
L 139.741131 77.423084 
L 142.74703 76.124671 
L 145.752928 74.837205 
L 148.758827 73.561422 
L 151.764725 72.298174 
L 154.770624 71.048501 
L 157.776522 69.813608 
L 160.782421 68.594956 
L 163.788319 67.394247 
L 166.794218 66.213568 
L 169.800116 65.055249 
L 172.806015 63.911304 
L 175.811914 62.779297 
L 178.817812 61.673164 
L 181.823711 60.596549 
L 184.829609 59.524443 
L 187.835508 58.473958 
L 190.841406 57.459249 
L 193.847305 56.444368 
L 196.853203 55.456394 
L 199.859102 54.501953 
L 202.865 53.539775 
L 205.870899 52.626218 
L 208.876797 51.704008 
L 211.882696 50.820792 
L 214.888594 49.944018 
L 217.894493 49.092614 
L 220.900391 48.255369 
L 223.90629 47.438344 
L 226.912188 46.634529 
L 229.918087 45.855709 
L 232.923985 45.079105 
L 235.929884 44.343784 
L 238.935782 43.588096 
L 241.941681 42.897242 
L 244.947579 42.162099 
L 247.953478 41.484242 
L 250.959376 40.803574 
L 253.965275 40.132417 
L 256.971173 39.517112 
L 259.977072 38.846295 
L 262.98297 38.234441 
L 265.988869 37.632837 
L 268.994767 37.013749 
L 272.000666 36.450795 
" style="fill:none;stroke:#1a1a1a;stroke-linecap:round;stroke-width:4;"/>
   </g>
   <g id="line2d_8">
    <path clip-path="url(#paf7f97cef2)" d="M 124.711639 141.75625 
L 124.711639 31.43625 
" style="fill:none;stroke:#7f7f7f;stroke-dasharray:7.4,3.2;stroke-dashoffset:0;stroke-width:2;"/>
   </g>
   <g id="line2d_9">
    <path clip-path="url(#paf7f97cef2)" d="M 124.711639 84.005541 
L 127.717537 84.005454 
L 130.723436 84.005459 
L 133.729334 84.005174 
L 136.735233 84.005204 
L 139.741131 84.005059 
L 142.74703 84.005093 
L 145.752928 84.005052 
L 148.758827 84.004887 
L 151.764725 84.004917 
L 154.770624 84.004778 
L 157.776522 84.00473 
L 160.782421 84.004607 
L 163.788319 84.004599 
L 166.794218 84.004552 
L 169.800116 84.004663 
L 172.806015 84.004453 
L 175.811914 84.004385 
L 178.817812 84.004308 
L 181.823711 84.004343 
L 184.829609 84.004206 
L 187.835508 84.00413 
L 190.841406 84.004292 
L 193.847305 84.004149 
L 196.853203 84.004133 
L 199.859102 84.004084 
L 202.865 84.004105 
L 205.870899 84.00395 
L 208.876797 84.003939 
L 211.882696 84.003993 
L 214.888594 84.00386 
L 217.894493 84.00393 
L 220.900391 84.004052 
L 223.90629 84.003871 
L 226.912188 84.003776 
L 229.918087 84.003919 
L 232.923985 84.003753 
L 235.929884 84.003549 
L 238.935782 84.003556 
L 241.941681 84.003574 
L 244.947579 84.00359 
L 247.953478 84.003599 
L 250.959376 84.003549 
L 253.965275 84.00342 
L 256.971173 84.003562 
L 259.977072 84.003549 
L 262.98297 84.003442 
L 265.988869 84.00345 
L 268.994767 84.003458 
L 272.000666 84.003382 
" style="fill:none;stroke:#7f7f7f;stroke-linecap:round;stroke-width:4;"/>
   </g>
   <g id="line2d_10">
    <path clip-path="url(#paf7f97cef2)" d="M 124.711639 141.75625 
L 124.711639 31.43625 
" style="fill:none;stroke:#7f7f7f;stroke-dasharray:7.4,3.2;stroke-dashoffset:0;stroke-width:2;"/>
   </g>
   <g id="line2d_11">
    <path clip-path="url(#paf7f97cef2)" d="M 124.711639 84.005541 
L 127.717537 83.680958 
L 130.723436 83.357024 
L 133.729334 83.039303 
L 136.735233 82.72443 
L 139.741131 82.415679 
L 142.74703 82.113876 
L 145.752928 81.819191 
L 148.758827 81.531839 
L 151.764725 81.252069 
L 154.770624 80.980466 
L 157.776522 80.717744 
L 160.782421 80.464073 
L 163.788319 80.219952 
L 166.794218 79.985995 
L 169.800116 79.762888 
L 172.806015 79.54786 
L 175.811914 79.340029 
L 178.817812 79.143936 
L 181.823711 78.960652 
L 184.829609 78.781844 
L 187.835508 78.613055 
L 190.841406 78.460276 
L 193.847305 78.310597 
L 196.853203 78.172428 
L 199.859102 78.047689 
L 202.865 77.923255 
L 205.870899 77.816688 
L 208.876797 77.709984 
L 211.882696 77.617814 
L 214.888594 77.529998 
L 217.894493 77.45222 
L 220.900391 77.380937 
L 223.90629 77.317861 
L 226.912188 77.260768 
L 229.918087 77.213041 
L 232.923985 77.167841 
L 235.929884 77.136492 
L 238.935782 77.100926 
L 241.941681 77.085672 
L 244.947579 77.059264 
L 247.953478 77.050648 
L 250.959376 77.042603 
L 253.965275 77.038554 
L 256.971173 77.051211 
L 259.977072 77.049718 
L 262.98297 77.065502 
L 265.988869 77.085045 
L 268.994767 77.100856 
L 272.000666 77.132538 
" style="fill:none;stroke:#d62728;stroke-linecap:round;stroke-width:4;"/>
   </g>
   <g id="line2d_12">
    <path clip-path="url(#paf7f97cef2)" d="M 124.711639 141.75625 
L 124.711639 31.43625 
" style="fill:none;stroke:#7f7f7f;stroke-dasharray:7.4,3.2;stroke-dashoffset:0;stroke-width:2;"/>
   </g>
   <g id="line2d_13">
    <path clip-path="url(#paf7f97cef2)" d="M 124.711639 84.005541 
L 127.717537 85.39242 
L 130.723436 86.78321 
L 133.729334 88.166401 
L 136.735233 89.551246 
L 139.741131 90.929819 
L 142.74703 92.300097 
L 145.752928 93.661868 
L 148.758827 95.014457 
L 151.764725 96.35728 
L 154.770624 97.689518 
L 157.776522 99.009847 
L 160.782421 100.31727 
L 163.788319 101.609842 
L 166.794218 102.885496 
L 169.800116 104.142149 
L 172.806015 105.386945 
L 175.811914 106.622092 
L 178.817812 107.834253 
L 181.823711 109.019626 
L 184.829609 110.201864 
L 187.835508 111.364516 
L 190.841406 112.493696 
L 193.847305 113.623748 
L 196.853203 114.728441 
L 199.859102 115.801243 
L 202.865 116.882104 
L 205.870899 117.915892 
L 208.876797 118.9581 
L 211.882696 119.962369 
L 214.888594 120.960552 
L 217.894493 121.933347 
L 220.900391 122.892565 
L 223.90629 123.831191 
L 226.912188 124.757111 
L 229.918087 125.657405 
L 232.923985 126.555884 
L 235.929884 127.412495 
L 238.935782 128.289697 
L 241.941681 129.101197 
L 244.947579 129.957661 
L 247.953478 130.755628 
L 250.959376 131.55661 
L 253.965275 132.348131 
L 256.971173 133.081978 
L 259.977072 133.873134 
L 262.98297 134.603544 
L 265.988869 135.323384 
L 268.994767 136.061806 
L 272.000666 136.741705 
" style="fill:none;stroke:#17becf;stroke-linecap:round;stroke-width:4;"/>
   </g>
   <g id="line2d_14">
    <path clip-path="url(#paf7f97cef2)" d="M 124.711639 141.75625 
L 124.711639 31.43625 
" style="fill:none;stroke:#7f7f7f;stroke-dasharray:7.4,3.2;stroke-dashoffset:0;stroke-width:2;"/>
   </g>
   <g id="patch_3">
    <path d="M 117.347188 141.75625 
L 117.347188 31.43625 
" style="fill:none;stroke:#262626;stroke-linecap:square;stroke-linejoin:miter;stroke-width:2.5;"/>
   </g>
   <g id="patch_4">
    <path d="M 279.365117 141.75625 
L 279.365117 31.43625 
" style="fill:none;stroke:#262626;stroke-linecap:square;stroke-linejoin:miter;stroke-width:2.5;"/>
   </g>
   <g id="patch_5">
    <path d="M 117.347188 141.75625 
L 279.365117 141.75625 
" style="fill:none;stroke:#262626;stroke-linecap:square;stroke-linejoin:miter;stroke-width:2.5;"/>
   </g>
   <g id="patch_6">
    <path d="M 117.347188 31.43625 
L 279.365117 31.43625 
" style="fill:none;stroke:#262626;stroke-linecap:square;stroke-linejoin:miter;stroke-width:2.5;"/>
   </g>
   <g id="text_9">
    <!-- SD $\Psi_0 = 0.1$ -->
    <defs>
     <path d="M 53.515625 70.515625 
L 53.515625 60.890625 
Q 47.90625 63.578125 42.921875 64.890625 
Q 37.9375 66.21875 33.296875 66.21875 
Q 25.25 66.21875 20.875 63.09375 
Q 16.5 59.96875 16.5 54.203125 
Q 16.5 49.359375 19.40625 46.890625 
Q 22.3125 44.4375 30.421875 42.921875 
L 36.375 41.703125 
Q 47.40625 39.59375 52.65625 34.296875 
Q 57.90625 29 57.90625 20.125 
Q 57.90625 9.515625 50.796875 4.046875 
Q 43.703125 -1.421875 29.984375 -1.421875 
Q 24.8125 -1.421875 18.96875 -0.25 
Q 13.140625 0.921875 6.890625 3.21875 
L 6.890625 13.375 
Q 12.890625 10.015625 18.65625 8.296875 
Q 24.421875 6.59375 29.984375 6.59375 
Q 38.421875 6.59375 43.015625 9.90625 
Q 47.609375 13.234375 47.609375 19.390625 
Q 47.609375 24.75 44.3125 27.78125 
Q 41.015625 30.8125 33.5 32.328125 
L 27.484375 33.5 
Q 16.453125 35.6875 11.515625 40.375 
Q 6.59375 45.0625 6.59375 53.421875 
Q 6.59375 63.09375 13.40625 68.65625 
Q 20.21875 74.21875 32.171875 74.21875 
Q 37.3125 74.21875 42.625 73.28125 
Q 47.953125 72.359375 53.515625 70.515625 
z
" id="DejaVuSans-83"/>
     <path d="M 19.671875 64.796875 
L 19.671875 8.109375 
L 31.59375 8.109375 
Q 46.6875 8.109375 53.6875 14.9375 
Q 60.6875 21.78125 60.6875 36.53125 
Q 60.6875 51.171875 53.6875 57.984375 
Q 46.6875 64.796875 31.59375 64.796875 
z
M 9.8125 72.90625 
L 30.078125 72.90625 
Q 51.265625 72.90625 61.171875 64.09375 
Q 71.09375 55.28125 71.09375 36.53125 
Q 71.09375 17.671875 61.125 8.828125 
Q 51.171875 0 30.078125 0 
L 9.8125 0 
z
" id="DejaVuSans-68"/>
     <path d="M 34.46875 0 
Q 34.515625 6.546875 34.46875 15.140625 
Q 24.03125 15.140625 14.84375 25.390625 
Q 5.859375 35.359375 5.609375 52.9375 
L 5.609375 72.90625 
L 16.015625 72.90625 
L 16.015625 52.9375 
Q 16.015625 39.15625 22.359375 31.15625 
Q 27.734375 24.3125 34.46875 23.640625 
L 34.46875 72.90625 
L 44.34375 72.90625 
L 44.34375 23.640625 
Q 51.078125 24.3125 56.453125 31.15625 
Q 62.796875 39.15625 62.796875 52.9375 
L 62.796875 72.90625 
L 73.1875 72.90625 
L 73.1875 52.9375 
Q 72.953125 35.359375 63.96875 25.390625 
Q 54.78125 15.140625 44.34375 15.140625 
Q 44.28125 11.625 44.34375 0 
z
" id="DejaVuSans-936"/>
     <path d="M 10.59375 45.40625 
L 73.1875 45.40625 
L 73.1875 37.203125 
L 10.59375 37.203125 
z
M 10.59375 25.484375 
L 73.1875 25.484375 
L 73.1875 17.1875 
L 10.59375 17.1875 
z
" id="DejaVuSans-61"/>
    </defs>
    <g style="fill:#262626;" transform="translate(128.636152 25.43625)scale(0.24 -0.24)">
     <use transform="translate(0 0.78125)" xlink:href="#DejaVuSans-83"/>
     <use transform="translate(63.476562 0.78125)" xlink:href="#DejaVuSans-68"/>
     <use transform="translate(140.478516 0.78125)" xlink:href="#DejaVuSans-32"/>
     <use transform="translate(172.265625 0.78125)" xlink:href="#DejaVuSans-936"/>
     <use transform="translate(251.933594 -15.625)scale(0.7)" xlink:href="#DejaVuSans-48"/>
     <use transform="translate(318.686523 0.78125)" xlink:href="#DejaVuSans-61"/>
     <use transform="translate(421.958008 0.78125)" xlink:href="#DejaVuSans-48"/>
     <use transform="translate(485.581055 0.78125)" xlink:href="#DejaVuSans-46"/>
     <use transform="translate(517.368164 0.78125)" xlink:href="#DejaVuSans-49"/>
    </g>
   </g>
  </g>
  <g id="axes_2">
   <g id="patch_7">
    <path d="M 421.387188 141.75625 
L 583.405117 141.75625 
L 583.405117 31.43625 
L 421.387188 31.43625 
z
" style="fill:#ffffff;"/>
   </g>
   <g id="matplotlib.axis_3">
    <g id="xtick_4">
     <g id="line2d_15">
      <g>
       <use style="fill:#262626;stroke:#262626;stroke-width:2.5;" x="428.751639" xlink:href="#m2df4583c53" y="141.75625"/>
      </g>
     </g>
     <g id="text_10">
      <!-- 0 -->
      <g style="fill:#262626;" transform="translate(421.752889 173.972812)scale(0.22 -0.22)">
       <use xlink:href="#DejaVuSans-48"/>
      </g>
     </g>
    </g>
    <g id="xtick_5">
     <g id="line2d_16">
      <g>
       <use style="fill:#262626;stroke:#262626;stroke-width:2.5;" x="502.396152" xlink:href="#m2df4583c53" y="141.75625"/>
      </g>
     </g>
     <g id="text_11">
      <!-- 5 -->
      <g style="fill:#262626;" transform="translate(495.397402 173.972812)scale(0.22 -0.22)">
       <use xlink:href="#DejaVuSans-53"/>
      </g>
     </g>
    </g>
    <g id="xtick_6">
     <g id="line2d_17">
      <g>
       <use style="fill:#262626;stroke:#262626;stroke-width:2.5;" x="576.040666" xlink:href="#m2df4583c53" y="141.75625"/>
      </g>
     </g>
     <g id="text_12">
      <!-- 10 -->
      <g style="fill:#262626;" transform="translate(562.043166 173.972812)scale(0.22 -0.22)">
       <use xlink:href="#DejaVuSans-49"/>
       <use x="63.623047" xlink:href="#DejaVuSans-48"/>
      </g>
     </g>
    </g>
    <g id="text_13">
     <!-- fb strength $\beta_0$(IFN) -->
     <g style="fill:#262626;" transform="translate(389.956152 201.028125)scale(0.24 -0.24)">
      <use transform="translate(0 0.390625)" xlink:href="#DejaVuSans-102"/>
      <use transform="translate(35.205078 0.390625)" xlink:href="#DejaVuSans-98"/>
      <use transform="translate(98.681641 0.390625)" xlink:href="#DejaVuSans-32"/>
      <use transform="translate(130.46875 0.390625)" xlink:href="#DejaVuSans-115"/>
      <use transform="translate(182.568359 0.390625)" xlink:href="#DejaVuSans-116"/>
      <use transform="translate(221.777344 0.390625)" xlink:href="#DejaVuSans-114"/>
      <use transform="translate(262.890625 0.390625)" xlink:href="#DejaVuSans-101"/>
      <use transform="translate(324.414062 0.390625)" xlink:href="#DejaVuSans-110"/>
      <use transform="translate(387.792969 0.390625)" xlink:href="#DejaVuSans-103"/>
      <use transform="translate(451.269531 0.390625)" xlink:href="#DejaVuSans-116"/>
      <use transform="translate(490.478516 0.390625)" xlink:href="#DejaVuSans-104"/>
      <use transform="translate(553.857422 0.390625)" xlink:href="#DejaVuSans-32"/>
      <use transform="translate(585.644531 0.390625)" xlink:href="#DejaVuSans-Oblique-946"/>
      <use transform="translate(649.462891 -16.015625)scale(0.7)" xlink:href="#DejaVuSans-48"/>
      <use transform="translate(696.733398 0.390625)" xlink:href="#DejaVuSans-40"/>
      <use transform="translate(735.74707 0.390625)" xlink:href="#DejaVuSans-73"/>
      <use transform="translate(765.239258 0.390625)" xlink:href="#DejaVuSans-70"/>
      <use transform="translate(822.758789 0.390625)" xlink:href="#DejaVuSans-78"/>
      <use transform="translate(897.563477 0.390625)" xlink:href="#DejaVuSans-41"/>
     </g>
    </g>
   </g>
   <g id="matplotlib.axis_4">
    <g id="ytick_4">
     <g id="line2d_18">
      <g>
       <use style="fill:#262626;stroke:#262626;stroke-width:2.5;" x="421.387188" xlink:href="#mdb89ce7a1f" y="127.819287"/>
      </g>
     </g>
     <g id="text_14">
      <!-- −0.25 -->
      <g style="fill:#262626;" transform="translate(338.4675 136.177569)scale(0.22 -0.22)">
       <use xlink:href="#DejaVuSans-8722"/>
       <use x="83.789062" xlink:href="#DejaVuSans-48"/>
       <use x="147.412109" xlink:href="#DejaVuSans-46"/>
       <use x="179.199219" xlink:href="#DejaVuSans-50"/>
       <use x="242.822266" xlink:href="#DejaVuSans-53"/>
      </g>
     </g>
    </g>
    <g id="ytick_5">
     <g id="line2d_19">
      <g>
       <use style="fill:#262626;stroke:#262626;stroke-width:2.5;" x="421.387188" xlink:href="#mdb89ce7a1f" y="83.637701"/>
      </g>
     </g>
     <g id="text_15">
      <!-- 0.00 -->
      <g style="fill:#262626;" transform="translate(356.902813 91.995982)scale(0.22 -0.22)">
       <use xlink:href="#DejaVuSans-48"/>
       <use x="63.623047" xlink:href="#DejaVuSans-46"/>
       <use x="95.410156" xlink:href="#DejaVuSans-48"/>
       <use x="159.033203" xlink:href="#DejaVuSans-48"/>
      </g>
     </g>
    </g>
    <g id="ytick_6">
     <g id="line2d_20">
      <g>
       <use style="fill:#262626;stroke:#262626;stroke-width:2.5;" x="421.387188" xlink:href="#mdb89ce7a1f" y="39.456114"/>
      </g>
     </g>
     <g id="text_16">
      <!-- 0.25 -->
      <g style="fill:#262626;" transform="translate(356.902813 47.814395)scale(0.22 -0.22)">
       <use xlink:href="#DejaVuSans-48"/>
       <use x="63.623047" xlink:href="#DejaVuSans-46"/>
       <use x="95.410156" xlink:href="#DejaVuSans-50"/>
       <use x="159.033203" xlink:href="#DejaVuSans-53"/>
      </g>
     </g>
    </g>
    <g id="text_17">
     <!-- log2FC -->
     <g style="fill:#262626;" transform="translate(329.47625 127.806875)rotate(-90)scale(0.24 -0.24)">
      <use xlink:href="#DejaVuSans-108"/>
      <use x="27.783203" xlink:href="#DejaVuSans-111"/>
      <use x="88.964844" xlink:href="#DejaVuSans-103"/>
      <use x="152.441406" xlink:href="#DejaVuSans-50"/>
      <use x="216.064453" xlink:href="#DejaVuSans-70"/>
      <use x="273.583984" xlink:href="#DejaVuSans-67"/>
     </g>
    </g>
   </g>
   <g id="line2d_21">
    <path clip-path="url(#p0193fab92f)" d="M 428.751639 83.637701 
L 431.757537 82.582413 
L 434.763436 81.52902 
L 437.769334 80.4782 
L 440.775233 79.430305 
L 443.781131 78.385288 
L 446.78703 77.343938 
L 449.792928 76.306085 
L 452.798827 75.272304 
L 455.804725 74.243003 
L 458.810624 73.21782 
L 461.816522 72.198438 
L 464.822421 71.182826 
L 467.828319 70.174347 
L 470.834218 69.169657 
L 473.840116 68.172146 
L 476.846015 67.180587 
L 479.851914 66.194909 
L 482.857812 65.217509 
L 485.863711 64.244771 
L 488.869609 63.280378 
L 491.875508 62.32377 
L 494.881406 61.37309 
L 497.887305 60.431608 
L 500.893203 59.497493 
L 503.899102 58.570619 
L 506.905 57.6534 
L 509.910899 56.743543 
L 512.916797 55.841632 
L 515.922696 54.949739 
L 518.928594 54.065646 
L 521.934493 53.189571 
L 524.940391 52.323758 
L 527.94629 51.466654 
L 530.952188 50.61696 
L 533.958087 49.77767 
L 536.963985 48.948492 
L 539.969884 48.125414 
L 542.975782 47.312783 
L 545.981681 46.510649 
L 548.987579 45.715645 
L 551.993478 44.929504 
L 554.999376 44.153767 
L 558.005275 43.387473 
L 561.011173 42.627363 
L 564.017072 41.877469 
L 567.02297 41.137771 
L 570.028869 40.40504 
L 573.034767 39.680171 
L 576.040666 38.965203 
" style="fill:none;stroke:#1a1a1a;stroke-linecap:round;stroke-width:4;"/>
   </g>
   <g id="line2d_22">
    <path clip-path="url(#p0193fab92f)" d="M 428.751639 141.75625 
L 428.751639 31.43625 
" style="fill:none;stroke:#7f7f7f;stroke-dasharray:7.4,3.2;stroke-dashoffset:0;stroke-width:2;"/>
   </g>
   <g id="line2d_23">
    <path clip-path="url(#p0193fab92f)" d="M 428.751639 83.637701 
L 431.757537 83.637513 
L 434.763436 83.637231 
L 437.769334 83.637272 
L 440.775233 83.636601 
L 443.781131 83.636477 
L 446.78703 83.636358 
L 449.792928 83.635816 
L 452.798827 83.635603 
L 455.804725 83.635455 
L 458.810624 83.635134 
L 461.816522 83.635073 
L 464.822421 83.634651 
L 467.828319 83.634535 
L 470.834218 83.634208 
L 473.840116 83.634113 
L 476.846015 83.633984 
L 479.851914 83.633625 
L 482.857812 83.633606 
L 485.863711 83.633317 
L 488.869609 83.633226 
L 491.875508 83.633109 
L 494.881406 83.63277 
L 497.887305 83.632648 
L 500.893203 83.632476 
L 503.899102 83.632234 
L 506.905 83.63198 
L 509.910899 83.63208 
L 512.916797 83.631964 
L 515.922696 83.63165 
L 518.928594 83.631651 
L 521.934493 83.63149 
L 524.940391 83.631205 
L 527.94629 83.631124 
L 530.952188 83.630928 
L 533.958087 83.630838 
L 536.963985 83.630502 
L 539.969884 83.630551 
L 542.975782 83.630649 
L 545.981681 83.630268 
L 548.987579 83.629967 
L 551.993478 83.630024 
L 554.999376 83.629951 
L 558.005275 83.629799 
L 561.011173 83.629754 
L 564.017072 83.629562 
L 567.02297 83.629557 
L 570.028869 83.629218 
L 573.034767 83.629233 
L 576.040666 83.629034 
" style="fill:none;stroke:#7f7f7f;stroke-linecap:round;stroke-width:4;"/>
   </g>
   <g id="line2d_24">
    <path clip-path="url(#p0193fab92f)" d="M 428.751639 141.75625 
L 428.751639 31.43625 
" style="fill:none;stroke:#7f7f7f;stroke-dasharray:7.4,3.2;stroke-dashoffset:0;stroke-width:2;"/>
   </g>
   <g id="line2d_25">
    <path clip-path="url(#p0193fab92f)" d="M 428.751639 83.637701 
L 431.757537 82.368122 
L 434.763436 81.109207 
L 437.769334 79.841723 
L 440.775233 78.577495 
L 443.781131 77.325927 
L 446.78703 76.088031 
L 449.792928 74.863413 
L 452.798827 73.652762 
L 455.804725 72.44736 
L 458.810624 71.238651 
L 461.816522 70.046928 
L 464.822421 68.869054 
L 467.828319 67.709743 
L 470.834218 66.563974 
L 473.840116 65.43647 
L 476.846015 64.305868 
L 479.851914 63.188321 
L 482.857812 62.091039 
L 485.863711 61.008572 
L 488.869609 59.946057 
L 491.875508 58.902471 
L 494.881406 57.874963 
L 497.887305 56.848839 
L 500.893203 55.84107 
L 503.899102 54.851543 
L 506.905 53.883507 
L 509.910899 52.933458 
L 512.916797 52.002029 
L 515.922696 51.091947 
L 518.928594 50.19145 
L 521.934493 49.302488 
L 524.940391 48.435417 
L 527.94629 47.587796 
L 530.952188 46.75758 
L 533.958087 45.948785 
L 536.963985 45.160765 
L 539.969884 44.387714 
L 542.975782 43.634616 
L 545.981681 42.891982 
L 548.987579 42.165826 
L 551.993478 41.458377 
L 554.999376 40.771565 
L 558.005275 40.103839 
L 561.011173 39.450515 
L 564.017072 38.816961 
L 567.02297 38.202935 
L 570.028869 37.603849 
L 573.034767 37.02076 
L 576.040666 36.450795 
" style="fill:none;stroke:#d62728;stroke-linecap:round;stroke-width:4;"/>
   </g>
   <g id="line2d_26">
    <path clip-path="url(#p0193fab92f)" d="M 428.751639 141.75625 
L 428.751639 31.43625 
" style="fill:none;stroke:#7f7f7f;stroke-dasharray:7.4,3.2;stroke-dashoffset:0;stroke-width:2;"/>
   </g>
   <g id="line2d_27">
    <path clip-path="url(#p0193fab92f)" d="M 428.751639 83.637701 
L 431.757537 84.860413 
L 434.763436 86.081324 
L 437.769334 87.29999 
L 440.775233 88.516069 
L 443.781131 89.729485 
L 446.78703 90.939493 
L 449.792928 92.146288 
L 452.798827 93.349381 
L 455.804725 94.54803 
L 458.810624 95.742828 
L 461.816522 96.932316 
L 464.822421 98.117849 
L 467.828319 99.296921 
L 470.834218 100.472175 
L 473.840116 101.640604 
L 476.846015 102.803229 
L 479.851914 103.960192 
L 482.857812 105.10945 
L 485.863711 106.253856 
L 488.869609 107.390301 
L 491.875508 108.519214 
L 494.881406 109.642158 
L 497.887305 110.756502 
L 500.893203 111.863526 
L 503.899102 112.963385 
L 506.905 114.054045 
L 509.910899 115.137274 
L 512.916797 116.212677 
L 515.922696 117.278611 
L 518.928594 118.33662 
L 521.934493 119.386668 
L 524.940391 120.426863 
L 527.94629 121.458181 
L 530.952188 122.481976 
L 533.958087 123.495688 
L 536.963985 124.499653 
L 539.969884 125.496895 
L 542.975782 126.483816 
L 545.981681 127.460545 
L 548.987579 128.429972 
L 551.993478 129.389967 
L 554.999376 130.339925 
L 558.005275 131.280496 
L 561.011173 132.214039 
L 564.017072 133.137664 
L 567.02297 134.050762 
L 570.028869 134.95667 
L 573.034767 135.854134 
L 576.040666 136.741705 
" style="fill:none;stroke:#17becf;stroke-linecap:round;stroke-width:4;"/>
   </g>
   <g id="line2d_28">
    <path clip-path="url(#p0193fab92f)" d="M 428.751639 141.75625 
L 428.751639 31.43625 
" style="fill:none;stroke:#7f7f7f;stroke-dasharray:7.4,3.2;stroke-dashoffset:0;stroke-width:2;"/>
   </g>
   <g id="patch_8">
    <path d="M 421.387188 141.75625 
L 421.387188 31.43625 
" style="fill:none;stroke:#262626;stroke-linecap:square;stroke-linejoin:miter;stroke-width:2.5;"/>
   </g>
   <g id="patch_9">
    <path d="M 583.405117 141.75625 
L 583.405117 31.43625 
" style="fill:none;stroke:#262626;stroke-linecap:square;stroke-linejoin:miter;stroke-width:2.5;"/>
   </g>
   <g id="patch_10">
    <path d="M 421.387188 141.75625 
L 583.405117 141.75625 
" style="fill:none;stroke:#262626;stroke-linecap:square;stroke-linejoin:miter;stroke-width:2.5;"/>
   </g>
   <g id="patch_11">
    <path d="M 421.387188 31.43625 
L 583.405117 31.43625 
" style="fill:none;stroke:#262626;stroke-linecap:square;stroke-linejoin:miter;stroke-width:2.5;"/>
   </g>
   <g id="text_18">
    <!-- SD $\Psi_0 = 1.0$ -->
    <g style="fill:#262626;" transform="translate(432.676152 25.43625)scale(0.24 -0.24)">
     <use transform="translate(0 0.78125)" xlink:href="#DejaVuSans-83"/>
     <use transform="translate(63.476562 0.78125)" xlink:href="#DejaVuSans-68"/>
     <use transform="translate(140.478516 0.78125)" xlink:href="#DejaVuSans-32"/>
     <use transform="translate(172.265625 0.78125)" xlink:href="#DejaVuSans-936"/>
     <use transform="translate(251.933594 -15.625)scale(0.7)" xlink:href="#DejaVuSans-48"/>
     <use transform="translate(318.686523 0.78125)" xlink:href="#DejaVuSans-61"/>
     <use transform="translate(421.958008 0.78125)" xlink:href="#DejaVuSans-49"/>
     <use transform="translate(485.581055 0.78125)" xlink:href="#DejaVuSans-46"/>
     <use transform="translate(517.368164 0.78125)" xlink:href="#DejaVuSans-48"/>
    </g>
   </g>
  </g>
  <g id="axes_3">
   <g id="patch_12">
    <path d="M 117.347188 345.49625 
L 279.365117 345.49625 
L 279.365117 235.17625 
L 117.347188 235.17625 
z
" style="fill:#ffffff;"/>
   </g>
   <g id="matplotlib.axis_5">
    <g id="xtick_7">
     <g id="line2d_29">
      <g>
       <use style="fill:#262626;stroke:#262626;stroke-width:2.5;" x="117.347188" xlink:href="#m2df4583c53" y="345.49625"/>
      </g>
     </g>
     <g id="text_19">
      <!-- $\mathdefault{10^{0}}$ -->
      <g style="fill:#262626;" transform="translate(97.987188 377.712812)scale(0.22 -0.22)">
       <use transform="translate(0 0.765625)" xlink:href="#DejaVuSans-49"/>
       <use transform="translate(63.623047 0.765625)" xlink:href="#DejaVuSans-48"/>
       <use transform="translate(128.203125 39.046875)scale(0.7)" xlink:href="#DejaVuSans-48"/>
      </g>
     </g>
    </g>
    <g id="xtick_8">
     <g id="line2d_30">
      <g>
       <use style="fill:#262626;stroke:#262626;stroke-width:2.5;" x="198.356152" xlink:href="#m2df4583c53" y="345.49625"/>
      </g>
     </g>
     <g id="text_20">
      <!-- $\mathdefault{10^{1}}$ -->
      <g style="fill:#262626;" transform="translate(178.996152 377.712812)scale(0.22 -0.22)">
       <use transform="translate(0 0.684375)" xlink:href="#DejaVuSans-49"/>
       <use transform="translate(63.623047 0.684375)" xlink:href="#DejaVuSans-48"/>
       <use transform="translate(128.203125 38.965625)scale(0.7)" xlink:href="#DejaVuSans-49"/>
      </g>
     </g>
    </g>
    <g id="xtick_9">
     <g id="line2d_31">
      <g>
       <use style="fill:#262626;stroke:#262626;stroke-width:2.5;" x="279.365117" xlink:href="#m2df4583c53" y="345.49625"/>
      </g>
     </g>
     <g id="text_21">
      <!-- $\mathdefault{10^{2}}$ -->
      <g style="fill:#262626;" transform="translate(260.005117 377.712812)scale(0.22 -0.22)">
       <use transform="translate(0 0.765625)" xlink:href="#DejaVuSans-49"/>
       <use transform="translate(63.623047 0.765625)" xlink:href="#DejaVuSans-48"/>
       <use transform="translate(128.203125 39.046875)scale(0.7)" xlink:href="#DejaVuSans-50"/>
      </g>
     </g>
    </g>
    <g id="text_22">
     <!-- beta -->
     <defs>
      <path d="M 34.28125 27.484375 
Q 23.390625 27.484375 19.1875 25 
Q 14.984375 22.515625 14.984375 16.5 
Q 14.984375 11.71875 18.140625 8.90625 
Q 21.296875 6.109375 26.703125 6.109375 
Q 34.1875 6.109375 38.703125 11.40625 
Q 43.21875 16.703125 43.21875 25.484375 
L 43.21875 27.484375 
z
M 52.203125 31.203125 
L 52.203125 0 
L 43.21875 0 
L 43.21875 8.296875 
Q 40.140625 3.328125 35.546875 0.953125 
Q 30.953125 -1.421875 24.3125 -1.421875 
Q 15.921875 -1.421875 10.953125 3.296875 
Q 6 8.015625 6 15.921875 
Q 6 25.140625 12.171875 29.828125 
Q 18.359375 34.515625 30.609375 34.515625 
L 43.21875 34.515625 
L 43.21875 35.40625 
Q 43.21875 41.609375 39.140625 45 
Q 35.0625 48.390625 27.6875 48.390625 
Q 23 48.390625 18.546875 47.265625 
Q 14.109375 46.140625 10.015625 43.890625 
L 10.015625 52.203125 
Q 14.9375 54.109375 19.578125 55.046875 
Q 24.21875 56 28.609375 56 
Q 40.484375 56 46.34375 49.84375 
Q 52.203125 43.703125 52.203125 31.203125 
z
" id="DejaVuSans-97"/>
     </defs>
     <g style="fill:#262626;" transform="translate(171.296152 404.524375)scale(0.24 -0.24)">
      <use xlink:href="#DejaVuSans-98"/>
      <use x="63.476562" xlink:href="#DejaVuSans-101"/>
      <use x="125" xlink:href="#DejaVuSans-116"/>
      <use x="164.208984" xlink:href="#DejaVuSans-97"/>
     </g>
    </g>
   </g>
   <g id="matplotlib.axis_6">
    <g id="ytick_7">
     <g id="line2d_32">
      <g>
       <use style="fill:#262626;stroke:#262626;stroke-width:2.5;" x="117.347188" xlink:href="#mdb89ce7a1f" y="329.527241"/>
      </g>
     </g>
     <g id="text_23">
      <!-- −2.5 -->
      <g style="fill:#262626;" transform="translate(48.425 337.885522)scale(0.22 -0.22)">
       <use xlink:href="#DejaVuSans-8722"/>
       <use x="83.789062" xlink:href="#DejaVuSans-50"/>
       <use x="147.412109" xlink:href="#DejaVuSans-46"/>
       <use x="179.199219" xlink:href="#DejaVuSans-53"/>
      </g>
     </g>
    </g>
    <g id="ytick_8">
     <g id="line2d_33">
      <g>
       <use style="fill:#262626;stroke:#262626;stroke-width:2.5;" x="117.347188" xlink:href="#mdb89ce7a1f" y="289.96496"/>
      </g>
     </g>
     <g id="text_24">
      <!-- 0.0 -->
      <g style="fill:#262626;" transform="translate(66.860313 298.323242)scale(0.22 -0.22)">
       <use xlink:href="#DejaVuSans-48"/>
       <use x="63.623047" xlink:href="#DejaVuSans-46"/>
       <use x="95.410156" xlink:href="#DejaVuSans-48"/>
      </g>
     </g>
    </g>
    <g id="ytick_9">
     <g id="line2d_34">
      <g>
       <use style="fill:#262626;stroke:#262626;stroke-width:2.5;" x="117.347188" xlink:href="#mdb89ce7a1f" y="250.40268"/>
      </g>
     </g>
     <g id="text_25">
      <!-- 2.5 -->
      <g style="fill:#262626;" transform="translate(66.860313 258.760961)scale(0.22 -0.22)">
       <use xlink:href="#DejaVuSans-50"/>
       <use x="63.623047" xlink:href="#DejaVuSans-46"/>
       <use x="95.410156" xlink:href="#DejaVuSans-53"/>
      </g>
     </g>
    </g>
    <g id="text_26">
     <!-- log2FC -->
     <g style="fill:#262626;" transform="translate(39.43375 331.546875)rotate(-90)scale(0.24 -0.24)">
      <use xlink:href="#DejaVuSans-108"/>
      <use x="27.783203" xlink:href="#DejaVuSans-111"/>
      <use x="88.964844" xlink:href="#DejaVuSans-103"/>
      <use x="152.441406" xlink:href="#DejaVuSans-50"/>
      <use x="216.064453" xlink:href="#DejaVuSans-70"/>
      <use x="273.583984" xlink:href="#DejaVuSans-67"/>
     </g>
    </g>
   </g>
   <g id="line2d_35">
    <path clip-path="url(#pdf3f31775e)" d="M 117.347188 309.688371 
L 120.653676 308.344015 
L 123.960164 307.051976 
L 127.266653 305.812112 
L 130.573141 304.624137 
L 133.879629 303.487549 
L 137.186118 302.401653 
L 140.492606 301.365534 
L 143.799094 300.378301 
L 147.105583 299.438842 
L 150.412071 298.545802 
L 153.718559 297.698095 
L 157.025048 296.894145 
L 160.331536 296.132627 
L 163.638025 295.412143 
L 166.944513 294.731123 
L 170.251001 294.088123 
L 173.55749 293.48178 
L 176.863978 292.911359 
L 180.170466 292.377032 
L 183.476955 291.878846 
L 186.783443 291.416787 
L 190.089931 290.986091 
L 193.39642 290.577359 
L 196.702908 290.172579 
L 200.009397 289.751268 
L 203.315885 289.299462 
L 206.622373 288.816128 
L 209.928862 288.308059 
L 213.23535 287.787196 
L 216.541838 287.263861 
L 219.848327 286.745524 
L 223.154815 286.240309 
L 226.461303 285.752463 
L 229.767792 285.285283 
L 233.07428 284.840913 
L 236.380768 284.420137 
L 239.687257 284.025416 
L 242.993745 283.650148 
L 246.300234 283.297344 
L 249.606722 282.969069 
L 252.91321 282.661555 
L 256.219699 282.372974 
L 259.526187 282.111041 
L 262.832675 281.853847 
L 266.139164 281.619715 
L 269.445652 281.401746 
L 272.75214 281.19886 
L 276.058629 281.01761 
L 279.365117 280.835234 
" style="fill:none;stroke:#1a1a1a;stroke-linecap:round;stroke-width:4;"/>
   </g>
   <g id="line2d_36">
    <path clip-path="url(#pdf3f31775e)" d="M 198.356152 345.49625 
L 198.356152 235.17625 
" style="fill:none;stroke:#7f7f7f;stroke-dasharray:7.4,3.2;stroke-dashoffset:0;stroke-width:2;"/>
   </g>
   <g id="line2d_37">
    <path clip-path="url(#pdf3f31775e)" d="M 117.347188 289.96496 
L 279.365117 289.96496 
" style="fill:none;stroke:#7f7f7f;stroke-dasharray:7.4,3.2;stroke-dashoffset:0;stroke-width:2;"/>
   </g>
   <g id="line2d_38">
    <path clip-path="url(#pdf3f31775e)" d="M 117.347188 290.089592 
L 120.653676 290.05121 
L 123.960164 290.026817 
L 127.266653 290.010658 
L 130.573141 289.999564 
L 133.879629 289.9917 
L 137.186118 289.985959 
L 140.492606 289.981697 
L 143.799094 289.978433 
L 147.105583 289.975915 
L 150.412071 289.973892 
L 153.718559 289.972295 
L 157.025048 289.971025 
L 160.331536 289.969952 
L 163.638025 289.969064 
L 166.944513 289.968342 
L 170.251001 289.967707 
L 173.55749 289.967193 
L 176.863978 289.966737 
L 180.170466 289.966353 
L 183.476955 289.966019 
L 186.783443 289.965708 
L 190.089931 289.965472 
L 193.39642 289.965254 
L 196.702908 289.965047 
L 200.009397 289.964884 
L 203.315885 289.964731 
L 206.622373 289.964591 
L 209.928862 289.964471 
L 213.23535 289.964365 
L 216.541838 289.964269 
L 219.848327 289.964194 
L 223.154815 289.964106 
L 226.461303 289.964039 
L 229.767792 289.963988 
L 233.07428 289.963925 
L 236.380768 289.963863 
L 239.687257 289.963852 
L 242.993745 289.963811 
L 246.300234 289.963734 
L 249.606722 289.963722 
L 252.91321 289.963699 
L 256.219699 289.963662 
L 259.526187 289.963638 
L 262.832675 289.963627 
L 266.139164 289.963612 
L 269.445652 289.963594 
L 272.75214 289.963585 
L 276.058629 289.963542 
L 279.365117 289.963547 
" style="fill:none;stroke:#7f7f7f;stroke-linecap:round;stroke-width:4;"/>
   </g>
   <g id="line2d_39">
    <path clip-path="url(#pdf3f31775e)" d="M 198.356152 345.49625 
L 198.356152 235.17625 
" style="fill:none;stroke:#7f7f7f;stroke-dasharray:7.4,3.2;stroke-dashoffset:0;stroke-width:2;"/>
   </g>
   <g id="line2d_40">
    <path clip-path="url(#pdf3f31775e)" d="M 117.347188 289.96496 
L 279.365117 289.96496 
" style="fill:none;stroke:#7f7f7f;stroke-dasharray:7.4,3.2;stroke-dashoffset:0;stroke-width:2;"/>
   </g>
   <g id="line2d_41">
    <path clip-path="url(#pdf3f31775e)" d="M 117.347188 240.190795 
L 120.653676 242.131516 
L 123.960164 244.07659 
L 127.266653 246.026583 
L 130.573141 247.98205 
L 133.879629 249.943512 
L 137.186118 251.911461 
L 140.492606 253.886347 
L 143.799094 255.868662 
L 147.105583 257.858859 
L 150.412071 259.857342 
L 153.718559 261.864645 
L 157.025048 263.881194 
L 160.331536 265.907578 
L 163.638025 267.944459 
L 166.944513 269.992493 
L 170.251001 272.0523 
L 173.55749 274.124288 
L 176.863978 276.208615 
L 180.170466 278.305179 
L 183.476955 280.413169 
L 186.783443 282.5315 
L 190.089931 284.656907 
L 193.39642 286.784835 
L 196.702908 288.907891 
L 200.009397 291.018187 
L 203.315885 293.110573 
L 206.622373 295.184799 
L 209.928862 297.243392 
L 213.23535 299.29083 
L 216.541838 301.330595 
L 219.848327 303.36588 
L 223.154815 305.3997 
L 226.461303 307.434281 
L 229.767792 309.470105 
L 233.07428 311.509331 
L 236.380768 313.552356 
L 239.687257 315.601192 
L 242.993745 317.651016 
L 246.300234 319.706001 
L 249.606722 321.766385 
L 252.91321 323.830917 
L 256.219699 325.901205 
L 259.526187 327.9751 
L 262.832675 330.052425 
L 266.139164 332.129476 
L 269.445652 334.212382 
L 272.75214 336.299873 
L 276.058629 338.39247 
L 279.365117 340.481705 
" style="fill:none;stroke:#d62728;stroke-linecap:round;stroke-width:4;"/>
   </g>
   <g id="line2d_42">
    <path clip-path="url(#pdf3f31775e)" d="M 198.356152 345.49625 
L 198.356152 235.17625 
" style="fill:none;stroke:#7f7f7f;stroke-dasharray:7.4,3.2;stroke-dashoffset:0;stroke-width:2;"/>
   </g>
   <g id="line2d_43">
    <path clip-path="url(#pdf3f31775e)" d="M 117.347188 289.96496 
L 279.365117 289.96496 
" style="fill:none;stroke:#7f7f7f;stroke-dasharray:7.4,3.2;stroke-dashoffset:0;stroke-width:2;"/>
   </g>
   <g id="line2d_44">
    <path clip-path="url(#pdf3f31775e)" d="M 117.347188 257.930526 
L 120.653676 259.574852 
L 123.960164 261.209748 
L 127.266653 262.82912 
L 130.573141 264.429113 
L 133.879629 266.007014 
L 137.186118 267.560634 
L 140.492606 269.088041 
L 143.799094 270.587315 
L 147.105583 272.056599 
L 150.412071 273.494115 
L 153.718559 274.897958 
L 157.025048 276.266486 
L 160.331536 277.598062 
L 163.638025 278.891249 
L 166.944513 280.144852 
L 170.251001 281.357934 
L 173.55749 282.529662 
L 176.863978 283.659043 
L 180.170466 284.744589 
L 183.476955 285.784799 
L 186.783443 286.778253 
L 190.089931 287.727003 
L 193.39642 288.637462 
L 196.702908 289.524289 
L 200.009397 290.406583 
L 203.315885 291.300488 
L 206.622373 292.21239 
L 209.928862 293.141531 
L 213.23535 294.081005 
L 216.541838 295.023131 
L 219.848327 295.960774 
L 223.154815 296.884212 
L 226.461303 297.786812 
L 229.767792 298.663242 
L 233.07428 299.510327 
L 236.380768 300.327387 
L 239.687257 301.112369 
L 242.993745 301.875527 
L 246.300234 302.614577 
L 249.606722 303.327371 
L 252.91321 304.019665 
L 256.219699 304.693887 
L 259.526187 305.334681 
L 262.832675 305.978341 
L 266.139164 306.58824 
L 269.445652 307.172341 
L 272.75214 307.728112 
L 276.058629 308.237501 
L 279.365117 308.744945 
" style="fill:none;stroke:#17becf;stroke-linecap:round;stroke-width:4;"/>
   </g>
   <g id="line2d_45">
    <path clip-path="url(#pdf3f31775e)" d="M 198.356152 345.49625 
L 198.356152 235.17625 
" style="fill:none;stroke:#7f7f7f;stroke-dasharray:7.4,3.2;stroke-dashoffset:0;stroke-width:2;"/>
   </g>
   <g id="line2d_46">
    <path clip-path="url(#pdf3f31775e)" d="M 117.347188 289.96496 
L 279.365117 289.96496 
" style="fill:none;stroke:#7f7f7f;stroke-dasharray:7.4,3.2;stroke-dashoffset:0;stroke-width:2;"/>
   </g>
   <g id="patch_13">
    <path d="M 117.347188 345.49625 
L 117.347188 235.17625 
" style="fill:none;stroke:#262626;stroke-linecap:square;stroke-linejoin:miter;stroke-width:2.5;"/>
   </g>
   <g id="patch_14">
    <path d="M 279.365117 345.49625 
L 279.365117 235.17625 
" style="fill:none;stroke:#262626;stroke-linecap:square;stroke-linejoin:miter;stroke-width:2.5;"/>
   </g>
   <g id="patch_15">
    <path d="M 117.347188 345.49625 
L 279.365117 345.49625 
" style="fill:none;stroke:#262626;stroke-linecap:square;stroke-linejoin:miter;stroke-width:2.5;"/>
   </g>
   <g id="patch_16">
    <path d="M 117.347188 235.17625 
L 279.365117 235.17625 
" style="fill:none;stroke:#262626;stroke-linecap:square;stroke-linejoin:miter;stroke-width:2.5;"/>
   </g>
  </g>
  <g id="axes_4">
   <g id="patch_17">
    <path d="M 421.387188 345.49625 
L 583.405117 345.49625 
L 583.405117 235.17625 
L 421.387188 235.17625 
z
" style="fill:#ffffff;"/>
   </g>
   <g id="matplotlib.axis_7">
    <g id="xtick_10">
     <g id="line2d_47">
      <g>
       <use style="fill:#262626;stroke:#262626;stroke-width:2.5;" x="421.387188" xlink:href="#m2df4583c53" y="345.49625"/>
      </g>
     </g>
     <g id="text_27">
      <!-- $\mathdefault{10^{0}}$ -->
      <g style="fill:#262626;" transform="translate(402.027188 377.712812)scale(0.22 -0.22)">
       <use transform="translate(0 0.765625)" xlink:href="#DejaVuSans-49"/>
       <use transform="translate(63.623047 0.765625)" xlink:href="#DejaVuSans-48"/>
       <use transform="translate(128.203125 39.046875)scale(0.7)" xlink:href="#DejaVuSans-48"/>
      </g>
     </g>
    </g>
    <g id="xtick_11">
     <g id="line2d_48">
      <g>
       <use style="fill:#262626;stroke:#262626;stroke-width:2.5;" x="502.396152" xlink:href="#m2df4583c53" y="345.49625"/>
      </g>
     </g>
     <g id="text_28">
      <!-- $\mathdefault{10^{1}}$ -->
      <g style="fill:#262626;" transform="translate(483.036152 377.712812)scale(0.22 -0.22)">
       <use transform="translate(0 0.684375)" xlink:href="#DejaVuSans-49"/>
       <use transform="translate(63.623047 0.684375)" xlink:href="#DejaVuSans-48"/>
       <use transform="translate(128.203125 38.965625)scale(0.7)" xlink:href="#DejaVuSans-49"/>
      </g>
     </g>
    </g>
    <g id="xtick_12">
     <g id="line2d_49">
      <g>
       <use style="fill:#262626;stroke:#262626;stroke-width:2.5;" x="583.405117" xlink:href="#m2df4583c53" y="345.49625"/>
      </g>
     </g>
     <g id="text_29">
      <!-- $\mathdefault{10^{2}}$ -->
      <g style="fill:#262626;" transform="translate(564.045117 377.712812)scale(0.22 -0.22)">
       <use transform="translate(0 0.765625)" xlink:href="#DejaVuSans-49"/>
       <use transform="translate(63.623047 0.765625)" xlink:href="#DejaVuSans-48"/>
       <use transform="translate(128.203125 39.046875)scale(0.7)" xlink:href="#DejaVuSans-50"/>
      </g>
     </g>
    </g>
    <g id="text_30">
     <!-- beta -->
     <g style="fill:#262626;" transform="translate(475.336152 404.524375)scale(0.24 -0.24)">
      <use xlink:href="#DejaVuSans-98"/>
      <use x="63.476562" xlink:href="#DejaVuSans-101"/>
      <use x="125" xlink:href="#DejaVuSans-116"/>
      <use x="164.208984" xlink:href="#DejaVuSans-97"/>
     </g>
    </g>
   </g>
   <g id="matplotlib.axis_8">
    <g id="ytick_10">
     <g id="line2d_50">
      <g>
       <use style="fill:#262626;stroke:#262626;stroke-width:2.5;" x="421.387188" xlink:href="#mdb89ce7a1f" y="334.535972"/>
      </g>
     </g>
     <g id="text_31">
      <!-- −5 -->
      <g style="fill:#262626;" transform="translate(373.454375 342.894253)scale(0.22 -0.22)">
       <use xlink:href="#DejaVuSans-8722"/>
       <use x="83.789062" xlink:href="#DejaVuSans-53"/>
      </g>
     </g>
    </g>
    <g id="ytick_11">
     <g id="line2d_51">
      <g>
       <use style="fill:#262626;stroke:#262626;stroke-width:2.5;" x="421.387188" xlink:href="#mdb89ce7a1f" y="256.548512"/>
      </g>
     </g>
     <g id="text_32">
      <!-- 0 -->
      <g style="fill:#262626;" transform="translate(391.889688 264.906794)scale(0.22 -0.22)">
       <use xlink:href="#DejaVuSans-48"/>
      </g>
     </g>
    </g>
    <g id="text_33">
     <!-- log2FC -->
     <g style="fill:#262626;" transform="translate(364.463125 331.546875)rotate(-90)scale(0.24 -0.24)">
      <use xlink:href="#DejaVuSans-108"/>
      <use x="27.783203" xlink:href="#DejaVuSans-111"/>
      <use x="88.964844" xlink:href="#DejaVuSans-103"/>
      <use x="152.441406" xlink:href="#DejaVuSans-50"/>
      <use x="216.064453" xlink:href="#DejaVuSans-70"/>
      <use x="273.583984" xlink:href="#DejaVuSans-67"/>
     </g>
    </g>
   </g>
   <g id="line2d_52">
    <path clip-path="url(#pab166c9e5d)" d="M 421.387188 256.548512 
L 424.693676 255.907901 
L 428.000164 255.294206 
L 431.306653 254.71327 
L 434.613141 254.170358 
L 437.919629 253.668395 
L 441.226118 253.209148 
L 444.532606 252.793621 
L 447.839094 252.420223 
L 451.145583 252.086536 
L 454.452071 251.784954 
L 457.758559 251.46857 
L 461.065048 250.959359 
L 464.371536 250.403351 
L 467.678025 249.839301 
L 470.984513 249.281708 
L 474.291001 248.735774 
L 477.59749 248.207144 
L 480.903978 247.696967 
L 484.210466 247.207249 
L 487.516955 246.737748 
L 490.823443 246.289966 
L 494.129931 245.863373 
L 497.43642 245.457958 
L 500.742908 245.074463 
L 504.049397 244.707424 
L 507.355885 244.361686 
L 510.662373 244.033952 
L 513.968862 243.72643 
L 517.27535 243.431523 
L 520.581838 243.155625 
L 523.888327 242.896704 
L 527.194815 242.652958 
L 530.501303 242.422893 
L 533.807792 242.205403 
L 537.11428 241.999895 
L 540.420768 241.806461 
L 543.727257 241.626161 
L 547.033745 241.461503 
L 550.340234 241.304204 
L 553.646722 241.149934 
L 556.95321 241.01764 
L 560.259699 240.883481 
L 563.566187 240.762245 
L 566.872675 240.649875 
L 570.179164 240.543466 
L 573.485652 240.441859 
L 576.79214 240.362414 
L 580.098629 240.259427 
L 583.405117 240.190795 
" style="fill:none;stroke:#1a1a1a;stroke-linecap:round;stroke-width:4;"/>
   </g>
   <g id="line2d_53">
    <path clip-path="url(#pab166c9e5d)" d="M 502.396152 345.49625 
L 502.396152 235.17625 
" style="fill:none;stroke:#7f7f7f;stroke-dasharray:7.4,3.2;stroke-dashoffset:0;stroke-width:2;"/>
   </g>
   <g id="line2d_54">
    <path clip-path="url(#pab166c9e5d)" d="M 421.387188 256.548512 
L 583.405117 256.548512 
" style="fill:none;stroke:#7f7f7f;stroke-dasharray:7.4,3.2;stroke-dashoffset:0;stroke-width:2;"/>
   </g>
   <g id="line2d_55">
    <path clip-path="url(#pab166c9e5d)" d="M 421.387188 256.548512 
L 424.693676 256.548327 
L 428.000164 256.548135 
L 431.306653 256.547991 
L 434.613141 256.547847 
L 437.919629 256.547721 
L 441.226118 256.547614 
L 444.532606 256.547549 
L 447.839094 256.54749 
L 451.145583 256.547428 
L 454.452071 256.547376 
L 457.758559 256.547331 
L 461.065048 256.54731 
L 464.371536 256.547275 
L 467.678025 256.547256 
L 470.984513 256.547242 
L 474.291001 256.547241 
L 477.59749 256.547235 
L 480.903978 256.54725 
L 484.210466 256.547263 
L 487.516955 256.547278 
L 490.823443 256.547294 
L 494.129931 256.547351 
L 497.43642 256.547384 
L 500.742908 256.54741 
L 504.049397 256.547471 
L 507.355885 256.547528 
L 510.662373 256.547604 
L 513.968862 256.547696 
L 517.27535 256.547773 
L 520.581838 256.54786 
L 523.888327 256.547985 
L 527.194815 256.548077 
L 530.501303 256.548218 
L 533.807792 256.548361 
L 537.11428 256.54854 
L 540.420768 256.548699 
L 543.727257 256.548904 
L 547.033745 256.549122 
L 550.340234 256.549372 
L 553.646722 256.549638 
L 556.95321 256.549926 
L 560.259699 256.550251 
L 563.566187 256.550599 
L 566.872675 256.551005 
L 570.179164 256.55141 
L 573.485652 256.55185 
L 576.79214 256.552362 
L 580.098629 256.552924 
L 583.405117 256.553524 
" style="fill:none;stroke:#7f7f7f;stroke-linecap:round;stroke-width:4;"/>
   </g>
   <g id="line2d_56">
    <path clip-path="url(#pab166c9e5d)" d="M 502.396152 345.49625 
L 502.396152 235.17625 
" style="fill:none;stroke:#7f7f7f;stroke-dasharray:7.4,3.2;stroke-dashoffset:0;stroke-width:2;"/>
   </g>
   <g id="line2d_57">
    <path clip-path="url(#pab166c9e5d)" d="M 421.387188 256.548512 
L 583.405117 256.548512 
" style="fill:none;stroke:#7f7f7f;stroke-dasharray:7.4,3.2;stroke-dashoffset:0;stroke-width:2;"/>
   </g>
   <g id="line2d_58">
    <path clip-path="url(#pab166c9e5d)" d="M 421.387188 256.548512 
L 424.693676 258.198995 
L 428.000164 259.863719 
L 431.306653 261.550809 
L 434.613141 263.268304 
L 437.919629 265.021984 
L 441.226118 266.816084 
L 444.532606 268.643063 
L 447.839094 270.517633 
L 451.145583 272.416082 
L 454.452071 274.345858 
L 457.758559 276.242241 
L 461.065048 277.864828 
L 464.371536 279.412665 
L 467.678025 280.942626 
L 470.984513 282.481301 
L 474.291001 283.998031 
L 477.59749 285.542808 
L 480.903978 287.109085 
L 484.210466 288.671397 
L 487.516955 290.287666 
L 490.823443 291.875468 
L 494.129931 293.532374 
L 497.43642 295.163628 
L 500.742908 296.841317 
L 504.049397 298.556666 
L 507.355885 300.221172 
L 510.662373 301.978997 
L 513.968862 303.749094 
L 517.27535 305.438654 
L 520.581838 307.222694 
L 523.888327 309.129595 
L 527.194815 310.864303 
L 530.501303 312.586105 
L 533.807792 314.393274 
L 537.11428 316.315449 
L 540.420768 318.395184 
L 543.727257 320.091185 
L 547.033745 321.754141 
L 550.340234 323.465197 
L 553.646722 325.23817 
L 556.95321 327.126413 
L 560.259699 329.134015 
L 563.566187 331.335617 
L 566.872675 333.803319 
L 570.179164 335.416674 
L 573.485652 336.758018 
L 576.79214 338.064939 
L 580.098629 339.288083 
L 583.405117 340.481705 
" style="fill:none;stroke:#d62728;stroke-linecap:round;stroke-width:4;"/>
   </g>
   <g id="line2d_59">
    <path clip-path="url(#pab166c9e5d)" d="M 502.396152 345.49625 
L 502.396152 235.17625 
" style="fill:none;stroke:#7f7f7f;stroke-dasharray:7.4,3.2;stroke-dashoffset:0;stroke-width:2;"/>
   </g>
   <g id="line2d_60">
    <path clip-path="url(#pab166c9e5d)" d="M 421.387188 256.548512 
L 583.405117 256.548512 
" style="fill:none;stroke:#7f7f7f;stroke-dasharray:7.4,3.2;stroke-dashoffset:0;stroke-width:2;"/>
   </g>
   <g id="line2d_61">
    <path clip-path="url(#pab166c9e5d)" d="M 421.387188 256.548512 
L 424.693676 257.418772 
L 428.000164 258.267796 
L 431.306653 259.089349 
L 434.613141 259.877259 
L 437.919629 260.626779 
L 441.226118 261.333988 
L 444.532606 261.995432 
L 447.839094 262.610055 
L 451.145583 263.1778 
L 454.452071 263.703872 
L 457.758559 264.231601 
L 461.065048 264.93626 
L 464.371536 265.688629 
L 467.678025 266.455124 
L 470.984513 267.223744 
L 474.291001 267.990731 
L 477.59749 268.750467 
L 480.903978 269.500696 
L 484.210466 270.236762 
L 487.516955 270.955832 
L 490.823443 271.652928 
L 494.129931 272.326484 
L 497.43642 272.975368 
L 500.742908 273.598526 
L 504.049397 274.204428 
L 507.355885 274.787594 
L 510.662373 275.354141 
L 513.968862 275.901844 
L 517.27535 276.443585 
L 520.581838 276.969568 
L 523.888327 277.482466 
L 527.194815 277.984116 
L 530.501303 278.475381 
L 533.807792 278.955811 
L 537.11428 279.423437 
L 540.420768 279.874422 
L 543.727257 280.302745 
L 547.033745 280.699268 
L 550.340234 281.079631 
L 553.646722 281.451616 
L 556.95321 281.771933 
L 560.259699 282.092916 
L 563.566187 282.381331 
L 566.872675 282.646635 
L 570.179164 282.895396 
L 573.485652 283.129934 
L 576.79214 283.314889 
L 580.098629 283.545885 
L 583.405117 283.702826 
" style="fill:none;stroke:#17becf;stroke-linecap:round;stroke-width:4;"/>
   </g>
   <g id="line2d_62">
    <path clip-path="url(#pab166c9e5d)" d="M 502.396152 345.49625 
L 502.396152 235.17625 
" style="fill:none;stroke:#7f7f7f;stroke-dasharray:7.4,3.2;stroke-dashoffset:0;stroke-width:2;"/>
   </g>
   <g id="line2d_63">
    <path clip-path="url(#pab166c9e5d)" d="M 421.387188 256.548512 
L 583.405117 256.548512 
" style="fill:none;stroke:#7f7f7f;stroke-dasharray:7.4,3.2;stroke-dashoffset:0;stroke-width:2;"/>
   </g>
   <g id="patch_18">
    <path d="M 421.387188 345.49625 
L 421.387188 235.17625 
" style="fill:none;stroke:#262626;stroke-linecap:square;stroke-linejoin:miter;stroke-width:2.5;"/>
   </g>
   <g id="patch_19">
    <path d="M 583.405117 345.49625 
L 583.405117 235.17625 
" style="fill:none;stroke:#262626;stroke-linecap:square;stroke-linejoin:miter;stroke-width:2.5;"/>
   </g>
   <g id="patch_20">
    <path d="M 421.387188 345.49625 
L 583.405117 345.49625 
" style="fill:none;stroke:#262626;stroke-linecap:square;stroke-linejoin:miter;stroke-width:2.5;"/>
   </g>
   <g id="patch_21">
    <path d="M 421.387188 235.17625 
L 583.405117 235.17625 
" style="fill:none;stroke:#262626;stroke-linecap:square;stroke-linejoin:miter;stroke-width:2.5;"/>
   </g>
  </g>
 </g>
 <defs>
  <clipPath id="paf7f97cef2">
   <rect height="110.32" width="162.01793" x="117.347188" y="31.43625"/>
  </clipPath>
  <clipPath id="p0193fab92f">
   <rect height="110.32" width="162.01793" x="421.387188" y="31.43625"/>
  </clipPath>
  <clipPath id="pdf3f31775e">
   <rect height="110.32" width="162.01793" x="117.347188" y="235.17625"/>
  </clipPath>
  <clipPath id="pab166c9e5d">
   <rect height="110.32" width="162.01793" x="421.387188" y="235.17625"/>
  </clipPath>
 </defs>
</svg>
