<?xml version="1.0" encoding="utf-8" standalone="no"?>
<!DOCTYPE svg PUBLIC "-//W3C//DTD SVG 1.1//EN"
  "http://www.w3.org/Graphics/SVG/1.1/DTD/svg11.dtd">
<!-- Created with matplotlib (https://matplotlib.org/) -->
<svg height="418.108125pt" version="1.1" viewBox="0 0 1257.79043 418.108125" width="1257.79043pt" xmlns="http://www.w3.org/2000/svg" xmlns:xlink="http://www.w3.org/1999/xlink">
 <defs>
  <style type="text/css">
*{stroke-linecap:butt;stroke-linejoin:round;}
  </style>
 </defs>
 <g id="figure_1">
  <g id="patch_1">
   <path d="M 0 418.108125 
L 1257.79043 418.108125 
L 1257.79043 0 
L 0 0 
z
" style="fill:#ffffff;"/>
  </g>
  <g id="axes_1">
   <g id="patch_2">
    <path d="M 77.9225 134.50625 
L 278.67043 134.50625 
L 278.67043 31.43625 
L 77.9225 31.43625 
z
" style="fill:#ffffff;"/>
   </g>
   <g id="matplotlib.axis_1">
    <g id="xtick_1">
     <g id="line2d_1">
      <defs>
       <path d="M 0 0 
L 0 12 
" id="m5f46ffb6df" style="stroke:#262626;stroke-width:2.5;"/>
      </defs>
      <g>
       <use style="fill:#262626;stroke:#262626;stroke-width:2.5;" x="77.9225" xlink:href="#m5f46ffb6df" y="134.50625"/>
      </g>
     </g>
     <g id="text_1">
      <!-- $\mathdefault{10^{0}}$ -->
      <defs>
       <path d="M 12.40625 8.296875 
L 28.515625 8.296875 
L 28.515625 63.921875 
L 10.984375 60.40625 
L 10.984375 69.390625 
L 28.421875 72.90625 
L 38.28125 72.90625 
L 38.28125 8.296875 
L 54.390625 8.296875 
L 54.390625 0 
L 12.40625 0 
z
" id="DejaVuSans-49"/>
       <path d="M 31.78125 66.40625 
Q 24.171875 66.40625 20.328125 58.90625 
Q 16.5 51.421875 16.5 36.375 
Q 16.5 21.390625 20.328125 13.890625 
Q 24.171875 6.390625 31.78125 6.390625 
Q 39.453125 6.390625 43.28125 13.890625 
Q 47.125 21.390625 47.125 36.375 
Q 47.125 51.421875 43.28125 58.90625 
Q 39.453125 66.40625 31.78125 66.40625 
z
M 31.78125 74.21875 
Q 44.046875 74.21875 50.515625 64.515625 
Q 56.984375 54.828125 56.984375 36.375 
Q 56.984375 17.96875 50.515625 8.265625 
Q 44.046875 -1.421875 31.78125 -1.421875 
Q 19.53125 -1.421875 13.0625 8.265625 
Q 6.59375 17.96875 6.59375 36.375 
Q 6.59375 54.828125 13.0625 64.515625 
Q 19.53125 74.21875 31.78125 74.21875 
z
" id="DejaVuSans-48"/>
      </defs>
      <g style="fill:#262626;" transform="translate(58.5625 166.722812)scale(0.22 -0.22)">
       <use transform="translate(0 0.765625)" xlink:href="#DejaVuSans-49"/>
       <use transform="translate(63.623047 0.765625)" xlink:href="#DejaVuSans-48"/>
       <use transform="translate(128.203125 39.046875)scale(0.7)" xlink:href="#DejaVuSans-48"/>
      </g>
     </g>
    </g>
    <g id="xtick_2">
     <g id="line2d_2">
      <g>
       <use style="fill:#262626;stroke:#262626;stroke-width:2.5;" x="178.296465" xlink:href="#m5f46ffb6df" y="134.50625"/>
      </g>
     </g>
     <g id="text_2">
      <!-- $\mathdefault{10^{1}}$ -->
      <g style="fill:#262626;" transform="translate(158.936465 166.722812)scale(0.22 -0.22)">
       <use transform="translate(0 0.684375)" xlink:href="#DejaVuSans-49"/>
       <use transform="translate(63.623047 0.684375)" xlink:href="#DejaVuSans-48"/>
       <use transform="translate(128.203125 38.965625)scale(0.7)" xlink:href="#DejaVuSans-49"/>
      </g>
     </g>
    </g>
    <g id="xtick_3">
     <g id="line2d_3">
      <g>
       <use style="fill:#262626;stroke:#262626;stroke-width:2.5;" x="278.67043" xlink:href="#m5f46ffb6df" y="134.50625"/>
      </g>
     </g>
     <g id="text_3">
      <!-- $\mathdefault{10^{2}}$ -->
      <defs>
       <path d="M 19.1875 8.296875 
L 53.609375 8.296875 
L 53.609375 0 
L 7.328125 0 
L 7.328125 8.296875 
Q 12.9375 14.109375 22.625 23.890625 
Q 32.328125 33.6875 34.8125 36.53125 
Q 39.546875 41.84375 41.421875 45.53125 
Q 43.3125 49.21875 43.3125 52.78125 
Q 43.3125 58.59375 39.234375 62.25 
Q 35.15625 65.921875 28.609375 65.921875 
Q 23.96875 65.921875 18.8125 64.3125 
Q 13.671875 62.703125 7.8125 59.421875 
L 7.8125 69.390625 
Q 13.765625 71.78125 18.9375 73 
Q 24.125 74.21875 28.421875 74.21875 
Q 39.75 74.21875 46.484375 68.546875 
Q 53.21875 62.890625 53.21875 53.421875 
Q 53.21875 48.921875 51.53125 44.890625 
Q 49.859375 40.875 45.40625 35.40625 
Q 44.1875 33.984375 37.640625 27.21875 
Q 31.109375 20.453125 19.1875 8.296875 
z
" id="DejaVuSans-50"/>
      </defs>
      <g style="fill:#262626;" transform="translate(259.31043 166.722812)scale(0.22 -0.22)">
       <use transform="translate(0 0.765625)" xlink:href="#DejaVuSans-49"/>
       <use transform="translate(63.623047 0.765625)" xlink:href="#DejaVuSans-48"/>
       <use transform="translate(128.203125 39.046875)scale(0.7)" xlink:href="#DejaVuSans-50"/>
      </g>
     </g>
    </g>
    <g id="text_4">
     <!-- $\beta$ -->
     <defs>
      <path d="M 13.625 3.375 
L 8.9375 -20.796875 
L -0.09375 -20.796875 
L 14.5 54.34375 
Q 18.84375 76.609375 39.65625 76.609375 
Q 60.75 76.609375 57.171875 57.8125 
Q 54.734375 44.4375 45.21875 39.546875 
Q 58.015625 35.15625 55.515625 22.125 
Q 51.125 -1.078125 27.484375 -1.03125 
Q 17.140625 -0.984375 13.625 3.375 
z
M 15.921875 15.09375 
Q 19.671875 6.59375 29.296875 6.640625 
Q 43.359375 6.640625 46.34375 21.96875 
Q 49.03125 35.75 26.171875 34.671875 
L 27.78125 42.96875 
Q 45.453125 42.671875 48.53125 58.59375 
Q 50.640625 69.34375 39.203125 69.28125 
Q 26.421875 69.28125 23.484375 54.046875 
z
" id="DejaVuSans-Oblique-946"/>
     </defs>
     <g style="fill:#262626;" transform="translate(170.616465 193.778125)scale(0.24 -0.24)">
      <use transform="translate(0 0.390625)" xlink:href="#DejaVuSans-Oblique-946"/>
     </g>
    </g>
   </g>
   <g id="matplotlib.axis_2">
    <g id="ytick_1">
     <g id="line2d_4">
      <defs>
       <path d="M 0 0 
L -12 0 
" id="m888f7a7026" style="stroke:#262626;stroke-width:2.5;"/>
      </defs>
      <g>
       <use style="fill:#262626;stroke:#262626;stroke-width:2.5;" x="77.9225" xlink:href="#m888f7a7026" y="134.50625"/>
      </g>
     </g>
     <g id="text_5">
      <!-- 0 -->
      <g style="fill:#262626;" transform="translate(48.425 142.864531)scale(0.22 -0.22)">
       <use xlink:href="#DejaVuSans-48"/>
      </g>
     </g>
    </g>
    <g id="ytick_2">
     <g id="line2d_5">
      <g>
       <use style="fill:#262626;stroke:#262626;stroke-width:2.5;" x="77.9225" xlink:href="#m888f7a7026" y="82.97125"/>
      </g>
     </g>
     <g id="text_6">
      <!-- 5 -->
      <defs>
       <path d="M 10.796875 72.90625 
L 49.515625 72.90625 
L 49.515625 64.59375 
L 19.828125 64.59375 
L 19.828125 46.734375 
Q 21.96875 47.46875 24.109375 47.828125 
Q 26.265625 48.1875 28.421875 48.1875 
Q 40.625 48.1875 47.75 41.5 
Q 54.890625 34.8125 54.890625 23.390625 
Q 54.890625 11.625 47.5625 5.09375 
Q 40.234375 -1.421875 26.90625 -1.421875 
Q 22.3125 -1.421875 17.546875 -0.640625 
Q 12.796875 0.140625 7.71875 1.703125 
L 7.71875 11.625 
Q 12.109375 9.234375 16.796875 8.0625 
Q 21.484375 6.890625 26.703125 6.890625 
Q 35.15625 6.890625 40.078125 11.328125 
Q 45.015625 15.765625 45.015625 23.390625 
Q 45.015625 31 40.078125 35.4375 
Q 35.15625 39.890625 26.703125 39.890625 
Q 22.75 39.890625 18.8125 39.015625 
Q 14.890625 38.140625 10.796875 36.28125 
z
" id="DejaVuSans-53"/>
      </defs>
      <g style="fill:#262626;" transform="translate(48.425 91.329531)scale(0.22 -0.22)">
       <use xlink:href="#DejaVuSans-53"/>
      </g>
     </g>
    </g>
    <g id="ytick_3">
     <g id="line2d_6">
      <g>
       <use style="fill:#262626;stroke:#262626;stroke-width:2.5;" x="77.9225" xlink:href="#m888f7a7026" y="31.43625"/>
      </g>
     </g>
     <g id="text_7">
      <!-- 10 -->
      <g style="fill:#262626;" transform="translate(34.4275 39.794531)scale(0.22 -0.22)">
       <use xlink:href="#DejaVuSans-49"/>
       <use x="63.623047" xlink:href="#DejaVuSans-48"/>
      </g>
     </g>
    </g>
    <g id="text_8">
     <!-- log2FC -->
     <defs>
      <path d="M 9.421875 75.984375 
L 18.40625 75.984375 
L 18.40625 0 
L 9.421875 0 
z
" id="DejaVuSans-108"/>
      <path d="M 30.609375 48.390625 
Q 23.390625 48.390625 19.1875 42.75 
Q 14.984375 37.109375 14.984375 27.296875 
Q 14.984375 17.484375 19.15625 11.84375 
Q 23.34375 6.203125 30.609375 6.203125 
Q 37.796875 6.203125 41.984375 11.859375 
Q 46.1875 17.53125 46.1875 27.296875 
Q 46.1875 37.015625 41.984375 42.703125 
Q 37.796875 48.390625 30.609375 48.390625 
z
M 30.609375 56 
Q 42.328125 56 49.015625 48.375 
Q 55.71875 40.765625 55.71875 27.296875 
Q 55.71875 13.875 49.015625 6.21875 
Q 42.328125 -1.421875 30.609375 -1.421875 
Q 18.84375 -1.421875 12.171875 6.21875 
Q 5.515625 13.875 5.515625 27.296875 
Q 5.515625 40.765625 12.171875 48.375 
Q 18.84375 56 30.609375 56 
z
" id="DejaVuSans-111"/>
      <path d="M 45.40625 27.984375 
Q 45.40625 37.75 41.375 43.109375 
Q 37.359375 48.484375 30.078125 48.484375 
Q 22.859375 48.484375 18.828125 43.109375 
Q 14.796875 37.75 14.796875 27.984375 
Q 14.796875 18.265625 18.828125 12.890625 
Q 22.859375 7.515625 30.078125 7.515625 
Q 37.359375 7.515625 41.375 12.890625 
Q 45.40625 18.265625 45.40625 27.984375 
z
M 54.390625 6.78125 
Q 54.390625 -7.171875 48.1875 -13.984375 
Q 42 -20.796875 29.203125 -20.796875 
Q 24.46875 -20.796875 20.265625 -20.09375 
Q 16.0625 -19.390625 12.109375 -17.921875 
L 12.109375 -9.1875 
Q 16.0625 -11.328125 19.921875 -12.34375 
Q 23.78125 -13.375 27.78125 -13.375 
Q 36.625 -13.375 41.015625 -8.765625 
Q 45.40625 -4.15625 45.40625 5.171875 
L 45.40625 9.625 
Q 42.625 4.78125 38.28125 2.390625 
Q 33.9375 0 27.875 0 
Q 17.828125 0 11.671875 7.65625 
Q 5.515625 15.328125 5.515625 27.984375 
Q 5.515625 40.671875 11.671875 48.328125 
Q 17.828125 56 27.875 56 
Q 33.9375 56 38.28125 53.609375 
Q 42.625 51.21875 45.40625 46.390625 
L 45.40625 54.6875 
L 54.390625 54.6875 
z
" id="DejaVuSans-103"/>
      <path d="M 9.8125 72.90625 
L 51.703125 72.90625 
L 51.703125 64.59375 
L 19.671875 64.59375 
L 19.671875 43.109375 
L 48.578125 43.109375 
L 48.578125 34.8125 
L 19.671875 34.8125 
L 19.671875 0 
L 9.8125 0 
z
" id="DejaVuSans-70"/>
      <path d="M 64.40625 67.28125 
L 64.40625 56.890625 
Q 59.421875 61.53125 53.78125 63.8125 
Q 48.140625 66.109375 41.796875 66.109375 
Q 29.296875 66.109375 22.65625 58.46875 
Q 16.015625 50.828125 16.015625 36.375 
Q 16.015625 21.96875 22.65625 14.328125 
Q 29.296875 6.6875 41.796875 6.6875 
Q 48.140625 6.6875 53.78125 8.984375 
Q 59.421875 11.28125 64.40625 15.921875 
L 64.40625 5.609375 
Q 59.234375 2.09375 53.4375 0.328125 
Q 47.65625 -1.421875 41.21875 -1.421875 
Q 24.65625 -1.421875 15.125 8.703125 
Q 5.609375 18.84375 5.609375 36.375 
Q 5.609375 53.953125 15.125 64.078125 
Q 24.65625 74.21875 41.21875 74.21875 
Q 47.75 74.21875 53.53125 72.484375 
Q 59.328125 70.75 64.40625 67.28125 
z
" id="DejaVuSans-67"/>
     </defs>
     <g style="fill:#262626;" transform="translate(25.43625 124.181875)rotate(-90)scale(0.24 -0.24)">
      <use xlink:href="#DejaVuSans-108"/>
      <use x="27.783203" xlink:href="#DejaVuSans-111"/>
      <use x="88.964844" xlink:href="#DejaVuSans-103"/>
      <use x="152.441406" xlink:href="#DejaVuSans-50"/>
      <use x="216.064453" xlink:href="#DejaVuSans-70"/>
      <use x="273.583984" xlink:href="#DejaVuSans-67"/>
     </g>
    </g>
   </g>
   <g id="line2d_7">
    <path clip-path="url(#p3636d54246)" d="M 77.9225 147.3524 
L 82.019397 146.476801 
L 86.116293 145.635277 
L 90.21319 144.827735 
L 94.310086 144.053989 
L 98.406983 143.313713 
L 102.503879 142.606452 
L 106.600776 141.931613 
L 110.697672 141.288613 
L 114.794569 140.67673 
L 118.891465 140.09508 
L 122.988362 139.542955 
L 127.085258 139.019331 
L 131.182155 138.523343 
L 135.279051 138.054081 
L 139.375948 137.610522 
L 143.472844 137.191727 
L 147.569741 136.796807 
L 151.666637 136.425283 
L 155.763534 136.077268 
L 159.86043 135.752792 
L 163.957327 135.451846 
L 168.054224 135.171328 
L 172.15112 134.905114 
L 176.248017 134.641475 
L 180.344913 134.367069 
L 184.44181 134.072801 
L 188.538706 133.757998 
L 192.635603 133.427086 
L 196.732499 133.08784 
L 200.829396 132.746984 
L 204.926292 132.409384 
L 209.023189 132.080329 
L 213.120085 131.762588 
L 217.216982 131.458307 
L 221.313878 131.168882 
L 225.410775 130.894824 
L 229.507671 130.637736 
L 233.604568 130.393319 
L 237.701464 130.163532 
L 241.798361 129.949722 
L 245.895257 129.749434 
L 249.992154 129.561476 
L 254.089051 129.390876 
L 258.185947 129.223361 
L 262.282844 129.070868 
L 266.37974 128.928901 
L 270.476637 128.796759 
L 274.573533 128.678708 
L 278.67043 128.559924 
" style="fill:none;stroke:#1a1a1a;stroke-linecap:round;stroke-width:4;"/>
   </g>
   <g id="line2d_8">
    <path clip-path="url(#p3636d54246)" d="M 178.296465 134.50625 
L 178.296465 31.43625 
" style="fill:none;stroke:#7f7f7f;stroke-dasharray:7.4,3.2;stroke-dashoffset:0;stroke-width:2;"/>
   </g>
   <g id="line2d_9">
    <path clip-path="url(#p3636d54246)" d="M 77.9225 134.50625 
L 278.67043 134.50625 
" style="fill:none;stroke:#7f7f7f;stroke-dasharray:7.4,3.2;stroke-dashoffset:0;stroke-width:2;"/>
   </g>
   <g id="line2d_10">
    <path clip-path="url(#p3636d54246)" d="M 77.9225 134.587424 
L 82.019397 134.562426 
L 86.116293 134.546538 
L 90.21319 134.536013 
L 94.310086 134.528787 
L 98.406983 134.523666 
L 102.503879 134.519926 
L 106.600776 134.517151 
L 110.697672 134.515025 
L 114.794569 134.513385 
L 118.891465 134.512067 
L 122.988362 134.511027 
L 127.085258 134.5102 
L 131.182155 134.509501 
L 135.279051 134.508923 
L 139.375948 134.508452 
L 143.472844 134.508039 
L 147.569741 134.507704 
L 151.666637 134.507407 
L 155.763534 134.507157 
L 159.86043 134.50694 
L 163.957327 134.506737 
L 168.054224 134.506583 
L 172.15112 134.506441 
L 176.248017 134.506306 
L 180.344913 134.5062 
L 184.44181 134.5061 
L 188.538706 134.506009 
L 192.635603 134.505931 
L 196.732499 134.505862 
L 200.829396 134.5058 
L 204.926292 134.505751 
L 209.023189 134.505694 
L 213.120085 134.50565 
L 217.216982 134.505617 
L 221.313878 134.505576 
L 225.410775 134.505535 
L 229.507671 134.505528 
L 233.604568 134.505502 
L 237.701464 134.505451 
L 241.798361 134.505443 
L 245.895257 134.505429 
L 249.992154 134.505405 
L 254.089051 134.505389 
L 258.185947 134.505382 
L 262.282844 134.505372 
L 266.37974 134.50536 
L 270.476637 134.505354 
L 274.573533 134.505326 
L 278.67043 134.505329 
" style="fill:none;stroke:#7f7f7f;stroke-linecap:round;stroke-width:4;"/>
   </g>
   <g id="line2d_11">
    <path clip-path="url(#p3636d54246)" d="M 178.296465 134.50625 
L 178.296465 31.43625 
" style="fill:none;stroke:#7f7f7f;stroke-dasharray:7.4,3.2;stroke-dashoffset:0;stroke-width:2;"/>
   </g>
   <g id="line2d_12">
    <path clip-path="url(#p3636d54246)" d="M 77.9225 134.50625 
L 278.67043 134.50625 
" style="fill:none;stroke:#7f7f7f;stroke-dasharray:7.4,3.2;stroke-dashoffset:0;stroke-width:2;"/>
   </g>
   <g id="line2d_13">
    <path clip-path="url(#p3636d54246)" d="M 77.9225 102.087598 
L 82.019397 103.351618 
L 86.116293 104.618474 
L 90.21319 105.888533 
L 94.310086 107.162158 
L 98.406983 108.439687 
L 102.503879 109.721441 
L 106.600776 111.007714 
L 110.697672 112.298825 
L 114.794569 113.59507 
L 118.891465 114.896712 
L 122.988362 116.204098 
L 127.085258 117.517506 
L 131.182155 118.83732 
L 135.279051 120.163971 
L 139.375948 121.497886 
L 143.472844 122.839468 
L 147.569741 124.188985 
L 151.666637 125.546538 
L 155.763534 126.912061 
L 159.86043 128.285027 
L 163.957327 129.664727 
L 168.054224 131.049036 
L 172.15112 132.434987 
L 176.248017 133.817765 
L 180.344913 135.192232 
L 184.44181 136.555034 
L 188.538706 137.906008 
L 192.635603 139.2468 
L 196.732499 140.580327 
L 200.829396 141.908857 
L 204.926292 143.234468 
L 209.023189 144.559125 
L 213.120085 145.884278 
L 217.216982 147.21024 
L 221.313878 148.538418 
L 225.410775 149.869071 
L 229.507671 151.203508 
L 233.604568 152.538589 
L 237.701464 153.877031 
L 241.798361 155.218989 
L 245.895257 156.56365 
L 249.992154 157.912059 
L 254.089051 159.262817 
L 258.185947 160.61581 
L 262.282844 161.968624 
L 266.37974 163.325252 
L 270.476637 164.684865 
L 274.573533 166.047805 
L 278.67043 167.408555 
" style="fill:none;stroke:#d62728;stroke-linecap:round;stroke-width:4;"/>
   </g>
   <g id="line2d_14">
    <path clip-path="url(#p3636d54246)" d="M 178.296465 134.50625 
L 178.296465 31.43625 
" style="fill:none;stroke:#7f7f7f;stroke-dasharray:7.4,3.2;stroke-dashoffset:0;stroke-width:2;"/>
   </g>
   <g id="line2d_15">
    <path clip-path="url(#p3636d54246)" d="M 77.9225 134.50625 
L 278.67043 134.50625 
" style="fill:none;stroke:#7f7f7f;stroke-dasharray:7.4,3.2;stroke-dashoffset:0;stroke-width:2;"/>
   </g>
   <g id="line2d_16">
    <path clip-path="url(#p3636d54246)" d="M 77.9225 113.641748 
L 82.019397 114.712721 
L 86.116293 115.777554 
L 90.21319 116.832275 
L 94.310086 117.874374 
L 98.406983 118.902084 
L 102.503879 119.91398 
L 106.600776 120.908803 
L 110.697672 121.885302 
L 114.794569 122.842268 
L 118.891465 123.778544 
L 122.988362 124.692888 
L 127.085258 125.58423 
L 131.182155 126.451505 
L 135.279051 127.293777 
L 139.375948 128.110268 
L 143.472844 128.900366 
L 147.569741 129.66353 
L 151.666637 130.399112 
L 155.763534 131.106145 
L 159.86043 131.783649 
L 163.957327 132.4307 
L 168.054224 133.048635 
L 172.15112 133.641631 
L 176.248017 134.219234 
L 180.344913 134.793886 
L 184.44181 135.376099 
L 188.538706 135.970034 
L 192.635603 136.575197 
L 196.732499 137.187091 
L 200.829396 137.800712 
L 204.926292 138.411412 
L 209.023189 139.012861 
L 213.120085 139.600738 
L 217.216982 140.17157 
L 221.313878 140.723289 
L 225.410775 141.255452 
L 229.507671 141.766723 
L 233.604568 142.263779 
L 237.701464 142.745133 
L 241.798361 143.209386 
L 245.895257 143.660288 
L 249.992154 144.099418 
L 254.089051 144.516777 
L 258.185947 144.936002 
L 262.282844 145.333239 
L 266.37974 145.713672 
L 270.476637 146.075654 
L 274.573533 146.407427 
L 278.67043 146.737932 
" style="fill:none;stroke:#17becf;stroke-linecap:round;stroke-width:4;"/>
   </g>
   <g id="line2d_17">
    <path clip-path="url(#p3636d54246)" d="M 178.296465 134.50625 
L 178.296465 31.43625 
" style="fill:none;stroke:#7f7f7f;stroke-dasharray:7.4,3.2;stroke-dashoffset:0;stroke-width:2;"/>
   </g>
   <g id="line2d_18">
    <path clip-path="url(#p3636d54246)" d="M 77.9225 134.50625 
L 278.67043 134.50625 
" style="fill:none;stroke:#7f7f7f;stroke-dasharray:7.4,3.2;stroke-dashoffset:0;stroke-width:2;"/>
   </g>
   <g id="patch_3">
    <path d="M 77.9225 134.50625 
L 77.9225 31.43625 
" style="fill:none;stroke:#262626;stroke-linecap:square;stroke-linejoin:miter;stroke-width:2.5;"/>
   </g>
   <g id="patch_4">
    <path d="M 278.67043 134.50625 
L 278.67043 31.43625 
" style="fill:none;stroke:#262626;stroke-linecap:square;stroke-linejoin:miter;stroke-width:2.5;"/>
   </g>
   <g id="patch_5">
    <path d="M 77.9225 134.50625 
L 278.67043 134.50625 
" style="fill:none;stroke:#262626;stroke-linecap:square;stroke-linejoin:miter;stroke-width:2.5;"/>
   </g>
   <g id="patch_6">
    <path d="M 77.9225 31.43625 
L 278.67043 31.43625 
" style="fill:none;stroke:#262626;stroke-linecap:square;stroke-linejoin:miter;stroke-width:2.5;"/>
   </g>
   <g id="text_9">
    <!-- Null -->
    <defs>
     <path d="M 9.8125 72.90625 
L 23.09375 72.90625 
L 55.421875 11.921875 
L 55.421875 72.90625 
L 64.984375 72.90625 
L 64.984375 0 
L 51.703125 0 
L 19.390625 60.984375 
L 19.390625 0 
L 9.8125 0 
z
" id="DejaVuSans-78"/>
     <path d="M 8.5 21.578125 
L 8.5 54.6875 
L 17.484375 54.6875 
L 17.484375 21.921875 
Q 17.484375 14.15625 20.5 10.265625 
Q 23.53125 6.390625 29.59375 6.390625 
Q 36.859375 6.390625 41.078125 11.03125 
Q 45.3125 15.671875 45.3125 23.6875 
L 45.3125 54.6875 
L 54.296875 54.6875 
L 54.296875 0 
L 45.3125 0 
L 45.3125 8.40625 
Q 42.046875 3.421875 37.71875 1 
Q 33.40625 -1.421875 27.6875 -1.421875 
Q 18.265625 -1.421875 13.375 4.4375 
Q 8.5 10.296875 8.5 21.578125 
z
M 31.109375 56 
z
" id="DejaVuSans-117"/>
    </defs>
    <g style="fill:#262626;" transform="translate(155.046465 25.43625)scale(0.24 -0.24)">
     <use xlink:href="#DejaVuSans-78"/>
     <use x="74.804688" xlink:href="#DejaVuSans-117"/>
     <use x="138.183594" xlink:href="#DejaVuSans-108"/>
     <use x="165.966797" xlink:href="#DejaVuSans-108"/>
    </g>
   </g>
  </g>
  <g id="axes_2">
   <g id="patch_7">
    <path d="M 395.4425 134.50625 
L 596.19043 134.50625 
L 596.19043 31.43625 
L 395.4425 31.43625 
z
" style="fill:#ffffff;"/>
   </g>
   <g id="matplotlib.axis_3">
    <g id="xtick_4">
     <g id="line2d_19">
      <g>
       <use style="fill:#262626;stroke:#262626;stroke-width:2.5;" x="395.4425" xlink:href="#m5f46ffb6df" y="134.50625"/>
      </g>
     </g>
     <g id="text_10">
      <!-- $\mathdefault{10^{0}}$ -->
      <g style="fill:#262626;" transform="translate(376.0825 166.722812)scale(0.22 -0.22)">
       <use transform="translate(0 0.765625)" xlink:href="#DejaVuSans-49"/>
       <use transform="translate(63.623047 0.765625)" xlink:href="#DejaVuSans-48"/>
       <use transform="translate(128.203125 39.046875)scale(0.7)" xlink:href="#DejaVuSans-48"/>
      </g>
     </g>
    </g>
    <g id="xtick_5">
     <g id="line2d_20">
      <g>
       <use style="fill:#262626;stroke:#262626;stroke-width:2.5;" x="495.816465" xlink:href="#m5f46ffb6df" y="134.50625"/>
      </g>
     </g>
     <g id="text_11">
      <!-- $\mathdefault{10^{1}}$ -->
      <g style="fill:#262626;" transform="translate(476.456465 166.722812)scale(0.22 -0.22)">
       <use transform="translate(0 0.684375)" xlink:href="#DejaVuSans-49"/>
       <use transform="translate(63.623047 0.684375)" xlink:href="#DejaVuSans-48"/>
       <use transform="translate(128.203125 38.965625)scale(0.7)" xlink:href="#DejaVuSans-49"/>
      </g>
     </g>
    </g>
    <g id="xtick_6">
     <g id="line2d_21">
      <g>
       <use style="fill:#262626;stroke:#262626;stroke-width:2.5;" x="596.19043" xlink:href="#m5f46ffb6df" y="134.50625"/>
      </g>
     </g>
     <g id="text_12">
      <!-- $\mathdefault{10^{2}}$ -->
      <g style="fill:#262626;" transform="translate(576.83043 166.722812)scale(0.22 -0.22)">
       <use transform="translate(0 0.765625)" xlink:href="#DejaVuSans-49"/>
       <use transform="translate(63.623047 0.765625)" xlink:href="#DejaVuSans-48"/>
       <use transform="translate(128.203125 39.046875)scale(0.7)" xlink:href="#DejaVuSans-50"/>
      </g>
     </g>
    </g>
    <g id="text_13">
     <!-- $\beta$ -->
     <g style="fill:#262626;" transform="translate(488.136465 193.778125)scale(0.24 -0.24)">
      <use transform="translate(0 0.390625)" xlink:href="#DejaVuSans-Oblique-946"/>
     </g>
    </g>
   </g>
   <g id="matplotlib.axis_4">
    <g id="ytick_4">
     <g id="line2d_22">
      <g>
       <use style="fill:#262626;stroke:#262626;stroke-width:2.5;" x="395.4425" xlink:href="#m888f7a7026" y="134.50625"/>
      </g>
     </g>
     <g id="text_14">
      <!-- 0 -->
      <g style="fill:#262626;" transform="translate(365.945 142.864531)scale(0.22 -0.22)">
       <use xlink:href="#DejaVuSans-48"/>
      </g>
     </g>
    </g>
    <g id="ytick_5">
     <g id="line2d_23">
      <g>
       <use style="fill:#262626;stroke:#262626;stroke-width:2.5;" x="395.4425" xlink:href="#m888f7a7026" y="82.97125"/>
      </g>
     </g>
     <g id="text_15">
      <!-- 5 -->
      <g style="fill:#262626;" transform="translate(365.945 91.329531)scale(0.22 -0.22)">
       <use xlink:href="#DejaVuSans-53"/>
      </g>
     </g>
    </g>
    <g id="ytick_6">
     <g id="line2d_24">
      <g>
       <use style="fill:#262626;stroke:#262626;stroke-width:2.5;" x="395.4425" xlink:href="#m888f7a7026" y="31.43625"/>
      </g>
     </g>
     <g id="text_16">
      <!-- 10 -->
      <g style="fill:#262626;" transform="translate(351.9475 39.794531)scale(0.22 -0.22)">
       <use xlink:href="#DejaVuSans-49"/>
       <use x="63.623047" xlink:href="#DejaVuSans-48"/>
      </g>
     </g>
    </g>
    <g id="text_17">
     <!-- log2FC -->
     <g style="fill:#262626;" transform="translate(342.95625 124.181875)rotate(-90)scale(0.24 -0.24)">
      <use xlink:href="#DejaVuSans-108"/>
      <use x="27.783203" xlink:href="#DejaVuSans-111"/>
      <use x="88.964844" xlink:href="#DejaVuSans-103"/>
      <use x="152.441406" xlink:href="#DejaVuSans-50"/>
      <use x="216.064453" xlink:href="#DejaVuSans-70"/>
      <use x="273.583984" xlink:href="#DejaVuSans-67"/>
     </g>
    </g>
   </g>
   <g id="line2d_25">
    <path clip-path="url(#p1e96725dc3)" d="M 395.4425 147.3524 
L 399.539397 146.476801 
L 403.636293 145.635277 
L 407.73319 144.827735 
L 411.830086 144.053989 
L 415.926983 143.313713 
L 420.023879 142.606452 
L 424.120776 141.931613 
L 428.217672 141.288613 
L 432.314569 140.67673 
L 436.411465 140.09508 
L 440.508362 139.542955 
L 444.605258 139.019331 
L 448.702155 138.523343 
L 452.799051 138.054081 
L 456.895948 137.610522 
L 460.992844 137.191727 
L 465.089741 136.796807 
L 469.186637 136.425283 
L 473.283534 136.077268 
L 477.38043 135.752792 
L 481.477327 135.451846 
L 485.574224 135.171328 
L 489.67112 134.905114 
L 493.768017 134.641475 
L 497.864913 134.367069 
L 501.96181 134.072801 
L 506.058706 133.757998 
L 510.155603 133.427086 
L 514.252499 133.08784 
L 518.349396 132.746984 
L 522.446292 132.409384 
L 526.543189 132.080329 
L 530.640085 131.762588 
L 534.736982 131.458307 
L 538.833878 131.168882 
L 542.930775 130.894824 
L 547.027671 130.637736 
L 551.124568 130.393319 
L 555.221464 130.163532 
L 559.318361 129.949722 
L 563.415257 129.749434 
L 567.512154 129.561476 
L 571.609051 129.390876 
L 575.705947 129.223361 
L 579.802844 129.070868 
L 583.89974 128.928901 
L 587.996637 128.796759 
L 592.093533 128.678708 
L 596.19043 128.559924 
" style="fill:none;stroke:#1a1a1a;stroke-linecap:round;stroke-width:4;"/>
   </g>
   <g id="line2d_26">
    <path clip-path="url(#p1e96725dc3)" d="M 495.816465 134.50625 
L 495.816465 31.43625 
" style="fill:none;stroke:#7f7f7f;stroke-dasharray:7.4,3.2;stroke-dashoffset:0;stroke-width:2;"/>
   </g>
   <g id="line2d_27">
    <path clip-path="url(#p1e96725dc3)" d="M 395.4425 134.50625 
L 596.19043 134.50625 
" style="fill:none;stroke:#7f7f7f;stroke-dasharray:7.4,3.2;stroke-dashoffset:0;stroke-width:2;"/>
   </g>
   <g id="line2d_28">
    <path clip-path="url(#p1e96725dc3)" d="M 395.4425 134.587424 
L 399.539397 134.562426 
L 403.636293 134.546538 
L 407.73319 134.536013 
L 411.830086 134.528787 
L 415.926983 134.523666 
L 420.023879 134.519926 
L 424.120776 134.517151 
L 428.217672 134.515025 
L 432.314569 134.513385 
L 436.411465 134.512067 
L 440.508362 134.511027 
L 444.605258 134.5102 
L 448.702155 134.509501 
L 452.799051 134.508923 
L 456.895948 134.508452 
L 460.992844 134.508039 
L 465.089741 134.507704 
L 469.186637 134.507407 
L 473.283534 134.507157 
L 477.38043 134.50694 
L 481.477327 134.506737 
L 485.574224 134.506583 
L 489.67112 134.506441 
L 493.768017 134.506306 
L 497.864913 134.5062 
L 501.96181 134.5061 
L 506.058706 134.506009 
L 510.155603 134.505931 
L 514.252499 134.505862 
L 518.349396 134.5058 
L 522.446292 134.505751 
L 526.543189 134.505694 
L 530.640085 134.50565 
L 534.736982 134.505617 
L 538.833878 134.505576 
L 542.930775 134.505535 
L 547.027671 134.505528 
L 551.124568 134.505502 
L 555.221464 134.505451 
L 559.318361 134.505443 
L 563.415257 134.505429 
L 567.512154 134.505405 
L 571.609051 134.505389 
L 575.705947 134.505382 
L 579.802844 134.505372 
L 583.89974 134.50536 
L 587.996637 134.505354 
L 592.093533 134.505326 
L 596.19043 134.505329 
" style="fill:none;stroke:#7f7f7f;stroke-linecap:round;stroke-width:4;"/>
   </g>
   <g id="line2d_29">
    <path clip-path="url(#p1e96725dc3)" d="M 495.816465 134.50625 
L 495.816465 31.43625 
" style="fill:none;stroke:#7f7f7f;stroke-dasharray:7.4,3.2;stroke-dashoffset:0;stroke-width:2;"/>
   </g>
   <g id="line2d_30">
    <path clip-path="url(#p1e96725dc3)" d="M 395.4425 134.50625 
L 596.19043 134.50625 
" style="fill:none;stroke:#7f7f7f;stroke-dasharray:7.4,3.2;stroke-dashoffset:0;stroke-width:2;"/>
   </g>
   <g id="line2d_31">
    <path clip-path="url(#p1e96725dc3)" d="M 395.4425 102.087598 
L 399.539397 103.351618 
L 403.636293 104.618474 
L 407.73319 105.888533 
L 411.830086 107.162158 
L 415.926983 108.439687 
L 420.023879 109.721441 
L 424.120776 111.007714 
L 428.217672 112.298825 
L 432.314569 113.59507 
L 436.411465 114.896712 
L 440.508362 116.204098 
L 444.605258 117.517506 
L 448.702155 118.83732 
L 452.799051 120.163971 
L 456.895948 121.497886 
L 460.992844 122.839468 
L 465.089741 124.188985 
L 469.186637 125.546538 
L 473.283534 126.912061 
L 477.38043 128.285027 
L 481.477327 129.664727 
L 485.574224 131.049036 
L 489.67112 132.434987 
L 493.768017 133.817765 
L 497.864913 135.192232 
L 501.96181 136.555034 
L 506.058706 137.906008 
L 510.155603 139.2468 
L 514.252499 140.580327 
L 518.349396 141.908857 
L 522.446292 143.234468 
L 526.543189 144.559125 
L 530.640085 145.884278 
L 534.736982 147.21024 
L 538.833878 148.538418 
L 542.930775 149.869071 
L 547.027671 151.203508 
L 551.124568 152.538589 
L 555.221464 153.877031 
L 559.318361 155.218989 
L 563.415257 156.56365 
L 567.512154 157.912059 
L 571.609051 159.262817 
L 575.705947 160.61581 
L 579.802844 161.968624 
L 583.89974 163.325252 
L 587.996637 164.684865 
L 592.093533 166.047805 
L 596.19043 167.408555 
" style="fill:none;stroke:#d62728;stroke-linecap:round;stroke-width:4;"/>
   </g>
   <g id="line2d_32">
    <path clip-path="url(#p1e96725dc3)" d="M 495.816465 134.50625 
L 495.816465 31.43625 
" style="fill:none;stroke:#7f7f7f;stroke-dasharray:7.4,3.2;stroke-dashoffset:0;stroke-width:2;"/>
   </g>
   <g id="line2d_33">
    <path clip-path="url(#p1e96725dc3)" d="M 395.4425 134.50625 
L 596.19043 134.50625 
" style="fill:none;stroke:#7f7f7f;stroke-dasharray:7.4,3.2;stroke-dashoffset:0;stroke-width:2;"/>
   </g>
   <g id="line2d_34">
    <path clip-path="url(#p1e96725dc3)" d="M 395.4425 113.641748 
L 399.539397 114.712721 
L 403.636293 115.777554 
L 407.73319 116.832275 
L 411.830086 117.874374 
L 415.926983 118.902084 
L 420.023879 119.91398 
L 424.120776 120.908803 
L 428.217672 121.885302 
L 432.314569 122.842268 
L 436.411465 123.778544 
L 440.508362 124.692888 
L 444.605258 125.58423 
L 448.702155 126.451505 
L 452.799051 127.293777 
L 456.895948 128.110268 
L 460.992844 128.900366 
L 465.089741 129.66353 
L 469.186637 130.399112 
L 473.283534 131.106145 
L 477.38043 131.783649 
L 481.477327 132.4307 
L 485.574224 133.048635 
L 489.67112 133.641631 
L 493.768017 134.219234 
L 497.864913 134.793886 
L 501.96181 135.376099 
L 506.058706 135.970034 
L 510.155603 136.575197 
L 514.252499 137.187091 
L 518.349396 137.800712 
L 522.446292 138.411412 
L 526.543189 139.012861 
L 530.640085 139.600738 
L 534.736982 140.17157 
L 538.833878 140.723289 
L 542.930775 141.255452 
L 547.027671 141.766723 
L 551.124568 142.263779 
L 555.221464 142.745133 
L 559.318361 143.209386 
L 563.415257 143.660288 
L 567.512154 144.099418 
L 571.609051 144.516777 
L 575.705947 144.936002 
L 579.802844 145.333239 
L 583.89974 145.713672 
L 587.996637 146.075654 
L 592.093533 146.407427 
L 596.19043 146.737932 
" style="fill:none;stroke:#17becf;stroke-linecap:round;stroke-width:4;"/>
   </g>
   <g id="line2d_35">
    <path clip-path="url(#p1e96725dc3)" d="M 495.816465 134.50625 
L 495.816465 31.43625 
" style="fill:none;stroke:#7f7f7f;stroke-dasharray:7.4,3.2;stroke-dashoffset:0;stroke-width:2;"/>
   </g>
   <g id="line2d_36">
    <path clip-path="url(#p1e96725dc3)" d="M 395.4425 134.50625 
L 596.19043 134.50625 
" style="fill:none;stroke:#7f7f7f;stroke-dasharray:7.4,3.2;stroke-dashoffset:0;stroke-width:2;"/>
   </g>
   <g id="patch_8">
    <path d="M 395.4425 134.50625 
L 395.4425 31.43625 
" style="fill:none;stroke:#262626;stroke-linecap:square;stroke-linejoin:miter;stroke-width:2.5;"/>
   </g>
   <g id="patch_9">
    <path d="M 596.19043 134.50625 
L 596.19043 31.43625 
" style="fill:none;stroke:#262626;stroke-linecap:square;stroke-linejoin:miter;stroke-width:2.5;"/>
   </g>
   <g id="patch_10">
    <path d="M 395.4425 134.50625 
L 596.19043 134.50625 
" style="fill:none;stroke:#262626;stroke-linecap:square;stroke-linejoin:miter;stroke-width:2.5;"/>
   </g>
   <g id="patch_11">
    <path d="M 395.4425 31.43625 
L 596.19043 31.43625 
" style="fill:none;stroke:#262626;stroke-linecap:square;stroke-linejoin:miter;stroke-width:2.5;"/>
   </g>
   <g id="text_18">
    <!-- IL7 -->
    <defs>
     <path d="M 9.8125 72.90625 
L 19.671875 72.90625 
L 19.671875 0 
L 9.8125 0 
z
" id="DejaVuSans-73"/>
     <path d="M 9.8125 72.90625 
L 19.671875 72.90625 
L 19.671875 8.296875 
L 55.171875 8.296875 
L 55.171875 0 
L 9.8125 0 
z
" id="DejaVuSans-76"/>
     <path d="M 8.203125 72.90625 
L 55.078125 72.90625 
L 55.078125 68.703125 
L 28.609375 0 
L 18.3125 0 
L 43.21875 64.59375 
L 8.203125 64.59375 
z
" id="DejaVuSans-55"/>
    </defs>
    <g style="fill:#262626;" transform="translate(477.955215 25.43625)scale(0.24 -0.24)">
     <use xlink:href="#DejaVuSans-73"/>
     <use x="29.492188" xlink:href="#DejaVuSans-76"/>
     <use x="85.205078" xlink:href="#DejaVuSans-55"/>
    </g>
   </g>
  </g>
  <g id="axes_3">
   <g id="patch_12">
    <path d="M 712.9625 134.50625 
L 913.71043 134.50625 
L 913.71043 31.43625 
L 712.9625 31.43625 
z
" style="fill:#ffffff;"/>
   </g>
   <g id="matplotlib.axis_5">
    <g id="xtick_7">
     <g id="line2d_37">
      <g>
       <use style="fill:#262626;stroke:#262626;stroke-width:2.5;" x="712.9625" xlink:href="#m5f46ffb6df" y="134.50625"/>
      </g>
     </g>
     <g id="text_19">
      <!-- $\mathdefault{10^{0}}$ -->
      <g style="fill:#262626;" transform="translate(693.6025 166.722812)scale(0.22 -0.22)">
       <use transform="translate(0 0.765625)" xlink:href="#DejaVuSans-49"/>
       <use transform="translate(63.623047 0.765625)" xlink:href="#DejaVuSans-48"/>
       <use transform="translate(128.203125 39.046875)scale(0.7)" xlink:href="#DejaVuSans-48"/>
      </g>
     </g>
    </g>
    <g id="xtick_8">
     <g id="line2d_38">
      <g>
       <use style="fill:#262626;stroke:#262626;stroke-width:2.5;" x="813.336465" xlink:href="#m5f46ffb6df" y="134.50625"/>
      </g>
     </g>
     <g id="text_20">
      <!-- $\mathdefault{10^{1}}$ -->
      <g style="fill:#262626;" transform="translate(793.976465 166.722812)scale(0.22 -0.22)">
       <use transform="translate(0 0.684375)" xlink:href="#DejaVuSans-49"/>
       <use transform="translate(63.623047 0.684375)" xlink:href="#DejaVuSans-48"/>
       <use transform="translate(128.203125 38.965625)scale(0.7)" xlink:href="#DejaVuSans-49"/>
      </g>
     </g>
    </g>
    <g id="xtick_9">
     <g id="line2d_39">
      <g>
       <use style="fill:#262626;stroke:#262626;stroke-width:2.5;" x="913.71043" xlink:href="#m5f46ffb6df" y="134.50625"/>
      </g>
     </g>
     <g id="text_21">
      <!-- $\mathdefault{10^{2}}$ -->
      <g style="fill:#262626;" transform="translate(894.35043 166.722812)scale(0.22 -0.22)">
       <use transform="translate(0 0.765625)" xlink:href="#DejaVuSans-49"/>
       <use transform="translate(63.623047 0.765625)" xlink:href="#DejaVuSans-48"/>
       <use transform="translate(128.203125 39.046875)scale(0.7)" xlink:href="#DejaVuSans-50"/>
      </g>
     </g>
    </g>
    <g id="text_22">
     <!-- $\beta$ -->
     <g style="fill:#262626;" transform="translate(805.656465 193.778125)scale(0.24 -0.24)">
      <use transform="translate(0 0.390625)" xlink:href="#DejaVuSans-Oblique-946"/>
     </g>
    </g>
   </g>
   <g id="matplotlib.axis_6">
    <g id="ytick_7">
     <g id="line2d_40">
      <g>
       <use style="fill:#262626;stroke:#262626;stroke-width:2.5;" x="712.9625" xlink:href="#m888f7a7026" y="134.50625"/>
      </g>
     </g>
     <g id="text_23">
      <!-- 0 -->
      <g style="fill:#262626;" transform="translate(683.465 142.864531)scale(0.22 -0.22)">
       <use xlink:href="#DejaVuSans-48"/>
      </g>
     </g>
    </g>
    <g id="ytick_8">
     <g id="line2d_41">
      <g>
       <use style="fill:#262626;stroke:#262626;stroke-width:2.5;" x="712.9625" xlink:href="#m888f7a7026" y="82.97125"/>
      </g>
     </g>
     <g id="text_24">
      <!-- 5 -->
      <g style="fill:#262626;" transform="translate(683.465 91.329531)scale(0.22 -0.22)">
       <use xlink:href="#DejaVuSans-53"/>
      </g>
     </g>
    </g>
    <g id="ytick_9">
     <g id="line2d_42">
      <g>
       <use style="fill:#262626;stroke:#262626;stroke-width:2.5;" x="712.9625" xlink:href="#m888f7a7026" y="31.43625"/>
      </g>
     </g>
     <g id="text_25">
      <!-- 10 -->
      <g style="fill:#262626;" transform="translate(669.4675 39.794531)scale(0.22 -0.22)">
       <use xlink:href="#DejaVuSans-49"/>
       <use x="63.623047" xlink:href="#DejaVuSans-48"/>
      </g>
     </g>
    </g>
    <g id="text_26">
     <!-- log2FC -->
     <g style="fill:#262626;" transform="translate(660.47625 124.181875)rotate(-90)scale(0.24 -0.24)">
      <use xlink:href="#DejaVuSans-108"/>
      <use x="27.783203" xlink:href="#DejaVuSans-111"/>
      <use x="88.964844" xlink:href="#DejaVuSans-103"/>
      <use x="152.441406" xlink:href="#DejaVuSans-50"/>
      <use x="216.064453" xlink:href="#DejaVuSans-70"/>
      <use x="273.583984" xlink:href="#DejaVuSans-67"/>
     </g>
    </g>
   </g>
   <g id="line2d_43">
    <path clip-path="url(#pd9eca9658b)" d="M 712.9625 149.809879 
L 717.059397 149.065026 
L 721.156293 148.259066 
L 725.25319 147.480771 
L 729.350086 146.626691 
L 733.446983 145.901712 
L 737.543879 145.212172 
L 741.640776 144.36226 
L 745.737672 143.756264 
L 749.834569 142.958116 
L 753.931465 142.338368 
L 758.028362 141.656618 
L 762.125258 141.005621 
L 766.222155 140.361975 
L 770.319051 139.772113 
L 774.415948 139.181159 
L 778.512844 138.602058 
L 782.609741 138.057827 
L 786.706637 137.528974 
L 790.803534 137.015862 
L 794.90043 136.531324 
L 798.997327 136.06902 
L 803.094224 135.602822 
L 807.19112 135.155279 
L 811.288017 134.718152 
L 815.384913 134.296333 
L 819.48181 133.87603 
L 823.578706 133.466211 
L 827.675603 133.06624 
L 831.772499 132.679999 
L 835.869396 132.30579 
L 839.966292 131.946891 
L 844.063189 131.604402 
L 848.160085 131.2781 
L 852.256982 130.967074 
L 856.353878 130.674297 
L 860.450775 130.398615 
L 864.547671 130.14022 
L 868.644568 129.895118 
L 872.741464 129.664849 
L 876.838361 129.450854 
L 880.935257 129.250446 
L 885.032154 129.062419 
L 889.129051 128.891782 
L 893.225947 128.724257 
L 897.322844 128.571756 
L 901.41974 128.429786 
L 905.516637 128.297641 
L 909.613533 128.179589 
L 913.71043 128.060805 
" style="fill:none;stroke:#1a1a1a;stroke-linecap:round;stroke-width:4;"/>
   </g>
   <g id="line2d_44">
    <path clip-path="url(#pd9eca9658b)" d="M 813.336465 134.50625 
L 813.336465 31.43625 
" style="fill:none;stroke:#7f7f7f;stroke-dasharray:7.4,3.2;stroke-dashoffset:0;stroke-width:2;"/>
   </g>
   <g id="line2d_45">
    <path clip-path="url(#pd9eca9658b)" d="M 712.9625 134.50625 
L 913.71043 134.50625 
" style="fill:none;stroke:#7f7f7f;stroke-dasharray:7.4,3.2;stroke-dashoffset:0;stroke-width:2;"/>
   </g>
   <g id="line2d_46">
    <path clip-path="url(#pd9eca9658b)" d="M 712.9625 132.258352 
L 717.059397 132.482863 
L 721.156293 132.637034 
L 725.25319 132.795818 
L 729.350086 132.862413 
L 733.446983 133.032599 
L 737.543879 133.217384 
L 741.640776 133.224121 
L 745.737672 133.456118 
L 749.834569 133.465087 
L 753.931465 133.644136 
L 758.028362 133.727958 
L 762.125258 133.819356 
L 766.222155 133.886958 
L 770.319051 133.997636 
L 774.415948 134.070768 
L 778.512844 134.119921 
L 782.609741 134.188919 
L 786.706637 134.240727 
L 790.803534 134.27285 
L 794.90043 134.330798 
L 798.997327 134.413779 
L 803.094224 134.416726 
L 807.19112 134.441456 
L 811.288017 134.458989 
L 815.384913 134.564501 
L 819.48181 134.582256 
L 823.578706 134.616396 
L 827.675603 134.589419 
L 831.772499 134.64415 
L 835.869396 134.643388 
L 839.966292 134.653267 
L 844.063189 134.723514 
L 848.160085 134.72937 
L 852.256982 134.746072 
L 856.353878 134.759289 
L 860.450775 134.784798 
L 864.547671 134.792129 
L 868.644568 134.778541 
L 872.741464 134.809297 
L 876.838361 134.812932 
L 880.935257 134.806401 
L 885.032154 134.812311 
L 889.129051 134.81358 
L 893.225947 134.842604 
L 897.322844 134.829166 
L 901.41974 134.836198 
L 905.516637 134.844905 
L 909.613533 134.853467 
L 913.71043 134.848515 
" style="fill:none;stroke:#7f7f7f;stroke-linecap:round;stroke-width:4;"/>
   </g>
   <g id="line2d_47">
    <path clip-path="url(#pd9eca9658b)" d="M 813.336465 134.50625 
L 813.336465 31.43625 
" style="fill:none;stroke:#7f7f7f;stroke-dasharray:7.4,3.2;stroke-dashoffset:0;stroke-width:2;"/>
   </g>
   <g id="line2d_48">
    <path clip-path="url(#pd9eca9658b)" d="M 712.9625 134.50625 
L 913.71043 134.50625 
" style="fill:none;stroke:#7f7f7f;stroke-dasharray:7.4,3.2;stroke-dashoffset:0;stroke-width:2;"/>
   </g>
   <g id="line2d_49">
    <path clip-path="url(#pd9eca9658b)" d="M 712.9625 102.395939 
L 717.059397 103.722673 
L 721.156293 105.024171 
L 725.25319 106.328311 
L 729.350086 107.602975 
L 733.446983 108.912732 
L 737.543879 110.228654 
L 741.640776 111.488665 
L 745.737672 112.821896 
L 749.834569 114.088934 
L 753.931465 115.409359 
L 758.028362 116.705615 
L 762.125258 118.008018 
L 766.222155 119.309066 
L 770.319051 120.624366 
L 774.415948 121.935777 
L 778.512844 123.247571 
L 782.609741 124.567429 
L 786.706637 125.888618 
L 790.803534 127.211013 
L 794.90043 128.538737 
L 798.997327 129.86939 
L 803.094224 131.193806 
L 807.19112 132.519571 
L 811.288017 133.843761 
L 815.384913 135.168124 
L 819.48181 136.487935 
L 823.578706 137.806487 
L 827.675603 139.123542 
L 831.772499 140.440872 
L 835.869396 141.75788 
L 839.966292 143.076039 
L 844.063189 144.396006 
L 848.160085 145.718145 
L 852.256982 147.041725 
L 856.353878 148.368712 
L 860.450775 149.698782 
L 864.547671 151.032745 
L 868.644568 152.36758 
L 872.741464 153.705847 
L 876.838361 155.047738 
L 880.935257 156.392354 
L 885.032154 157.740737 
L 889.129051 159.091482 
L 893.225947 160.444471 
L 897.322844 161.797282 
L 901.41974 163.153908 
L 905.516637 164.513521 
L 909.613533 165.87646 
L 913.71043 167.237209 
" style="fill:none;stroke:#d62728;stroke-linecap:round;stroke-width:4;"/>
   </g>
   <g id="line2d_50">
    <path clip-path="url(#pd9eca9658b)" d="M 813.336465 134.50625 
L 813.336465 31.43625 
" style="fill:none;stroke:#7f7f7f;stroke-dasharray:7.4,3.2;stroke-dashoffset:0;stroke-width:2;"/>
   </g>
   <g id="line2d_51">
    <path clip-path="url(#pd9eca9658b)" d="M 712.9625 134.50625 
L 913.71043 134.50625 
" style="fill:none;stroke:#7f7f7f;stroke-dasharray:7.4,3.2;stroke-dashoffset:0;stroke-width:2;"/>
   </g>
   <g id="line2d_52">
    <path clip-path="url(#pd9eca9658b)" d="M 712.9625 110.182905 
L 717.059397 111.292243 
L 721.156293 112.384734 
L 725.25319 113.472252 
L 729.350086 114.538206 
L 733.446983 115.617858 
L 737.543879 116.694984 
L 741.640776 117.733203 
L 745.737672 118.810744 
L 749.834569 119.83529 
L 753.931465 120.891682 
L 758.028362 121.918523 
L 762.125258 122.939162 
L 766.222155 123.94376 
L 770.319051 124.952767 
L 774.415948 125.939322 
L 778.512844 126.90496 
L 782.609741 127.865755 
L 786.706637 128.805519 
L 790.803534 129.720442 
L 794.90043 130.633376 
L 798.997327 131.546826 
L 803.094224 132.396932 
L 807.19112 133.24365 
L 811.288017 134.069271 
L 815.384913 134.95012 
L 819.48181 135.749845 
L 823.578706 136.549489 
L 827.675603 137.278051 
L 831.772499 138.067811 
L 835.869396 138.788224 
L 839.966292 139.50138 
L 844.063189 140.260991 
L 848.160085 140.932809 
L 852.256982 141.597178 
L 856.353878 142.235026 
L 860.450775 142.864245 
L 864.547671 143.448419 
L 868.644568 143.98637 
L 872.741464 144.553278 
L 876.838361 145.062227 
L 880.935257 145.53505 
L 885.032154 145.999647 
L 889.129051 146.429426 
L 893.225947 146.879036 
L 897.322844 147.250816 
L 901.41974 147.624668 
L 905.516637 147.979043 
L 909.613533 148.306067 
L 913.71043 148.60961 
" style="fill:none;stroke:#17becf;stroke-linecap:round;stroke-width:4;"/>
   </g>
   <g id="line2d_53">
    <path clip-path="url(#pd9eca9658b)" d="M 813.336465 134.50625 
L 813.336465 31.43625 
" style="fill:none;stroke:#7f7f7f;stroke-dasharray:7.4,3.2;stroke-dashoffset:0;stroke-width:2;"/>
   </g>
   <g id="line2d_54">
    <path clip-path="url(#pd9eca9658b)" d="M 712.9625 134.50625 
L 913.71043 134.50625 
" style="fill:none;stroke:#7f7f7f;stroke-dasharray:7.4,3.2;stroke-dashoffset:0;stroke-width:2;"/>
   </g>
   <g id="patch_13">
    <path d="M 712.9625 134.50625 
L 712.9625 31.43625 
" style="fill:none;stroke:#262626;stroke-linecap:square;stroke-linejoin:miter;stroke-width:2.5;"/>
   </g>
   <g id="patch_14">
    <path d="M 913.71043 134.50625 
L 913.71043 31.43625 
" style="fill:none;stroke:#262626;stroke-linecap:square;stroke-linejoin:miter;stroke-width:2.5;"/>
   </g>
   <g id="patch_15">
    <path d="M 712.9625 134.50625 
L 913.71043 134.50625 
" style="fill:none;stroke:#262626;stroke-linecap:square;stroke-linejoin:miter;stroke-width:2.5;"/>
   </g>
   <g id="patch_16">
    <path d="M 712.9625 31.43625 
L 913.71043 31.43625 
" style="fill:none;stroke:#262626;stroke-linecap:square;stroke-linejoin:miter;stroke-width:2.5;"/>
   </g>
   <g id="text_27">
    <!-- IL2 -->
    <g style="fill:#262626;" transform="translate(795.475215 25.43625)scale(0.24 -0.24)">
     <use xlink:href="#DejaVuSans-73"/>
     <use x="29.492188" xlink:href="#DejaVuSans-76"/>
     <use x="85.205078" xlink:href="#DejaVuSans-50"/>
    </g>
   </g>
  </g>
  <g id="axes_4">
   <g id="patch_17">
    <path d="M 1030.4825 134.50625 
L 1231.23043 134.50625 
L 1231.23043 31.43625 
L 1030.4825 31.43625 
z
" style="fill:#ffffff;"/>
   </g>
   <g id="matplotlib.axis_7">
    <g id="xtick_10">
     <g id="line2d_55">
      <g>
       <use style="fill:#262626;stroke:#262626;stroke-width:2.5;" x="1030.4825" xlink:href="#m5f46ffb6df" y="134.50625"/>
      </g>
     </g>
     <g id="text_28">
      <!-- $\mathdefault{10^{0}}$ -->
      <g style="fill:#262626;" transform="translate(1011.1225 166.722812)scale(0.22 -0.22)">
       <use transform="translate(0 0.765625)" xlink:href="#DejaVuSans-49"/>
       <use transform="translate(63.623047 0.765625)" xlink:href="#DejaVuSans-48"/>
       <use transform="translate(128.203125 39.046875)scale(0.7)" xlink:href="#DejaVuSans-48"/>
      </g>
     </g>
    </g>
    <g id="xtick_11">
     <g id="line2d_56">
      <g>
       <use style="fill:#262626;stroke:#262626;stroke-width:2.5;" x="1130.856465" xlink:href="#m5f46ffb6df" y="134.50625"/>
      </g>
     </g>
     <g id="text_29">
      <!-- $\mathdefault{10^{1}}$ -->
      <g style="fill:#262626;" transform="translate(1111.496465 166.722812)scale(0.22 -0.22)">
       <use transform="translate(0 0.684375)" xlink:href="#DejaVuSans-49"/>
       <use transform="translate(63.623047 0.684375)" xlink:href="#DejaVuSans-48"/>
       <use transform="translate(128.203125 38.965625)scale(0.7)" xlink:href="#DejaVuSans-49"/>
      </g>
     </g>
    </g>
    <g id="xtick_12">
     <g id="line2d_57">
      <g>
       <use style="fill:#262626;stroke:#262626;stroke-width:2.5;" x="1231.23043" xlink:href="#m5f46ffb6df" y="134.50625"/>
      </g>
     </g>
     <g id="text_30">
      <!-- $\mathdefault{10^{2}}$ -->
      <g style="fill:#262626;" transform="translate(1211.87043 166.722812)scale(0.22 -0.22)">
       <use transform="translate(0 0.765625)" xlink:href="#DejaVuSans-49"/>
       <use transform="translate(63.623047 0.765625)" xlink:href="#DejaVuSans-48"/>
       <use transform="translate(128.203125 39.046875)scale(0.7)" xlink:href="#DejaVuSans-50"/>
      </g>
     </g>
    </g>
    <g id="text_31">
     <!-- $\beta$ -->
     <g style="fill:#262626;" transform="translate(1123.176465 193.778125)scale(0.24 -0.24)">
      <use transform="translate(0 0.390625)" xlink:href="#DejaVuSans-Oblique-946"/>
     </g>
    </g>
   </g>
   <g id="matplotlib.axis_8">
    <g id="ytick_10">
     <g id="line2d_58">
      <g>
       <use style="fill:#262626;stroke:#262626;stroke-width:2.5;" x="1030.4825" xlink:href="#m888f7a7026" y="134.50625"/>
      </g>
     </g>
     <g id="text_32">
      <!-- 0 -->
      <g style="fill:#262626;" transform="translate(1000.985 142.864531)scale(0.22 -0.22)">
       <use xlink:href="#DejaVuSans-48"/>
      </g>
     </g>
    </g>
    <g id="ytick_11">
     <g id="line2d_59">
      <g>
       <use style="fill:#262626;stroke:#262626;stroke-width:2.5;" x="1030.4825" xlink:href="#m888f7a7026" y="82.97125"/>
      </g>
     </g>
     <g id="text_33">
      <!-- 5 -->
      <g style="fill:#262626;" transform="translate(1000.985 91.329531)scale(0.22 -0.22)">
       <use xlink:href="#DejaVuSans-53"/>
      </g>
     </g>
    </g>
    <g id="ytick_12">
     <g id="line2d_60">
      <g>
       <use style="fill:#262626;stroke:#262626;stroke-width:2.5;" x="1030.4825" xlink:href="#m888f7a7026" y="31.43625"/>
      </g>
     </g>
     <g id="text_34">
      <!-- 10 -->
      <g style="fill:#262626;" transform="translate(986.9875 39.794531)scale(0.22 -0.22)">
       <use xlink:href="#DejaVuSans-49"/>
       <use x="63.623047" xlink:href="#DejaVuSans-48"/>
      </g>
     </g>
    </g>
    <g id="text_35">
     <!-- log2FC -->
     <g style="fill:#262626;" transform="translate(977.99625 124.181875)rotate(-90)scale(0.24 -0.24)">
      <use xlink:href="#DejaVuSans-108"/>
      <use x="27.783203" xlink:href="#DejaVuSans-111"/>
      <use x="88.964844" xlink:href="#DejaVuSans-103"/>
      <use x="152.441406" xlink:href="#DejaVuSans-50"/>
      <use x="216.064453" xlink:href="#DejaVuSans-70"/>
      <use x="273.583984" xlink:href="#DejaVuSans-67"/>
     </g>
    </g>
   </g>
   <g id="line2d_61">
    <path clip-path="url(#p4569bb1bbf)" d="M 1030.4825 158.031543 
L 1034.579397 156.770415 
L 1038.676293 155.529135 
L 1042.77319 154.309435 
L 1046.870086 153.112523 
L 1050.966983 151.939597 
L 1055.063879 150.789315 
L 1059.160776 149.657595 
L 1063.257672 148.541473 
L 1067.354569 147.434024 
L 1071.451465 146.30112 
L 1075.548362 145.178365 
L 1079.645258 143.978316 
L 1083.742155 142.719896 
L 1087.839051 141.494985 
L 1091.935948 140.29242 
L 1096.032844 139.182664 
L 1100.129741 138.079591 
L 1104.226637 137.211013 
L 1108.323534 136.456964 
L 1112.42043 135.872836 
L 1116.517327 135.457231 
L 1120.614224 135.171328 
L 1124.71112 134.905114 
L 1128.808017 134.641475 
L 1132.904913 134.367069 
L 1137.00181 134.072801 
L 1141.098706 133.757998 
L 1145.195603 133.427086 
L 1149.292499 133.08784 
L 1153.389396 132.746984 
L 1157.486292 132.409384 
L 1161.583189 132.080329 
L 1165.680085 131.762588 
L 1169.776982 131.458307 
L 1173.873878 131.168882 
L 1177.970775 130.894824 
L 1182.067671 130.637736 
L 1186.164568 130.393319 
L 1190.261464 130.163532 
L 1194.358361 129.949722 
L 1198.455257 129.749434 
L 1202.552154 129.561476 
L 1206.649051 129.390876 
L 1210.745947 129.223361 
L 1214.842844 129.070868 
L 1218.93974 128.928901 
L 1223.036637 128.796759 
L 1227.133533 128.678708 
L 1231.23043 128.559924 
" style="fill:none;stroke:#1a1a1a;stroke-linecap:round;stroke-width:4;"/>
   </g>
   <g id="line2d_62">
    <path clip-path="url(#p4569bb1bbf)" d="M 1130.856465 134.50625 
L 1130.856465 31.43625 
" style="fill:none;stroke:#7f7f7f;stroke-dasharray:7.4,3.2;stroke-dashoffset:0;stroke-width:2;"/>
   </g>
   <g id="line2d_63">
    <path clip-path="url(#p4569bb1bbf)" d="M 1030.4825 134.50625 
L 1231.23043 134.50625 
" style="fill:none;stroke:#7f7f7f;stroke-dasharray:7.4,3.2;stroke-dashoffset:0;stroke-width:2;"/>
   </g>
   <g id="line2d_64">
    <path clip-path="url(#p4569bb1bbf)" d="M 1030.4825 140.642083 
L 1034.579397 140.641423 
L 1038.676293 140.64059 
L 1042.77319 140.639152 
L 1046.870086 140.635582 
L 1050.966983 140.63045 
L 1055.063879 140.61899 
L 1059.160776 140.597202 
L 1063.257672 140.565862 
L 1067.354569 140.5195 
L 1071.451465 140.428632 
L 1075.548362 140.326355 
L 1079.645258 140.131926 
L 1083.742155 139.846518 
L 1087.839051 139.519 
L 1091.935948 139.112401 
L 1096.032844 138.668703 
L 1100.129741 138.056025 
L 1104.226637 137.543443 
L 1108.323534 136.970108 
L 1112.42043 136.424301 
L 1116.517327 135.908468 
L 1120.614224 135.430775 
L 1124.71112 135.039546 
L 1128.808017 134.654727 
L 1132.904913 134.37146 
L 1137.00181 134.062105 
L 1141.098706 133.830962 
L 1145.195603 133.581844 
L 1149.292499 133.417698 
L 1153.389396 133.298087 
L 1157.486292 133.088137 
L 1161.583189 132.978597 
L 1165.680085 132.897215 
L 1169.776982 132.789351 
L 1173.873878 132.674647 
L 1177.970775 132.631114 
L 1182.067671 132.5559 
L 1186.164568 132.490381 
L 1190.261464 132.448693 
L 1194.358361 132.349977 
L 1198.455257 132.315526 
L 1202.552154 132.248213 
L 1206.649051 132.251583 
L 1210.745947 132.228243 
L 1214.842844 132.186981 
L 1218.93974 132.168273 
L 1223.036637 132.142209 
L 1227.133533 132.123334 
L 1231.23043 132.097567 
" style="fill:none;stroke:#7f7f7f;stroke-linecap:round;stroke-width:4;"/>
   </g>
   <g id="line2d_65">
    <path clip-path="url(#p4569bb1bbf)" d="M 1130.856465 134.50625 
L 1130.856465 31.43625 
" style="fill:none;stroke:#7f7f7f;stroke-dasharray:7.4,3.2;stroke-dashoffset:0;stroke-width:2;"/>
   </g>
   <g id="line2d_66">
    <path clip-path="url(#p4569bb1bbf)" d="M 1030.4825 134.50625 
L 1231.23043 134.50625 
" style="fill:none;stroke:#7f7f7f;stroke-dasharray:7.4,3.2;stroke-dashoffset:0;stroke-width:2;"/>
   </g>
   <g id="line2d_67">
    <path clip-path="url(#p4569bb1bbf)" d="M 1030.4825 103.901104 
L 1034.579397 105.169687 
L 1038.676293 106.43472 
L 1042.77319 107.696976 
L 1046.870086 108.958316 
L 1050.966983 110.218952 
L 1055.063879 111.483227 
L 1059.160776 112.752987 
L 1063.257672 114.022535 
L 1067.354569 115.288969 
L 1071.451465 116.55339 
L 1075.548362 117.791127 
L 1079.645258 118.999957 
L 1083.742155 120.158287 
L 1087.839051 121.285029 
L 1091.935948 122.391133 
L 1096.032844 123.515764 
L 1100.129741 124.633557 
L 1104.226637 125.822905 
L 1108.323534 127.047136 
L 1112.42043 128.328024 
L 1116.517327 129.666654 
L 1120.614224 131.049036 
L 1124.71112 132.434987 
L 1128.808017 133.817765 
L 1132.904913 135.192232 
L 1137.00181 136.555034 
L 1141.098706 137.906008 
L 1145.195603 139.2468 
L 1149.292499 140.580327 
L 1153.389396 141.908857 
L 1157.486292 143.234468 
L 1161.583189 144.559125 
L 1165.680085 145.884278 
L 1169.776982 147.21024 
L 1173.873878 148.538418 
L 1177.970775 149.869071 
L 1182.067671 151.203508 
L 1186.164568 152.538589 
L 1190.261464 153.877031 
L 1194.358361 155.218989 
L 1198.455257 156.56365 
L 1202.552154 157.912059 
L 1206.649051 159.262817 
L 1210.745947 160.61581 
L 1214.842844 161.968624 
L 1218.93974 163.325252 
L 1223.036637 164.684865 
L 1227.133533 166.047805 
L 1231.23043 167.408555 
" style="fill:none;stroke:#d62728;stroke-linecap:round;stroke-width:4;"/>
   </g>
   <g id="line2d_68">
    <path clip-path="url(#p4569bb1bbf)" d="M 1130.856465 134.50625 
L 1130.856465 31.43625 
" style="fill:none;stroke:#7f7f7f;stroke-dasharray:7.4,3.2;stroke-dashoffset:0;stroke-width:2;"/>
   </g>
   <g id="line2d_69">
    <path clip-path="url(#p4569bb1bbf)" d="M 1030.4825 134.50625 
L 1231.23043 134.50625 
" style="fill:none;stroke:#7f7f7f;stroke-dasharray:7.4,3.2;stroke-dashoffset:0;stroke-width:2;"/>
   </g>
   <g id="line2d_70">
    <path clip-path="url(#p4569bb1bbf)" d="M 1030.4825 111.88465 
L 1034.579397 113.149155 
L 1038.676293 114.402445 
L 1042.77319 115.64386 
L 1046.870086 116.873118 
L 1050.966983 118.09001 
L 1055.063879 119.294883 
L 1059.160776 120.488533 
L 1063.257672 121.671264 
L 1067.354569 122.843631 
L 1071.451465 124.009319 
L 1075.548362 125.159057 
L 1079.645258 126.296703 
L 1083.742155 127.404066 
L 1087.839051 128.459791 
L 1091.935948 129.449209 
L 1096.032844 130.362725 
L 1100.129741 131.156449 
L 1104.226637 131.884541 
L 1108.323534 132.494347 
L 1112.42043 133.00773 
L 1116.517327 133.41987 
L 1120.614224 133.746852 
L 1124.71112 134.073162 
L 1128.808017 134.347741 
L 1132.904913 134.668088 
L 1137.00181 134.927512 
L 1141.098706 135.234198 
L 1145.195603 135.494221 
L 1149.292499 135.822874 
L 1153.389396 136.182292 
L 1157.486292 136.41303 
L 1161.583189 136.744451 
L 1165.680085 137.093459 
L 1169.776982 137.392589 
L 1173.873878 137.667479 
L 1177.970775 138.018454 
L 1182.067671 138.315969 
L 1186.164568 138.617504 
L 1190.261464 138.939547 
L 1194.358361 139.189683 
L 1198.455257 139.510326 
L 1202.552154 139.802047 
L 1206.649051 140.152284 
L 1210.745947 140.497606 
L 1214.842844 140.837638 
L 1218.93974 141.224642 
L 1223.036637 141.586566 
L 1227.133533 141.918307 
L 1231.23043 142.248817 
" style="fill:none;stroke:#17becf;stroke-linecap:round;stroke-width:4;"/>
   </g>
   <g id="line2d_71">
    <path clip-path="url(#p4569bb1bbf)" d="M 1130.856465 134.50625 
L 1130.856465 31.43625 
" style="fill:none;stroke:#7f7f7f;stroke-dasharray:7.4,3.2;stroke-dashoffset:0;stroke-width:2;"/>
   </g>
   <g id="line2d_72">
    <path clip-path="url(#p4569bb1bbf)" d="M 1030.4825 134.50625 
L 1231.23043 134.50625 
" style="fill:none;stroke:#7f7f7f;stroke-dasharray:7.4,3.2;stroke-dashoffset:0;stroke-width:2;"/>
   </g>
   <g id="patch_18">
    <path d="M 1030.4825 134.50625 
L 1030.4825 31.43625 
" style="fill:none;stroke:#262626;stroke-linecap:square;stroke-linejoin:miter;stroke-width:2.5;"/>
   </g>
   <g id="patch_19">
    <path d="M 1231.23043 134.50625 
L 1231.23043 31.43625 
" style="fill:none;stroke:#262626;stroke-linecap:square;stroke-linejoin:miter;stroke-width:2.5;"/>
   </g>
   <g id="patch_20">
    <path d="M 1030.4825 134.50625 
L 1231.23043 134.50625 
" style="fill:none;stroke:#262626;stroke-linecap:square;stroke-linejoin:miter;stroke-width:2.5;"/>
   </g>
   <g id="patch_21">
    <path d="M 1030.4825 31.43625 
L 1231.23043 31.43625 
" style="fill:none;stroke:#262626;stroke-linecap:square;stroke-linejoin:miter;stroke-width:2.5;"/>
   </g>
   <g id="text_36">
    <!-- Timer -->
    <defs>
     <path d="M -0.296875 72.90625 
L 61.375 72.90625 
L 61.375 64.59375 
L 35.5 64.59375 
L 35.5 0 
L 25.59375 0 
L 25.59375 64.59375 
L -0.296875 64.59375 
z
" id="DejaVuSans-84"/>
     <path d="M 9.421875 54.6875 
L 18.40625 54.6875 
L 18.40625 0 
L 9.421875 0 
z
M 9.421875 75.984375 
L 18.40625 75.984375 
L 18.40625 64.59375 
L 9.421875 64.59375 
z
" id="DejaVuSans-105"/>
     <path d="M 52 44.1875 
Q 55.375 50.25 60.0625 53.125 
Q 64.75 56 71.09375 56 
Q 79.640625 56 84.28125 50.015625 
Q 88.921875 44.046875 88.921875 33.015625 
L 88.921875 0 
L 79.890625 0 
L 79.890625 32.71875 
Q 79.890625 40.578125 77.09375 44.375 
Q 74.3125 48.1875 68.609375 48.1875 
Q 61.625 48.1875 57.5625 43.546875 
Q 53.515625 38.921875 53.515625 30.90625 
L 53.515625 0 
L 44.484375 0 
L 44.484375 32.71875 
Q 44.484375 40.625 41.703125 44.40625 
Q 38.921875 48.1875 33.109375 48.1875 
Q 26.21875 48.1875 22.15625 43.53125 
Q 18.109375 38.875 18.109375 30.90625 
L 18.109375 0 
L 9.078125 0 
L 9.078125 54.6875 
L 18.109375 54.6875 
L 18.109375 46.1875 
Q 21.1875 51.21875 25.484375 53.609375 
Q 29.78125 56 35.6875 56 
Q 41.65625 56 45.828125 52.96875 
Q 50 49.953125 52 44.1875 
z
" id="DejaVuSans-109"/>
     <path d="M 56.203125 29.59375 
L 56.203125 25.203125 
L 14.890625 25.203125 
Q 15.484375 15.921875 20.484375 11.0625 
Q 25.484375 6.203125 34.421875 6.203125 
Q 39.59375 6.203125 44.453125 7.46875 
Q 49.3125 8.734375 54.109375 11.28125 
L 54.109375 2.78125 
Q 49.265625 0.734375 44.1875 -0.34375 
Q 39.109375 -1.421875 33.890625 -1.421875 
Q 20.796875 -1.421875 13.15625 6.1875 
Q 5.515625 13.8125 5.515625 26.8125 
Q 5.515625 40.234375 12.765625 48.109375 
Q 20.015625 56 32.328125 56 
Q 43.359375 56 49.78125 48.890625 
Q 56.203125 41.796875 56.203125 29.59375 
z
M 47.21875 32.234375 
Q 47.125 39.59375 43.09375 43.984375 
Q 39.0625 48.390625 32.421875 48.390625 
Q 24.90625 48.390625 20.390625 44.140625 
Q 15.875 39.890625 15.1875 32.171875 
z
" id="DejaVuSans-101"/>
     <path d="M 41.109375 46.296875 
Q 39.59375 47.171875 37.8125 47.578125 
Q 36.03125 48 33.890625 48 
Q 26.265625 48 22.1875 43.046875 
Q 18.109375 38.09375 18.109375 28.8125 
L 18.109375 0 
L 9.078125 0 
L 9.078125 54.6875 
L 18.109375 54.6875 
L 18.109375 46.1875 
Q 20.953125 51.171875 25.484375 53.578125 
Q 30.03125 56 36.53125 56 
Q 37.453125 56 38.578125 55.875 
Q 39.703125 55.765625 41.0625 55.515625 
z
" id="DejaVuSans-114"/>
    </defs>
    <g style="fill:#262626;" transform="translate(1096.19334 25.43625)scale(0.24 -0.24)">
     <use xlink:href="#DejaVuSans-84"/>
     <use x="61.037109" xlink:href="#DejaVuSans-105"/>
     <use x="88.820312" xlink:href="#DejaVuSans-109"/>
     <use x="186.232422" xlink:href="#DejaVuSans-101"/>
     <use x="247.755859" xlink:href="#DejaVuSans-114"/>
    </g>
   </g>
  </g>
  <g id="axes_5">
   <g id="patch_22">
    <path d="M 77.9225 344.19625 
L 278.67043 344.19625 
L 278.67043 241.12625 
L 77.9225 241.12625 
z
" style="fill:#ffffff;"/>
   </g>
   <g id="matplotlib.axis_9">
    <g id="xtick_13">
     <g id="line2d_73">
      <g>
       <use style="fill:#262626;stroke:#262626;stroke-width:2.5;" x="126.154145" xlink:href="#m5f46ffb6df" y="344.19625"/>
      </g>
     </g>
     <g id="text_37">
      <!-- 25 -->
      <g style="fill:#262626;" transform="translate(112.156645 376.412812)scale(0.22 -0.22)">
       <use xlink:href="#DejaVuSans-50"/>
       <use x="63.623047" xlink:href="#DejaVuSans-53"/>
      </g>
     </g>
    </g>
    <g id="xtick_14">
     <g id="line2d_74">
      <g>
       <use style="fill:#262626;stroke:#262626;stroke-width:2.5;" x="191.332045" xlink:href="#m5f46ffb6df" y="344.19625"/>
      </g>
     </g>
     <g id="text_38">
      <!-- 50 -->
      <g style="fill:#262626;" transform="translate(177.334545 376.412812)scale(0.22 -0.22)">
       <use xlink:href="#DejaVuSans-53"/>
       <use x="63.623047" xlink:href="#DejaVuSans-48"/>
      </g>
     </g>
    </g>
    <g id="xtick_15">
     <g id="line2d_75">
      <g>
       <use style="fill:#262626;stroke:#262626;stroke-width:2.5;" x="256.509944" xlink:href="#m5f46ffb6df" y="344.19625"/>
      </g>
     </g>
     <g id="text_39">
      <!-- 75 -->
      <g style="fill:#262626;" transform="translate(242.512444 376.412812)scale(0.22 -0.22)">
       <use xlink:href="#DejaVuSans-55"/>
       <use x="63.623047" xlink:href="#DejaVuSans-53"/>
      </g>
     </g>
    </g>
    <g id="text_40">
     <!-- $\beta_p$ -->
     <defs>
      <path d="M 49.609375 33.6875 
Q 49.609375 40.875 46.484375 44.671875 
Q 43.359375 48.484375 37.5 48.484375 
Q 33.5 48.484375 29.859375 46.4375 
Q 26.21875 44.390625 23.390625 40.484375 
Q 20.609375 36.625 18.9375 31.15625 
Q 17.28125 25.6875 17.28125 20.3125 
Q 17.28125 13.484375 20.40625 9.796875 
Q 23.53125 6.109375 29.296875 6.109375 
Q 33.546875 6.109375 37.1875 8.109375 
Q 40.828125 10.109375 43.40625 13.921875 
Q 46.1875 17.921875 47.890625 23.34375 
Q 49.609375 28.765625 49.609375 33.6875 
z
M 21.78125 46.390625 
Q 25.390625 51.125 30.296875 53.5625 
Q 35.203125 56 41.21875 56 
Q 49.609375 56 54.25 50.5 
Q 58.890625 45.015625 58.890625 35.109375 
Q 58.890625 27 56 19.65625 
Q 53.125 12.3125 47.703125 6.5 
Q 44.09375 2.640625 39.546875 0.609375 
Q 35.015625 -1.421875 29.984375 -1.421875 
Q 24.171875 -1.421875 20.21875 1 
Q 16.265625 3.421875 14.3125 8.203125 
L 8.6875 -20.796875 
L -0.296875 -20.796875 
L 14.40625 54.6875 
L 23.390625 54.6875 
z
" id="DejaVuSans-Oblique-112"/>
     </defs>
     <g style="fill:#262626;" transform="translate(164.976465 403.468125)scale(0.24 -0.24)">
      <use transform="translate(0 0.390625)" xlink:href="#DejaVuSans-Oblique-946"/>
      <use transform="translate(63.818359 -16.015625)scale(0.7)" xlink:href="#DejaVuSans-Oblique-112"/>
     </g>
    </g>
   </g>
   <g id="matplotlib.axis_10">
    <g id="ytick_13">
     <g id="line2d_76">
      <g>
       <use style="fill:#262626;stroke:#262626;stroke-width:2.5;" x="77.9225" xlink:href="#m888f7a7026" y="344.19625"/>
      </g>
     </g>
     <g id="text_41">
      <!-- 0 -->
      <g style="fill:#262626;" transform="translate(48.425 352.554531)scale(0.22 -0.22)">
       <use xlink:href="#DejaVuSans-48"/>
      </g>
     </g>
    </g>
    <g id="ytick_14">
     <g id="line2d_77">
      <g>
       <use style="fill:#262626;stroke:#262626;stroke-width:2.5;" x="77.9225" xlink:href="#m888f7a7026" y="292.66125"/>
      </g>
     </g>
     <g id="text_42">
      <!-- 5 -->
      <g style="fill:#262626;" transform="translate(48.425 301.019531)scale(0.22 -0.22)">
       <use xlink:href="#DejaVuSans-53"/>
      </g>
     </g>
    </g>
    <g id="ytick_15">
     <g id="line2d_78">
      <g>
       <use style="fill:#262626;stroke:#262626;stroke-width:2.5;" x="77.9225" xlink:href="#m888f7a7026" y="241.12625"/>
      </g>
     </g>
     <g id="text_43">
      <!-- 10 -->
      <g style="fill:#262626;" transform="translate(34.4275 249.484531)scale(0.22 -0.22)">
       <use xlink:href="#DejaVuSans-49"/>
       <use x="63.623047" xlink:href="#DejaVuSans-48"/>
      </g>
     </g>
    </g>
    <g id="text_44">
     <!-- log2FC -->
     <g style="fill:#262626;" transform="translate(25.43625 333.871875)rotate(-90)scale(0.24 -0.24)">
      <use xlink:href="#DejaVuSans-108"/>
      <use x="27.783203" xlink:href="#DejaVuSans-111"/>
      <use x="88.964844" xlink:href="#DejaVuSans-103"/>
      <use x="152.441406" xlink:href="#DejaVuSans-50"/>
      <use x="216.064453" xlink:href="#DejaVuSans-70"/>
      <use x="273.583984" xlink:href="#DejaVuSans-67"/>
     </g>
    </g>
   </g>
   <g id="line2d_79">
    <path clip-path="url(#pd2325cf827)" d="M 87.047406 344.19625 
L 90.771857 343.377084 
L 94.496309 342.266152 
L 98.22076 330.236364 
L 101.945211 286.024921 
L 105.669663 241.798253 
L 109.394114 197.556638 
L 113.118566 153.300374 
L 116.843017 109.029757 
L 120.567468 64.745072 
L 124.29192 20.446569 
L 126.094515 -1 
" style="fill:none;stroke:#1a1a1a;stroke-linecap:round;stroke-width:4;"/>
   </g>
   <g id="line2d_80">
    <path clip-path="url(#pd2325cf827)" d="M 87.047406 344.19625 
L 90.771857 337.656553 
L 94.496309 326.75709 
L 98.22076 307.345869 
L 101.945211 277.869986 
L 105.669663 242.049796 
L 109.394114 203.264536 
L 113.118566 162.999549 
L 116.843017 121.87295 
L 120.567468 80.182175 
L 124.29192 38.091594 
L 127.726569 -1 
" style="fill:none;stroke:#7f7f7f;stroke-linecap:round;stroke-width:4;"/>
   </g>
   <g id="line2d_81">
    <path clip-path="url(#pd2325cf827)" d="M 87.047406 344.19625 
L 90.771857 343.910804 
L 94.496309 343.511987 
L 98.22076 327.531583 
L 101.945211 294.321897 
L 105.669663 292.929193 
L 109.394114 292.427161 
L 113.118566 292.168242 
L 116.843017 292.010243 
L 120.567468 291.903779 
L 124.29192 291.827169 
L 128.016371 291.769396 
L 131.740823 291.724278 
L 135.465274 291.688063 
L 139.189725 291.658357 
L 142.914177 291.633548 
L 146.638628 291.612511 
L 150.363079 291.594463 
L 154.087531 291.578792 
L 157.811982 291.565066 
L 161.536434 291.552938 
L 165.260885 291.542145 
L 168.985336 291.532488 
L 172.709788 291.523794 
L 176.434239 291.515913 
L 180.158691 291.508753 
L 183.883142 291.502198 
L 187.607593 291.496196 
L 191.332045 291.490675 
L 195.056496 291.485573 
L 198.780947 291.480845 
L 202.505399 291.476448 
L 206.22985 291.472362 
L 209.954302 291.468554 
L 213.678753 291.464982 
L 217.403204 291.461616 
L 221.127656 291.458484 
L 224.852107 291.455518 
L 228.576559 291.45272 
L 232.30101 291.450087 
L 236.025461 291.447581 
L 239.749913 291.445223 
L 243.474364 291.442973 
L 247.198815 291.440838 
L 250.923267 291.438816 
L 254.647718 291.436857 
L 258.37217 291.435038 
L 262.096621 291.433275 
L 265.821072 291.431576 
L 269.545524 291.429987 
" style="fill:none;stroke:#d62728;stroke-linecap:round;stroke-width:4;"/>
   </g>
   <g id="line2d_82">
    <path clip-path="url(#pd2325cf827)" d="M 87.047406 344.19625 
L 90.771857 339.732513 
L 94.496309 331.97398 
" style="fill:none;stroke:#17becf;stroke-linecap:round;stroke-width:4;"/>
   </g>
   <g id="patch_23">
    <path d="M 77.9225 344.19625 
L 77.9225 241.12625 
" style="fill:none;stroke:#262626;stroke-linecap:square;stroke-linejoin:miter;stroke-width:2.5;"/>
   </g>
   <g id="patch_24">
    <path d="M 278.67043 344.19625 
L 278.67043 241.12625 
" style="fill:none;stroke:#262626;stroke-linecap:square;stroke-linejoin:miter;stroke-width:2.5;"/>
   </g>
   <g id="patch_25">
    <path d="M 77.9225 344.19625 
L 278.67043 344.19625 
" style="fill:none;stroke:#262626;stroke-linecap:square;stroke-linejoin:miter;stroke-width:2.5;"/>
   </g>
   <g id="patch_26">
    <path d="M 77.9225 241.12625 
L 278.67043 241.12625 
" style="fill:none;stroke:#262626;stroke-linecap:square;stroke-linejoin:miter;stroke-width:2.5;"/>
   </g>
  </g>
  <g id="axes_6">
   <g id="patch_27">
    <path d="M 395.4425 344.19625 
L 596.19043 344.19625 
L 596.19043 241.12625 
L 395.4425 241.12625 
z
" style="fill:#ffffff;"/>
   </g>
   <g id="matplotlib.axis_11">
    <g id="xtick_16">
     <g id="line2d_83">
      <g>
       <use style="fill:#262626;stroke:#262626;stroke-width:2.5;" x="443.674145" xlink:href="#m5f46ffb6df" y="344.19625"/>
      </g>
     </g>
     <g id="text_45">
      <!-- 25 -->
      <g style="fill:#262626;" transform="translate(429.676645 376.412812)scale(0.22 -0.22)">
       <use xlink:href="#DejaVuSans-50"/>
       <use x="63.623047" xlink:href="#DejaVuSans-53"/>
      </g>
     </g>
    </g>
    <g id="xtick_17">
     <g id="line2d_84">
      <g>
       <use style="fill:#262626;stroke:#262626;stroke-width:2.5;" x="508.852045" xlink:href="#m5f46ffb6df" y="344.19625"/>
      </g>
     </g>
     <g id="text_46">
      <!-- 50 -->
      <g style="fill:#262626;" transform="translate(494.854545 376.412812)scale(0.22 -0.22)">
       <use xlink:href="#DejaVuSans-53"/>
       <use x="63.623047" xlink:href="#DejaVuSans-48"/>
      </g>
     </g>
    </g>
    <g id="xtick_18">
     <g id="line2d_85">
      <g>
       <use style="fill:#262626;stroke:#262626;stroke-width:2.5;" x="574.029944" xlink:href="#m5f46ffb6df" y="344.19625"/>
      </g>
     </g>
     <g id="text_47">
      <!-- 75 -->
      <g style="fill:#262626;" transform="translate(560.032444 376.412812)scale(0.22 -0.22)">
       <use xlink:href="#DejaVuSans-55"/>
       <use x="63.623047" xlink:href="#DejaVuSans-53"/>
      </g>
     </g>
    </g>
    <g id="text_48">
     <!-- $\beta_p$ -->
     <g style="fill:#262626;" transform="translate(482.496465 403.468125)scale(0.24 -0.24)">
      <use transform="translate(0 0.390625)" xlink:href="#DejaVuSans-Oblique-946"/>
      <use transform="translate(63.818359 -16.015625)scale(0.7)" xlink:href="#DejaVuSans-Oblique-112"/>
     </g>
    </g>
   </g>
   <g id="matplotlib.axis_12">
    <g id="ytick_16">
     <g id="line2d_86">
      <g>
       <use style="fill:#262626;stroke:#262626;stroke-width:2.5;" x="395.4425" xlink:href="#m888f7a7026" y="344.19625"/>
      </g>
     </g>
     <g id="text_49">
      <!-- 0 -->
      <g style="fill:#262626;" transform="translate(365.945 352.554531)scale(0.22 -0.22)">
       <use xlink:href="#DejaVuSans-48"/>
      </g>
     </g>
    </g>
    <g id="ytick_17">
     <g id="line2d_87">
      <g>
       <use style="fill:#262626;stroke:#262626;stroke-width:2.5;" x="395.4425" xlink:href="#m888f7a7026" y="292.66125"/>
      </g>
     </g>
     <g id="text_50">
      <!-- 5 -->
      <g style="fill:#262626;" transform="translate(365.945 301.019531)scale(0.22 -0.22)">
       <use xlink:href="#DejaVuSans-53"/>
      </g>
     </g>
    </g>
    <g id="ytick_18">
     <g id="line2d_88">
      <g>
       <use style="fill:#262626;stroke:#262626;stroke-width:2.5;" x="395.4425" xlink:href="#m888f7a7026" y="241.12625"/>
      </g>
     </g>
     <g id="text_51">
      <!-- 10 -->
      <g style="fill:#262626;" transform="translate(351.9475 249.484531)scale(0.22 -0.22)">
       <use xlink:href="#DejaVuSans-49"/>
       <use x="63.623047" xlink:href="#DejaVuSans-48"/>
      </g>
     </g>
    </g>
    <g id="text_52">
     <!-- log2FC -->
     <g style="fill:#262626;" transform="translate(342.95625 333.871875)rotate(-90)scale(0.24 -0.24)">
      <use xlink:href="#DejaVuSans-108"/>
      <use x="27.783203" xlink:href="#DejaVuSans-111"/>
      <use x="88.964844" xlink:href="#DejaVuSans-103"/>
      <use x="152.441406" xlink:href="#DejaVuSans-50"/>
      <use x="216.064453" xlink:href="#DejaVuSans-70"/>
      <use x="273.583984" xlink:href="#DejaVuSans-67"/>
     </g>
    </g>
   </g>
   <g id="line2d_89">
    <path clip-path="url(#pdecb484fe9)" d="M 404.567406 344.19625 
L 408.291857 343.377084 
L 412.016309 342.266152 
L 415.74076 330.236364 
L 419.465211 301.929636 
L 423.189663 302.222938 
L 426.914114 301.799248 
L 430.638566 301.433438 
L 434.363017 300.844817 
L 438.087468 300.176088 
L 441.81192 299.783246 
L 445.536371 299.069367 
L 449.260823 298.282164 
L 452.985274 297.599931 
L 456.709725 296.417675 
L 460.434177 295.87019 
L 464.158628 294.954094 
L 467.883079 294.085015 
L 471.607531 292.957614 
L 475.331982 292.361627 
L 479.056434 291.182067 
L 482.780885 290.381696 
L 486.505336 289.321779 
L 490.229788 288.338362 
L 493.954239 287.221615 
L 497.678691 286.090058 
L 501.403142 285.133517 
L 505.127593 284.157792 
L 508.852045 282.988682 
L 512.576496 281.685669 
L 516.300947 280.646226 
L 520.025399 279.466734 
L 523.74985 278.349445 
L 527.474302 277.270752 
L 531.198753 276.207378 
L 534.923204 275.028244 
L 538.647656 273.510854 
L 542.372107 272.664274 
L 546.096559 271.60998 
L 549.82101 270.056294 
L 553.545461 269.074562 
L 557.269913 267.963171 
L 560.994364 266.625736 
L 564.718815 265.582699 
L 568.443267 263.909752 
L 572.167718 262.809589 
L 575.89217 261.855273 
L 579.616621 260.59222 
L 583.341072 259.181274 
L 587.065524 257.705305 
" style="fill:none;stroke:#1a1a1a;stroke-linecap:round;stroke-width:4;"/>
   </g>
   <g id="line2d_90">
    <path clip-path="url(#pdecb484fe9)" d="M 404.567406 344.19625 
L 408.291857 337.656553 
L 412.016309 326.75709 
L 415.74076 307.345869 
L 419.465211 291.247653 
L 423.189663 298.014239 
L 426.914114 300.973589 
L 430.638566 302.706491 
L 434.363017 303.524501 
L 438.087468 303.851344 
L 441.81192 304.197032 
L 445.536371 304.033339 
L 449.260823 303.668481 
L 452.985274 303.31838 
L 456.709725 302.391953 
L 460.434177 302.057707 
L 464.158628 301.309559 
L 467.883079 300.578072 
L 471.607531 299.561101 
L 475.331982 299.060493 
L 479.056434 297.955851 
L 482.780885 297.220499 
L 486.505336 296.213368 
L 490.229788 295.274526 
L 493.954239 294.194961 
L 497.678691 293.094706 
L 501.403142 292.165372 
L 505.127593 291.212556 
L 508.852045 290.062562 
L 512.576496 288.775431 
L 516.300947 287.750263 
L 520.025399 286.582671 
L 523.74985 285.475689 
L 527.474302 284.405877 
L 531.198753 283.350067 
L 534.923204 282.17759 
L 538.647656 280.665295 
L 542.372107 279.823873 
L 546.096559 278.774012 
L 549.82101 277.223445 
L 553.545461 276.245165 
L 557.269913 275.136519 
L 560.994364 273.80133 
L 564.718815 272.760418 
L 568.443267 271.088961 
L 572.167718 269.990367 
L 575.89217 269.037374 
L 579.616621 267.775577 
L 583.341072 266.365578 
L 587.065524 264.890433 
" style="fill:none;stroke:#7f7f7f;stroke-linecap:round;stroke-width:4;"/>
   </g>
   <g id="line2d_91">
    <path clip-path="url(#pdecb484fe9)" d="M 404.567406 344.19625 
L 408.291857 343.910804 
L 412.016309 343.511987 
L 415.74076 327.531583 
L 419.465211 300.510871 
L 423.189663 308.696323 
L 426.914114 313.310093 
L 430.638566 316.519289 
L 434.363017 318.837331 
L 438.087468 320.624053 
L 441.81192 322.169288 
L 445.536371 323.352283 
L 449.260823 324.330647 
L 452.985274 325.204039 
L 456.709725 325.819044 
L 460.434177 326.535855 
L 464.158628 327.075873 
L 467.883079 327.571694 
L 471.607531 327.95453 
L 475.331982 328.429569 
L 479.056434 328.723528 
L 482.780885 329.065366 
L 486.505336 329.312647 
L 490.229788 329.546374 
L 493.954239 329.726234 
L 497.678691 329.881416 
L 501.403142 330.050644 
L 505.127593 330.197546 
L 508.852045 330.293741 
L 512.576496 330.354551 
L 516.300947 330.449259 
L 520.025399 330.510281 
L 523.74985 330.572251 
L 527.474302 330.631684 
L 531.198753 330.685535 
L 534.923204 330.715697 
L 538.647656 330.693643 
L 542.372107 330.759201 
L 546.096559 330.790664 
L 549.82101 330.753719 
L 553.545461 330.786387 
L 557.269913 330.798851 
L 560.994364 330.781327 
L 564.718815 330.795759 
L 568.443267 330.736608 
L 572.167718 330.74028 
L 575.89217 330.757008 
L 579.616621 330.738634 
L 583.341072 330.703996 
L 587.065524 330.662471 
" style="fill:none;stroke:#d62728;stroke-linecap:round;stroke-width:4;"/>
   </g>
   <g id="line2d_92">
    <path clip-path="url(#pdecb484fe9)" d="M 404.567406 344.19625 
L 408.291857 339.732513 
L 412.016309 331.97398 
M 419.465211 318.790959 
L 423.189663 326.351119 
L 426.914114 330.480828 
L 430.638566 333.228577 
L 434.363017 335.147619 
L 438.087468 336.57238 
L 441.81192 337.736688 
L 445.536371 338.606448 
L 449.260823 339.299393 
L 452.985274 339.887942 
L 456.709725 340.299924 
L 460.434177 340.739919 
L 464.158628 341.063227 
L 467.883079 341.346045 
L 471.607531 341.556475 
L 475.331982 341.802153 
L 479.056434 341.949445 
L 482.780885 342.118893 
L 486.505336 342.24019 
L 490.229788 342.35384 
L 493.954239 342.44076 
L 497.678691 342.51527 
L 501.403142 342.596111 
L 505.127593 342.665828 
L 508.852045 342.711341 
L 512.576496 342.73999 
L 516.300947 342.784559 
L 520.025399 342.813162 
L 523.74985 342.842142 
L 527.474302 342.869864 
L 531.198753 342.894897 
L 534.923204 342.909003 
L 538.647656 342.898686 
L 542.372107 342.929137 
L 546.096559 342.9438 
L 549.82101 342.926575 
L 553.545461 342.941803 
L 557.269913 342.947585 
L 560.994364 342.93944 
L 564.718815 342.946144 
L 568.443267 342.91867 
L 572.167718 342.920362 
L 575.89217 342.928074 
L 579.616621 342.919597 
L 583.341072 342.903488 
L 587.065524 342.884179 
" style="fill:none;stroke:#17becf;stroke-linecap:round;stroke-width:4;"/>
   </g>
   <g id="patch_28">
    <path d="M 395.4425 344.19625 
L 395.4425 241.12625 
" style="fill:none;stroke:#262626;stroke-linecap:square;stroke-linejoin:miter;stroke-width:2.5;"/>
   </g>
   <g id="patch_29">
    <path d="M 596.19043 344.19625 
L 596.19043 241.12625 
" style="fill:none;stroke:#262626;stroke-linecap:square;stroke-linejoin:miter;stroke-width:2.5;"/>
   </g>
   <g id="patch_30">
    <path d="M 395.4425 344.19625 
L 596.19043 344.19625 
" style="fill:none;stroke:#262626;stroke-linecap:square;stroke-linejoin:miter;stroke-width:2.5;"/>
   </g>
   <g id="patch_31">
    <path d="M 395.4425 241.12625 
L 596.19043 241.12625 
" style="fill:none;stroke:#262626;stroke-linecap:square;stroke-linejoin:miter;stroke-width:2.5;"/>
   </g>
  </g>
  <g id="axes_7">
   <g id="patch_32">
    <path d="M 712.9625 344.19625 
L 913.71043 344.19625 
L 913.71043 241.12625 
L 712.9625 241.12625 
z
" style="fill:#ffffff;"/>
   </g>
   <g id="matplotlib.axis_13">
    <g id="xtick_19">
     <g id="line2d_93">
      <g>
       <use style="fill:#262626;stroke:#262626;stroke-width:2.5;" x="761.194145" xlink:href="#m5f46ffb6df" y="344.19625"/>
      </g>
     </g>
     <g id="text_53">
      <!-- 25 -->
      <g style="fill:#262626;" transform="translate(747.196645 376.412812)scale(0.22 -0.22)">
       <use xlink:href="#DejaVuSans-50"/>
       <use x="63.623047" xlink:href="#DejaVuSans-53"/>
      </g>
     </g>
    </g>
    <g id="xtick_20">
     <g id="line2d_94">
      <g>
       <use style="fill:#262626;stroke:#262626;stroke-width:2.5;" x="826.372045" xlink:href="#m5f46ffb6df" y="344.19625"/>
      </g>
     </g>
     <g id="text_54">
      <!-- 50 -->
      <g style="fill:#262626;" transform="translate(812.374545 376.412812)scale(0.22 -0.22)">
       <use xlink:href="#DejaVuSans-53"/>
       <use x="63.623047" xlink:href="#DejaVuSans-48"/>
      </g>
     </g>
    </g>
    <g id="xtick_21">
     <g id="line2d_95">
      <g>
       <use style="fill:#262626;stroke:#262626;stroke-width:2.5;" x="891.549944" xlink:href="#m5f46ffb6df" y="344.19625"/>
      </g>
     </g>
     <g id="text_55">
      <!-- 75 -->
      <g style="fill:#262626;" transform="translate(877.552444 376.412812)scale(0.22 -0.22)">
       <use xlink:href="#DejaVuSans-55"/>
       <use x="63.623047" xlink:href="#DejaVuSans-53"/>
      </g>
     </g>
    </g>
    <g id="text_56">
     <!-- $\beta_p$ -->
     <g style="fill:#262626;" transform="translate(800.016465 403.468125)scale(0.24 -0.24)">
      <use transform="translate(0 0.390625)" xlink:href="#DejaVuSans-Oblique-946"/>
      <use transform="translate(63.818359 -16.015625)scale(0.7)" xlink:href="#DejaVuSans-Oblique-112"/>
     </g>
    </g>
   </g>
   <g id="matplotlib.axis_14">
    <g id="ytick_19">
     <g id="line2d_96">
      <g>
       <use style="fill:#262626;stroke:#262626;stroke-width:2.5;" x="712.9625" xlink:href="#m888f7a7026" y="344.19625"/>
      </g>
     </g>
     <g id="text_57">
      <!-- 0 -->
      <g style="fill:#262626;" transform="translate(683.465 352.554531)scale(0.22 -0.22)">
       <use xlink:href="#DejaVuSans-48"/>
      </g>
     </g>
    </g>
    <g id="ytick_20">
     <g id="line2d_97">
      <g>
       <use style="fill:#262626;stroke:#262626;stroke-width:2.5;" x="712.9625" xlink:href="#m888f7a7026" y="292.66125"/>
      </g>
     </g>
     <g id="text_58">
      <!-- 5 -->
      <g style="fill:#262626;" transform="translate(683.465 301.019531)scale(0.22 -0.22)">
       <use xlink:href="#DejaVuSans-53"/>
      </g>
     </g>
    </g>
    <g id="ytick_21">
     <g id="line2d_98">
      <g>
       <use style="fill:#262626;stroke:#262626;stroke-width:2.5;" x="712.9625" xlink:href="#m888f7a7026" y="241.12625"/>
      </g>
     </g>
     <g id="text_59">
      <!-- 10 -->
      <g style="fill:#262626;" transform="translate(669.4675 249.484531)scale(0.22 -0.22)">
       <use xlink:href="#DejaVuSans-49"/>
       <use x="63.623047" xlink:href="#DejaVuSans-48"/>
      </g>
     </g>
    </g>
    <g id="text_60">
     <!-- log2FC -->
     <g style="fill:#262626;" transform="translate(660.47625 333.871875)rotate(-90)scale(0.24 -0.24)">
      <use xlink:href="#DejaVuSans-108"/>
      <use x="27.783203" xlink:href="#DejaVuSans-111"/>
      <use x="88.964844" xlink:href="#DejaVuSans-103"/>
      <use x="152.441406" xlink:href="#DejaVuSans-50"/>
      <use x="216.064453" xlink:href="#DejaVuSans-70"/>
      <use x="273.583984" xlink:href="#DejaVuSans-67"/>
     </g>
    </g>
   </g>
   <g id="line2d_99">
    <path clip-path="url(#p3957c3f12b)" d="M 722.087406 344.19625 
L 725.811857 343.862294 
L 729.536309 343.388306 
L 733.26076 342.797093 
L 736.985211 342.100652 
L 740.709663 341.346305 
L 744.434114 340.442354 
L 748.158566 339.404172 
L 751.883017 338.268111 
L 755.607468 337.026753 
L 759.33192 335.680112 
L 763.056371 334.208775 
L 766.780823 332.184524 
L 770.505274 330.355301 
L 774.229725 328.05632 
L 777.954177 325.192611 
L 781.678628 321.865155 
L 785.403079 317.372827 
L 789.127531 311.363895 
L 792.851982 301.699812 
L 796.576434 285.112657 
L 800.300885 243.546304 
L 802.843089 -1 
" style="fill:none;stroke:#1a1a1a;stroke-linecap:round;stroke-width:4;"/>
   </g>
   <g id="line2d_100">
    <path clip-path="url(#p3957c3f12b)" d="M 722.087406 344.19625 
L 725.811857 343.401846 
L 729.536309 342.430092 
L 733.26076 341.396045 
L 736.985211 340.272573 
L 740.709663 339.156989 
L 744.434114 337.806315 
L 748.158566 336.314198 
L 751.883017 334.777383 
L 755.607468 333.185268 
L 759.33192 331.540578 
L 763.056371 329.815867 
L 766.780823 327.473107 
L 770.505274 325.479815 
L 774.229725 323.006794 
L 777.954177 319.981897 
L 781.678628 316.535812 
L 785.403079 311.939652 
L 789.127531 305.863197 
L 792.851982 296.164199 
L 796.576434 279.60058 
L 800.300885 238.101914 
L 802.786947 -1 
" style="fill:none;stroke:#7f7f7f;stroke-linecap:round;stroke-width:4;"/>
   </g>
   <g id="line2d_101">
    <path clip-path="url(#p3957c3f12b)" d="M 722.087406 344.19625 
L 725.811857 344.08474 
L 729.536309 343.925838 
L 733.26076 343.72707 
L 736.985211 343.492578 
L 740.709663 343.23997 
L 744.434114 342.934601 
L 748.158566 342.580361 
L 751.883017 342.190119 
L 755.607468 341.759073 
L 759.33192 341.28507 
L 763.056371 340.757663 
L 766.780823 339.965055 
L 770.505274 339.267943 
L 774.229725 338.343906 
L 777.954177 337.162366 
L 781.678628 335.853442 
L 785.403079 334.219036 
L 789.127531 332.358673 
L 792.851982 329.868636 
L 796.576434 326.516517 
L 800.300885 320.478201 
L 804.025336 300.322437 
L 807.749788 291.352449 
L 811.474239 291.344568 
L 815.198691 291.337408 
L 818.923142 291.330852 
L 822.647593 291.324851 
L 826.372045 291.31933 
L 830.096496 291.314228 
L 833.820947 291.3095 
L 837.545399 291.305103 
L 841.26985 291.301016 
L 844.994302 291.297209 
L 848.718753 291.293637 
L 852.443204 291.290271 
L 856.167656 291.287139 
L 859.892107 291.284173 
L 863.616559 291.281375 
L 867.34101 291.278742 
L 871.065461 291.276235 
L 874.789913 291.273877 
L 878.514364 291.271628 
L 882.238815 291.269492 
L 885.963267 291.267471 
L 889.687718 291.265512 
L 893.41217 291.263693 
L 897.136621 291.261929 
L 900.861072 291.26023 
L 904.585524 291.258642 
" style="fill:none;stroke:#d62728;stroke-linecap:round;stroke-width:4;"/>
   </g>
   <g id="line2d_102">
    <path clip-path="url(#p3957c3f12b)" d="M 722.087406 344.19625 
L 725.811857 343.773946 
L 729.536309 343.301942 
L 733.26076 342.858112 
L 736.985211 342.413402 
L 740.709663 342.021791 
L 744.434114 341.545092 
L 748.158566 341.053102 
L 751.883017 340.601283 
L 755.607468 340.184257 
L 759.33192 339.802486 
L 763.056371 339.445184 
L 766.780823 338.95608 
L 770.505274 338.632283 
L 774.229725 338.238541 
L 777.954177 337.78401 
L 781.678628 337.315484 
L 785.403079 336.719408 
L 789.127531 335.989562 
L 792.851982 334.895128 
L 796.576434 333.224126 
L 800.300885 329.7155 
L 804.025336 314.319307 
" style="fill:none;stroke:#17becf;stroke-linecap:round;stroke-width:4;"/>
   </g>
   <g id="patch_33">
    <path d="M 712.9625 344.19625 
L 712.9625 241.12625 
" style="fill:none;stroke:#262626;stroke-linecap:square;stroke-linejoin:miter;stroke-width:2.5;"/>
   </g>
   <g id="patch_34">
    <path d="M 913.71043 344.19625 
L 913.71043 241.12625 
" style="fill:none;stroke:#262626;stroke-linecap:square;stroke-linejoin:miter;stroke-width:2.5;"/>
   </g>
   <g id="patch_35">
    <path d="M 712.9625 344.19625 
L 913.71043 344.19625 
" style="fill:none;stroke:#262626;stroke-linecap:square;stroke-linejoin:miter;stroke-width:2.5;"/>
   </g>
   <g id="patch_36">
    <path d="M 712.9625 241.12625 
L 913.71043 241.12625 
" style="fill:none;stroke:#262626;stroke-linecap:square;stroke-linejoin:miter;stroke-width:2.5;"/>
   </g>
  </g>
  <g id="axes_8">
   <g id="patch_37">
    <path d="M 1030.4825 344.19625 
L 1231.23043 344.19625 
L 1231.23043 241.12625 
L 1030.4825 241.12625 
z
" style="fill:#ffffff;"/>
   </g>
   <g id="matplotlib.axis_15">
    <g id="xtick_22">
     <g id="line2d_103">
      <g>
       <use style="fill:#262626;stroke:#262626;stroke-width:2.5;" x="1078.714145" xlink:href="#m5f46ffb6df" y="344.19625"/>
      </g>
     </g>
     <g id="text_61">
      <!-- 25 -->
      <g style="fill:#262626;" transform="translate(1064.716645 376.412812)scale(0.22 -0.22)">
       <use xlink:href="#DejaVuSans-50"/>
       <use x="63.623047" xlink:href="#DejaVuSans-53"/>
      </g>
     </g>
    </g>
    <g id="xtick_23">
     <g id="line2d_104">
      <g>
       <use style="fill:#262626;stroke:#262626;stroke-width:2.5;" x="1143.892045" xlink:href="#m5f46ffb6df" y="344.19625"/>
      </g>
     </g>
     <g id="text_62">
      <!-- 50 -->
      <g style="fill:#262626;" transform="translate(1129.894545 376.412812)scale(0.22 -0.22)">
       <use xlink:href="#DejaVuSans-53"/>
       <use x="63.623047" xlink:href="#DejaVuSans-48"/>
      </g>
     </g>
    </g>
    <g id="xtick_24">
     <g id="line2d_105">
      <g>
       <use style="fill:#262626;stroke:#262626;stroke-width:2.5;" x="1209.069944" xlink:href="#m5f46ffb6df" y="344.19625"/>
      </g>
     </g>
     <g id="text_63">
      <!-- 75 -->
      <g style="fill:#262626;" transform="translate(1195.072444 376.412812)scale(0.22 -0.22)">
       <use xlink:href="#DejaVuSans-55"/>
       <use x="63.623047" xlink:href="#DejaVuSans-53"/>
      </g>
     </g>
    </g>
    <g id="text_64">
     <!-- $\beta_p$ -->
     <g style="fill:#262626;" transform="translate(1117.536465 403.468125)scale(0.24 -0.24)">
      <use transform="translate(0 0.390625)" xlink:href="#DejaVuSans-Oblique-946"/>
      <use transform="translate(63.818359 -16.015625)scale(0.7)" xlink:href="#DejaVuSans-Oblique-112"/>
     </g>
    </g>
   </g>
   <g id="matplotlib.axis_16">
    <g id="ytick_22">
     <g id="line2d_106">
      <g>
       <use style="fill:#262626;stroke:#262626;stroke-width:2.5;" x="1030.4825" xlink:href="#m888f7a7026" y="344.19625"/>
      </g>
     </g>
     <g id="text_65">
      <!-- 0 -->
      <g style="fill:#262626;" transform="translate(1000.985 352.554531)scale(0.22 -0.22)">
       <use xlink:href="#DejaVuSans-48"/>
      </g>
     </g>
    </g>
    <g id="ytick_23">
     <g id="line2d_107">
      <g>
       <use style="fill:#262626;stroke:#262626;stroke-width:2.5;" x="1030.4825" xlink:href="#m888f7a7026" y="292.66125"/>
      </g>
     </g>
     <g id="text_66">
      <!-- 5 -->
      <g style="fill:#262626;" transform="translate(1000.985 301.019531)scale(0.22 -0.22)">
       <use xlink:href="#DejaVuSans-53"/>
      </g>
     </g>
    </g>
    <g id="ytick_24">
     <g id="line2d_108">
      <g>
       <use style="fill:#262626;stroke:#262626;stroke-width:2.5;" x="1030.4825" xlink:href="#m888f7a7026" y="241.12625"/>
      </g>
     </g>
     <g id="text_67">
      <!-- 10 -->
      <g style="fill:#262626;" transform="translate(986.9875 249.484531)scale(0.22 -0.22)">
       <use xlink:href="#DejaVuSans-49"/>
       <use x="63.623047" xlink:href="#DejaVuSans-48"/>
      </g>
     </g>
    </g>
    <g id="text_68">
     <!-- log2FC -->
     <g style="fill:#262626;" transform="translate(977.99625 333.871875)rotate(-90)scale(0.24 -0.24)">
      <use xlink:href="#DejaVuSans-108"/>
      <use x="27.783203" xlink:href="#DejaVuSans-111"/>
      <use x="88.964844" xlink:href="#DejaVuSans-103"/>
      <use x="152.441406" xlink:href="#DejaVuSans-50"/>
      <use x="216.064453" xlink:href="#DejaVuSans-70"/>
      <use x="273.583984" xlink:href="#DejaVuSans-67"/>
     </g>
    </g>
   </g>
   <g id="line2d_109">
    <path clip-path="url(#paf0adfe7d7)" d="M 1039.607406 344.19625 
L 1043.331857 343.377084 
L 1047.056309 342.266152 
L 1050.78076 340.813504 
L 1054.505211 339.129509 
L 1058.229663 337.29886 
L 1061.954114 335.448921 
L 1065.678566 333.241427 
L 1069.403017 331.145048 
L 1073.127468 329.06262 
L 1076.85192 326.572178 
L 1080.576371 324.472333 
L 1084.300823 322.02256 
L 1088.025274 319.74779 
L 1091.749725 317.148814 
L 1095.474177 314.538274 
L 1099.198628 311.707694 
L 1102.923079 309.562116 
L 1106.647531 306.774794 
L 1110.371982 304.072987 
L 1114.096434 301.547093 
L 1117.820885 298.668523 
L 1121.545336 296.035165 
L 1125.269788 293.018273 
L 1128.994239 290.405389 
L 1132.718691 287.467372 
L 1136.443142 284.682308 
L 1140.167593 281.599881 
L 1143.892045 278.798426 
L 1147.616496 275.639811 
L 1151.340947 272.734544 
L 1155.065399 269.485458 
L 1158.78985 266.909637 
L 1162.514302 263.928962 
L 1166.238753 260.432648 
L 1169.963204 257.719883 
L 1173.687656 254.383335 
L 1177.412107 251.662094 
L 1181.136559 248.492168 
L 1184.86101 245.292399 
L 1188.585461 242.225567 
L 1192.309913 238.912436 
L 1196.034364 235.538076 
L 1199.758815 232.593691 
L 1203.483267 229.390632 
L 1207.207718 226.023391 
L 1210.93217 222.435953 
L 1214.656621 219.677744 
L 1218.381072 216.23275 
L 1222.105524 212.924642 
" style="fill:none;stroke:#1a1a1a;stroke-linecap:round;stroke-width:4;"/>
   </g>
   <g id="line2d_110">
    <path clip-path="url(#paf0adfe7d7)" d="M 1039.607406 344.19625 
L 1043.331857 342.605888 
L 1047.056309 340.861621 
L 1050.78076 339.058825 
L 1054.505211 337.227272 
L 1058.229663 335.267283 
L 1061.954114 333.410545 
L 1065.678566 331.072599 
L 1069.403017 328.992621 
L 1073.127468 326.95844 
L 1076.85192 324.454225 
L 1080.576371 322.429045 
L 1084.300823 320.013775 
L 1088.025274 317.79737 
L 1091.749725 315.235444 
L 1095.474177 312.666838 
L 1099.198628 309.872158 
L 1102.923079 307.784914 
L 1106.647531 305.034149 
L 1110.371982 302.369777 
L 1114.096434 299.881586 
L 1117.820885 297.033315 
L 1121.545336 294.430634 
L 1125.269788 291.438871 
L 1128.994239 288.851658 
L 1132.718691 285.935118 
L 1136.443142 283.170218 
L 1140.167593 280.104886 
L 1143.892045 277.319856 
L 1147.616496 274.175042 
L 1151.340947 271.282783 
L 1155.065399 268.044806 
L 1158.78985 265.479522 
L 1162.514302 262.507869 
L 1166.238753 259.019231 
L 1169.963204 256.313786 
L 1173.687656 252.983494 
L 1177.412107 250.267866 
L 1181.136559 247.102938 
L 1184.86101 243.907439 
L 1188.585461 240.844481 
L 1192.309913 237.534776 
L 1196.034364 234.163486 
L 1199.758815 231.221731 
L 1203.483267 228.021023 
L 1207.207718 224.655929 
L 1210.93217 221.070296 
L 1214.656621 218.31367 
L 1218.381072 214.870049 
L 1222.105524 211.563326 
" style="fill:none;stroke:#7f7f7f;stroke-linecap:round;stroke-width:4;"/>
   </g>
   <g id="line2d_111">
    <path clip-path="url(#paf0adfe7d7)" d="M 1039.607406 344.19625 
L 1043.331857 343.910804 
L 1047.056309 343.511987 
L 1050.78076 342.967531 
L 1054.505211 342.306042 
L 1058.229663 341.554199 
L 1061.954114 340.771648 
L 1065.678566 339.769455 
L 1069.403017 338.799839 
L 1073.127468 337.84021 
L 1076.85192 336.654099 
L 1080.576371 335.836458 
L 1084.300823 334.935847 
L 1088.025274 334.287536 
L 1091.749725 333.601567 
L 1095.474177 333.036722 
L 1099.198628 332.486442 
L 1102.923079 332.271247 
L 1106.647531 331.880507 
L 1110.371982 331.574105 
L 1114.096434 331.353422 
L 1117.820885 331.057106 
L 1121.545336 330.84476 
L 1125.269788 330.560259 
L 1128.994239 330.383701 
L 1132.718691 330.152391 
L 1136.443142 329.965737 
L 1140.167593 329.737326 
L 1143.892045 329.571403 
L 1147.616496 329.357265 
L 1151.340947 329.195054 
L 1155.065399 328.99149 
L 1158.78985 328.893227 
L 1162.514302 328.744177 
L 1166.238753 328.536772 
L 1169.963204 328.436737 
L 1173.687656 328.266896 
L 1177.412107 328.175059 
L 1181.136559 328.037229 
L 1184.86101 327.902388 
L 1188.585461 327.786828 
L 1192.309913 327.651691 
L 1196.034364 327.516556 
L 1199.758815 327.426404 
L 1203.483267 327.316201 
L 1207.207718 327.19598 
L 1210.93217 327.062138 
L 1214.656621 327.000585 
L 1218.381072 326.886418 
L 1222.105524 326.78708 
" style="fill:none;stroke:#d62728;stroke-linecap:round;stroke-width:4;"/>
   </g>
   <g id="line2d_112">
    <path clip-path="url(#paf0adfe7d7)" d="M 1039.607406 344.19625 
L 1043.331857 343.495849 
L 1047.056309 342.856416 
L 1050.78076 342.366493 
L 1054.505211 341.992214 
L 1058.229663 341.622222 
L 1061.954114 341.370798 
L 1065.678566 340.962245 
L 1069.403017 340.721504 
L 1073.127468 340.530667 
L 1076.85192 340.23035 
L 1080.576371 340.097342 
L 1084.300823 339.886394 
L 1088.025274 339.743195 
L 1091.749725 339.547006 
L 1095.474177 339.371478 
L 1099.198628 339.176965 
L 1102.923079 339.110427 
L 1106.647531 338.952072 
L 1110.371982 338.819411 
L 1114.096434 338.71934 
L 1117.820885 338.583696 
L 1121.545336 338.485652 
L 1125.269788 338.353178 
L 1128.994239 338.270346 
L 1132.718691 338.160986 
L 1136.443142 338.07215 
L 1140.167593 337.962557 
L 1143.892045 337.88252 
L 1147.616496 337.778409 
L 1151.340947 337.699131 
L 1155.065399 337.598925 
L 1158.78985 337.550324 
L 1162.514302 337.476274 
L 1166.238753 337.372596 
L 1169.963204 337.322362 
L 1173.687656 337.236682 
L 1177.412107 337.190116 
L 1181.136559 337.120031 
L 1184.86101 337.051085 
L 1188.585461 336.991789 
L 1192.309913 336.92218 
L 1196.034364 336.852268 
L 1199.758815 336.805423 
L 1203.483267 336.747994 
L 1207.207718 336.685149 
L 1210.93217 336.61484 
L 1214.656621 336.582393 
L 1218.381072 336.522063 
L 1222.105524 336.469444 
" style="fill:none;stroke:#17becf;stroke-linecap:round;stroke-width:4;"/>
   </g>
   <g id="patch_38">
    <path d="M 1030.4825 344.19625 
L 1030.4825 241.12625 
" style="fill:none;stroke:#262626;stroke-linecap:square;stroke-linejoin:miter;stroke-width:2.5;"/>
   </g>
   <g id="patch_39">
    <path d="M 1231.23043 344.19625 
L 1231.23043 241.12625 
" style="fill:none;stroke:#262626;stroke-linecap:square;stroke-linejoin:miter;stroke-width:2.5;"/>
   </g>
   <g id="patch_40">
    <path d="M 1030.4825 344.19625 
L 1231.23043 344.19625 
" style="fill:none;stroke:#262626;stroke-linecap:square;stroke-linejoin:miter;stroke-width:2.5;"/>
   </g>
   <g id="patch_41">
    <path d="M 1030.4825 241.12625 
L 1231.23043 241.12625 
" style="fill:none;stroke:#262626;stroke-linecap:square;stroke-linejoin:miter;stroke-width:2.5;"/>
   </g>
  </g>
 </g>
 <defs>
  <clipPath id="p3636d54246">
   <rect height="103.07" width="200.74793" x="77.9225" y="31.43625"/>
  </clipPath>
  <clipPath id="p1e96725dc3">
   <rect height="103.07" width="200.74793" x="395.4425" y="31.43625"/>
  </clipPath>
  <clipPath id="pd9eca9658b">
   <rect height="103.07" width="200.74793" x="712.9625" y="31.43625"/>
  </clipPath>
  <clipPath id="p4569bb1bbf">
   <rect height="103.07" width="200.74793" x="1030.4825" y="31.43625"/>
  </clipPath>
  <clipPath id="pd2325cf827">
   <rect height="103.07" width="200.74793" x="77.9225" y="241.12625"/>
  </clipPath>
  <clipPath id="pdecb484fe9">
   <rect height="103.07" width="200.74793" x="395.4425" y="241.12625"/>
  </clipPath>
  <clipPath id="p3957c3f12b">
   <rect height="103.07" width="200.74793" x="712.9625" y="241.12625"/>
  </clipPath>
  <clipPath id="paf0adfe7d7">
   <rect height="103.07" width="200.74793" x="1030.4825" y="241.12625"/>
  </clipPath>
 </defs>
</svg>
